<?xml version="1.0" encoding="utf-8" ?>
<svg xmlns="http://www.w3.org/2000/svg" xmlns:xlink="http://www.w3.org/1999/xlink" width="512" height="512">
	<path d="M139.811 298.059C135.232 297.731 128.082 297.584 124.22 295.095C120.943 292.982 119.18 284.736 117.985 281.022L101.817 230.826C95.3588 210.804 88.8934 191.023 80.6298 171.65C74.3313 156.885 66.8333 142.214 58.604 128.428C56.2887 124.549 54.0141 120.636 51.5628 116.841C49.4855 113.625 47.0301 110.392 45.3117 106.97C44.1004 104.558 43.3961 101.877 42.5719 99.3156L38.5762 86.884L34.4497 74.1624C33.6417 71.6663 32.6258 69.0619 32.1781 66.477C31.8231 64.4275 32.3441 61.9081 33.6081 60.2349C34.5861 58.9401 35.9385 58.0964 37.4387 57.5294C41.1335 56.1329 45.0159 55.0458 48.7784 53.8354L69.7882 47.0804L134.764 26.1394L171.92 14.1394C178.108 12.1306 185.37 9.14882 191.711 8.07739C192.223 8.08619 192.741 8.09649 193.251 8.1574C195.291 8.40104 197.442 9.48645 198.631 11.2015C200.28 13.5811 211.673 48.9736 212.348 53.0185C213.004 56.952 212.933 61.1389 213.126 65.1232C213.334 69.4246 213.729 73.7258 214.109 78.015Q216.276 101.042 220.999 123.683C225.607 145.762 232.554 167.042 239.493 188.469L251.736 226.383C253.854 232.924 256.468 239.619 258.09 246.282C258.433 247.693 258.803 249.548 258.513 250.977C257.14 257.754 232.964 274.487 226.593 278.396C228.757 286.299 231.613 294.07 234.097 301.882C235.009 304.751 235.923 308.194 234.371 310.997C233.574 312.437 232.213 313.643 230.757 314.391C226.763 316.443 220.297 318.001 215.822 319.437L187.225 328.635C183.934 329.667 180.885 330.758 177.617 328.914C176.228 328.13 175.145 326.533 174.435 325.147C172.807 321.97 171.93 318.037 170.835 314.621C169.102 309.212 167.169 303.784 165.755 298.284C162.849 298.265 159.899 298.621 156.989 298.726Q148.373 299.092 139.811 298.059ZM186.739 26.2937C181.811 27.8559 176.84 29.3759 171.989 31.1659L176.805 46.1027C177.549 48.41 178.146 51.3353 179.36 53.4069L179.81 53.5245Q187.176 51.3041 194.486 48.9038C193.321 45.6024 188.311 28.4311 187.307 26.8327C187.149 26.5809 186.996 26.4261 186.739 26.2937ZM156 36.2603C151.16 37.6853 146.225 39.1793 141.505 40.9635C142.571 44.2219 147.684 61.5878 148.942 63.1268L149.555 63.2373C154.382 61.9532 159.071 60.2068 163.865 58.8142C163.153 56.3711 157.427 37.0523 156.425 36.315L156 36.2603ZM125.456 46.0467C120.698 47.5658 115.963 49.262 111.164 50.6384C112.109 54.0331 117.136 71.032 118.443 72.9992C118.62 73.0492 118.912 73.162 119.092 73.1693C123.845 71.7162 128.636 69.7967 133.489 68.7696C132.584 65.3511 127.427 48.0948 126.155 46.1699C125.938 46.1257 125.676 46.0433 125.456 46.0467ZM94.4267 56.0323C89.8938 57.5315 85.3072 59.1607 80.6989 60.4028C81.3099 63.1117 86.9756 81.8612 88.1806 82.8809L88.8117 82.8842C93.5726 81.5515 98.2264 79.8577 102.987 78.5464C102.222 75.8651 96.663 56.8989 95.6291 55.9698C95.1958 55.957 94.8561 55.9534 94.4267 56.0323ZM196.202 65.2739C185.06 68.6101 174.025 72.3995 162.956 75.9723L103.523 95.1273L78.247 103.297C73.8269 104.723 69.2846 106.483 64.7548 107.478C67.8285 113.123 71.3764 118.523 74.5661 124.109Q83.1014 138.958 90.3935 154.455C101.084 176.837 108.781 200.187 116.377 223.742C119.828 234.444 123.604 245.142 126.745 255.931Q129.718 264.908 132.534 273.935C139.805 268.53 146.054 263.404 153.941 258.789Q155.953 257.615 158.002 256.506Q160.051 255.398 162.134 254.356Q164.218 253.315 166.334 252.341Q168.451 251.368 170.597 250.463Q172.744 249.559 174.919 248.724Q177.094 247.89 179.295 247.126Q181.495 246.363 183.72 245.671Q185.944 244.979 188.19 244.359Q190.435 243.739 192.7 243.193Q194.964 242.646 197.245 242.173Q199.526 241.7 201.821 241.301Q204.116 240.902 206.423 240.578Q208.73 240.254 211.046 240.004Q213.362 239.755 215.685 239.58Q218.008 239.406 220.335 239.307Q222.663 239.208 224.992 239.184C229.566 239.144 234.45 239.101 238.981 239.746L239.196 239.778C237.606 235.509 236.374 231.062 234.974 226.723L226.635 200.892C218.365 175.265 209.987 149.938 204.652 123.497Q201.459 107.561 199.486 91.4292Q198.708 84.9154 198.096 78.3837C197.868 75.6607 197.795 67.446 196.979 65.3827C196.422 65.1689 196.684 65.1761 196.202 65.2739ZM64.3593 65.7651C59.6057 67.1984 54.9336 68.9869 50.1365 70.258L54.7538 84.7095C55.5714 87.264 56.2371 90.1603 57.4379 92.5509C58.0345 92.7922 57.7398 92.7629 58.316 92.6861C63.1395 91.4005 67.8905 89.7632 72.6181 88.1624C71.4812 84.8872 66.3862 66.9481 64.9677 65.7534L64.3593 65.7651ZM227.659 255.373C197.645 255.807 171.524 263.913 147.774 282.528L153.535 282.569C177.515 282.252 200.524 276.054 220.831 263.09C224.646 260.655 228.469 258.087 231.937 255.174C230.497 255.314 229.106 255.398 227.659 255.373ZM211.725 286.261C202 290.265 192.181 293.998 181.759 295.765C182.294 297.843 186.028 310.737 186.985 311.468C187.083 311.543 187.198 311.593 187.304 311.656C197.358 308.679 207.249 305.182 217.285 302.153C216.397 299.724 212.997 287.146 211.725 286.261Z"/>
	<path d="M284.831 258.521C281.394 254.365 279.075 250.009 278.415 244.592C277.311 235.538 281.206 225.805 288.763 220.509C293.575 217.136 302.059 213.912 307.605 211.374C315.748 207.648 323.87 203.834 332.059 200.21C335.324 198.765 340.667 197.261 342.529 194.158C345.449 189.291 347.918 184.022 350.562 178.987L365.855 149.891L412.888 60.5076L427.226 33.2173C430.057 27.8243 432.706 21.4905 436.5 16.7582C440.846 11.3391 446.961 8.82959 453.713 8.10315C457.577 7.96842 461.233 8.44999 464.818 9.9562Q465.383 10.1909 465.936 10.4534Q466.489 10.7159 467.029 11.0056Q467.568 11.2953 468.092 11.6115Q468.616 11.9277 469.124 12.2696Q469.632 12.6115 470.122 12.9783Q470.612 13.345 471.083 13.7357Q471.554 14.1264 472.006 14.5401Q472.457 14.9538 472.887 15.3894Q473.317 15.825 473.725 16.2815Q474.133 16.7379 474.517 17.2142Q474.902 17.6904 475.262 18.1851Q475.623 18.6799 475.958 19.192Q476.293 19.7041 476.603 20.2323Q476.912 20.7604 477.195 21.3033Q477.478 21.8462 477.733 22.4026Q477.989 22.9589 478.216 23.5272Q478.581 24.4488 478.871 25.3969Q479.16 26.3451 479.371 27.3135Q479.583 28.282 479.715 29.2644Q479.848 30.2468 479.9 31.2367Q479.952 32.2266 479.924 33.2175Q479.896 34.2084 479.788 35.1938Q479.68 36.1792 479.492 37.1525Q479.304 38.1259 479.038 39.0808C477.326 45.284 473.555 52.501 470.93 58.504L455.693 93.5568L399.307 223.252C399.842 227.913 401.577 232.898 402.737 237.476L409.927 265.788C411.25 270.951 413.108 276.437 413.024 281.81Q413.018 282.442 412.98 283.073Q412.942 283.704 412.873 284.333Q412.804 284.961 412.703 285.586Q412.603 286.21 412.472 286.828Q412.341 287.447 412.179 288.058Q412.017 288.669 411.825 289.272Q411.634 289.874 411.412 290.466Q411.19 291.059 410.94 291.639Q410.689 292.22 410.41 292.787Q410.131 293.354 409.824 293.907Q409.517 294.46 409.182 294.996Q408.848 295.533 408.488 296.053Q408.128 296.572 407.742 297.073Q407.356 297.574 406.946 298.055Q406.536 298.536 406.102 298.997Q405.669 299.457 405.213 299.895C399.877 305.022 393.155 307.304 385.828 307.135C380.972 316.975 376.145 326.88 371.575 336.855C373.282 338.008 374.725 339.23 375.418 341.236C376.706 344.971 376.018 356.54 376.007 361.216L376.019 382.593C376.03 399.794 375.106 412.942 367.047 428.559Q366.141 430.31 365.151 432.016Q364.161 433.721 363.089 435.376Q362.017 437.031 360.866 438.631Q359.714 440.232 358.485 441.774Q357.257 443.316 355.955 444.797Q354.653 446.277 353.28 447.692Q351.907 449.108 350.466 450.454Q349.026 451.801 347.521 453.075Q346.017 454.349 344.452 455.549Q342.887 456.749 341.265 457.87Q339.644 458.992 337.969 460.033Q336.295 461.074 334.571 462.032Q332.848 462.991 331.08 463.863Q329.312 464.736 327.504 465.522Q325.695 466.307 323.85 467.003Q322.006 467.7 320.129 468.305C319.691 474.968 320.027 481.815 320.036 488.498C320.04 491.337 320.258 494.365 319.746 497.164C319.466 498.691 318.889 500.418 317.773 501.546C315.87 503.467 312.987 504.013 310.391 504.086C302.257 504.315 294.072 504.105 285.932 504.099L240.615 504.104L214.398 504.109C209.496 504.116 204.317 504.468 199.447 503.934C197.464 503.717 195.558 502.985 194.123 501.562C192.949 500.399 192.479 498.889 192.211 497.293C191.679 494.118 191.981 490.546 191.985 487.32Q192.047 477.795 191.972 468.271C181.176 465.309 170.477 458.644 162.227 451.203Q160.787 449.895 159.412 448.518Q158.037 447.141 156.731 445.7Q155.425 444.258 154.191 442.754Q152.956 441.25 151.797 439.688Q150.637 438.126 149.554 436.509Q148.472 434.892 147.47 433.225Q146.467 431.558 145.547 429.843Q144.627 428.129 143.792 426.372Q142.956 424.615 142.207 422.82Q141.458 421.024 140.797 419.194Q140.136 417.364 139.565 415.504Q138.994 413.644 138.515 411.759Q138.035 409.874 137.647 407.967Q137.26 406.06 136.966 404.137Q136.671 402.214 136.471 400.279Q136.271 398.344 136.165 396.401C135.62 385.434 136.034 374.31 136.021 363.324C136.015 357.762 135.463 348.408 136.157 343.349C136.414 341.475 137.091 339.574 138.42 338.186C139.614 336.939 141.344 336.466 143.007 336.214C147.545 335.529 152.661 335.969 157.27 335.971L185.125 335.997L281.531 335.989L312.221 336.005C318.076 336.012 323.97 336.169 329.82 335.93L329.999 335.647L329.639 335.246C329.168 335.107 328.71 334.96 328.252 334.782C328.222 333.591 346.468 296.643 348.88 291.349C346.416 290.396 344.058 289.134 341.593 288.15C338.361 295.82 333.931 304.132 330.292 311.71C327.435 317.662 324.075 325.751 320.71 331.269C316.468 328.599 311.479 326.939 307.044 324.581C306.859 323.764 307.275 322.923 307.589 322.156C310.275 315.609 313.762 309.182 316.83 302.792C320.281 295.604 323.496 288.159 327.291 281.152C324.967 279.87 322.492 278.791 320.125 277.58C312.926 291.61 305.992 306.535 299.321 320.856C294.357 318.868 289.787 315.847 284.739 314.034C288.332 307.426 291.37 300.38 294.637 293.598C298.3 285.996 302.279 278.422 305.561 270.651C303.215 269.398 300.725 268.453 298.385 267.189C296.626 272.09 293.781 276.949 291.507 281.674L277.687 310.397C272.865 308.376 268.2 305.325 263.243 303.752C270.155 288.549 277.763 273.653 284.831 258.521ZM453.269 24.3228C449.747 25.3786 448.274 27.6012 446.609 30.6671C439.396 43.9546 432.549 57.4923 425.508 70.8777L380.021 157.336L362.593 190.471C360.181 195.071 356.795 202.59 353.893 206.599C353.099 207.695 351.997 208.506 350.839 209.186C346.437 211.775 341.299 213.692 336.642 215.81L309.47 228.171C305.692 229.893 299.72 231.89 296.828 234.795C294.467 237.167 293.624 241.023 294.631 244.191C295.77 247.771 298.432 249.431 301.614 250.979C314.476 257.237 327.555 263.116 340.325 269.553L370.071 283.848C374.55 286.003 380.654 289.553 385.314 290.766Q385.969 290.939 386.642 291.009Q387.316 291.079 387.992 291.045Q388.668 291.01 389.331 290.872Q389.994 290.734 390.628 290.495Q391.098 290.324 391.547 290.106Q391.997 289.887 392.422 289.624Q392.846 289.361 393.242 289.055Q393.637 288.75 394 288.405Q394.362 288.061 394.687 287.681Q395.011 287.301 395.296 286.89Q395.58 286.479 395.82 286.041Q396.061 285.602 396.255 285.142C396.932 283.542 397.028 281.988 396.831 280.275C396.263 275.346 394.483 270.252 393.261 265.426L385.645 235.291C384.686 231.492 382.466 225.383 383.001 221.527C383.509 217.868 389.99 204.462 391.822 200.274L410.55 157.216L446.839 73.787L457.578 49.1158C459.523 44.6604 461.933 40.0571 463.338 35.4067C464.042 33.0771 464.18 31.1894 463.13 28.8994C462.219 26.9109 460.537 25.4893 458.491 24.7602C456.806 24.1593 455.028 24.1157 453.269 24.3228ZM363.382 298.359L351.547 322.999C349.492 327.287 347.627 331.862 345.243 335.968L353.062 336.019C353.507 335.946 353.907 336.015 354.197 335.641C355.932 333.402 359.377 325.205 360.837 322.149L366.731 309.835C367.996 307.203 369.414 304.561 370.438 301.827C368.094 300.66 365.707 299.56 363.382 298.359ZM152.083 351.983C151.817 360.471 151.998 369.016 152.001 377.51C152.004 384.15 151.712 390.952 152.266 397.563Q152.38 398.883 152.548 400.198Q152.717 401.512 152.941 402.818Q153.164 404.124 153.442 405.42Q153.72 406.715 154.052 407.998Q154.384 409.281 154.769 410.549Q155.154 411.817 155.592 413.067Q156.03 414.318 156.519 415.549Q157.009 416.781 157.55 417.99Q158.09 419.2 158.681 420.386Q159.272 421.572 159.912 422.733Q160.551 423.893 161.239 425.026Q161.927 426.158 162.661 427.261Q163.396 428.364 164.176 429.435Q164.956 430.507 165.78 431.544Q166.604 432.582 167.471 433.584Q168.337 434.587 169.245 435.552C181.563 448.646 197.535 455.432 215.411 455.956C230.769 456.406 246.27 455.975 261.643 455.985L284.083 455.998C293.12 456 302.124 456.288 310.983 454.157Q312.976 453.672 314.934 453.059Q316.892 452.446 318.806 451.707Q320.72 450.969 322.582 450.107Q324.444 449.246 326.246 448.266Q328.049 447.286 329.783 446.191Q331.518 445.096 333.179 443.891Q334.839 442.686 336.418 441.376Q337.997 440.066 339.487 438.656Q340.523 437.672 341.544 436.671C352.355 424.927 358.374 413.355 359.723 397.111C360.122 392.31 360.018 387.473 360.017 382.66C360.016 372.507 359.808 362.314 360.057 352.167L210.516 352.099L170.432 352.1C165.428 352.106 156.61 352.636 152.083 351.983ZM208.11 471.569C207.892 477.023 208.037 482.488 208.012 487.945L270.766 487.993L292.394 487.99C296.233 487.99 300.128 488.133 303.961 487.955L304.004 471.825C296.418 472.271 288.764 472.108 281.166 472.111L245.817 472.107L223.693 472.118C219.738 472.121 211.473 472.593 208.11 471.569Z"/>
</svg>
