<?xml version="1.0" encoding="utf-8" ?>
<svg xmlns="http://www.w3.org/2000/svg" xmlns:xlink="http://www.w3.org/1999/xlink" width="512" height="512">
	<g/>
	<g>
		<path d="M354.779 0L361.248 0C363.527 1.15816 365.907 1.95955 368.032 3.42838C379.846 11.5936 388.927 30.2224 393.343 43.7178C395.868 51.4335 397.753 59.5646 397.97 67.7008C398.042 70.3893 397.055 76.7861 397.635 78.9033C398.118 80.6681 404.532 84.8362 406.217 86.3967Q413.401 92.9484 419.333 100.652C447.715 137.781 448.432 187.413 438.757 231.262Q436.117 243.13 432.562 254.757C431.29 258.96 429.618 263.218 428.632 267.484C435.509 274.402 437.011 285.923 436.977 295.239C436.919 310.959 432.211 328.594 420.788 339.893C412.524 348.067 401.642 351.859 390.114 351.74C388.903 351.727 387.73 351.665 386.534 351.459C385.11 356.479 384.103 361.633 382.41 366.573C393.247 360.576 404.687 358.316 416.808 361.798Q417.827 362.09 418.83 362.433Q419.834 362.776 420.819 363.168Q421.804 363.56 422.768 364Q423.733 364.44 424.674 364.928Q425.615 365.416 426.531 365.95Q427.447 366.484 428.335 367.063Q429.224 367.642 430.082 368.264Q430.94 368.886 431.767 369.55Q432.593 370.214 433.386 370.919Q434.178 371.623 434.934 372.366Q435.691 373.109 436.41 373.888Q437.128 374.668 437.807 375.482Q438.486 376.296 439.124 377.143Q439.762 377.99 440.356 378.868Q440.951 379.746 441.502 380.652Q442.052 381.558 442.557 382.49Q443.055 383.413 443.507 384.36Q443.959 385.306 444.363 386.274Q444.768 387.242 445.125 388.228Q445.482 389.215 445.789 390.217Q446.097 391.22 446.355 392.237Q446.613 393.254 446.821 394.282Q447.029 395.31 447.186 396.347Q447.343 397.384 447.449 398.428Q447.555 399.471 447.609 400.519Q447.664 401.566 447.667 402.615Q447.669 403.664 447.621 404.712Q447.572 405.76 447.472 406.804Q447.372 407.848 447.22 408.886Q447.069 409.924 446.867 410.953Q446.664 411.982 446.412 413.001Q446.159 414.019 445.857 415.023Q445.542 416.045 445.177 417.051Q444.812 418.056 444.398 419.042Q443.983 420.028 443.52 420.992Q443.057 421.956 442.547 422.896Q442.037 423.837 441.481 424.75Q440.925 425.664 440.324 426.549Q439.724 427.434 439.08 428.288Q438.436 429.142 437.75 429.963Q437.065 430.784 436.34 431.57Q435.614 432.356 434.851 433.105Q434.088 433.854 433.288 434.565Q432.488 435.275 431.655 435.945Q430.821 436.615 429.955 437.243Q429.089 437.87 428.193 438.454Q427.296 439.038 426.372 439.577Q425.449 440.116 424.499 440.608C413.318 446.455 401.538 446.293 389.699 442.668C385.737 448.854 380.099 453.476 372.802 455.031C366.339 456.408 359.673 454.996 354.151 451.412C347.863 447.332 344.672 441.403 342.94 434.283C340.339 436.824 337.579 439.418 335.325 442.274L340.704 484.481C341.461 490.397 343.126 499.231 343.06 504.866C343.043 506.233 342.678 507.61 341.848 508.715C340.679 510.272 339.139 510.915 337.634 512L333.788 512C332.759 511.402 331.674 510.774 330.729 510.048C329.57 509.157 328.983 508.19 328.602 506.786C327.2 501.626 326.892 494.955 326.205 489.575Q323.904 472.014 321.791 454.43C319.078 456.27 316.548 458.444 313.927 460.418C302.924 468.705 292.291 475.588 278.261 477.398C270.045 478.457 261.298 477.922 253.016 477.92C246.684 477.919 240.179 478.186 233.876 477.582C215.219 475.796 202.608 465.372 188.392 454.437C188.163 458.037 187.547 461.671 187.092 465.252L184.58 485.013L182.845 498.602C182.511 501.21 182.334 504.009 181.628 506.539C180.846 509.34 178.767 510.607 176.417 512L172.581 512C171.121 511.148 169.411 510.173 168.343 508.838C167.425 507.688 167.157 506.495 167.124 505.05C167.002 499.646 168.486 492.295 169.196 486.772L172.693 459.521C173.431 453.759 174.275 447.991 174.769 442.203C172.305 439.212 169.302 436.576 166.7 433.686Q157.797 423.874 150.296 412.952Q147.943 409.527 145.757 405.992Q143.571 402.458 141.558 398.822Q139.545 395.187 137.708 391.459Q135.872 387.73 134.217 383.918Q132.562 380.106 131.092 376.219Q129.622 372.332 128.341 368.379Q127.06 364.426 125.97 360.415Q124.88 356.405 123.984 352.347C123.268 349.077 121.57 344.098 122.807 340.901C123.784 338.377 126.004 336.621 127.88 334.779C133.032 329.721 136.363 323.811 137.677 316.67Q137.832 315.84 137.947 315.004Q138.061 314.168 138.134 313.327Q138.207 312.486 138.238 311.642Q138.269 310.798 138.259 309.954Q138.249 309.11 138.197 308.268Q138.145 307.425 138.051 306.586Q137.958 305.747 137.823 304.914Q137.689 304.081 137.513 303.255Q137.338 302.429 137.121 301.613Q136.905 300.797 136.649 299.993Q136.393 299.188 136.098 298.398Q135.802 297.607 135.468 296.832Q135.134 296.056 134.762 295.299Q134.391 294.541 133.982 293.802Q133.573 293.064 133.128 292.346Q132.684 291.629 132.204 290.934Q131.635 290.104 131.018 289.31Q130.401 288.515 129.737 287.759Q129.073 287.003 128.366 286.288Q127.658 285.572 126.909 284.901Q126.16 284.229 125.372 283.603Q124.584 282.978 123.761 282.4Q122.937 281.822 122.08 281.295Q121.223 280.768 120.336 280.292Q119.45 279.817 118.536 279.396Q117.623 278.974 116.685 278.608Q115.748 278.242 114.791 277.932Q113.834 277.623 112.86 277.371Q111.886 277.119 110.898 276.926Q109.911 276.732 108.914 276.598Q107.917 276.464 106.913 276.39Q105.91 276.316 104.904 276.302C101.725 276.244 98.3455 277.08 95.2175 276.448C89.4257 275.277 89.7655 270.21 88.3389 265.717C87.7642 263.907 86.8676 262.172 85.8318 260.584C82.5502 255.552 77.245 251.797 71.3428 250.592C65.2333 249.344 58.591 250.366 53.3672 253.846C45.2474 259.256 40.9293 269.816 43.7215 279.332C45.0476 283.851 49.7265 288.582 48.6117 293.383C47.6023 297.731 43.4486 298.638 40.1737 300.678Q39.6962 300.977 39.2343 301.299Q38.7723 301.622 38.3269 301.967Q37.8816 302.312 37.454 302.678Q37.0264 303.045 36.6176 303.433Q36.2088 303.82 35.8198 304.228Q35.4308 304.635 35.0626 305.061Q34.6944 305.488 34.3479 305.932Q34.0014 306.376 33.6775 306.837Q33.3535 307.298 33.0529 307.774Q32.7523 308.251 32.4759 308.742Q32.1994 309.232 31.9477 309.736Q31.696 310.24 31.4698 310.756Q31.2435 311.272 31.0432 311.799Q30.843 312.325 30.6692 312.861Q30.4954 313.397 30.3485 313.941Q30.2016 314.485 30.082 315.035C28.6852 321.269 29.7442 327.713 33.2458 333.08Q33.5529 333.553 33.8828 334.01Q34.2127 334.467 34.5646 334.908Q34.9164 335.349 35.2893 335.772Q35.6623 336.194 36.0555 336.599Q36.4487 337.003 36.8611 337.387Q37.2736 337.772 37.7043 338.135Q38.1351 338.499 38.5831 338.842Q39.0312 339.184 39.4954 339.504Q39.9596 339.824 40.4389 340.121Q40.9182 340.418 41.4115 340.691Q41.9048 340.964 42.4108 341.213Q42.9168 341.462 43.4344 341.686Q43.9519 341.909 44.4798 342.107Q45.0077 342.306 45.5447 342.478Q46.0816 342.65 46.6263 342.795Q47.171 342.941 47.7222 343.06C54.2256 344.417 60.9292 343.183 66.285 339.186C68.146 337.797 69.7264 335.983 71.6955 334.745C73.3651 333.695 75.2962 333.268 77.222 333.795C81.4639 334.957 84.7338 339.273 88.7958 341.151C92.8505 343.025 99.8361 343.578 102.017 347.83C102.988 349.725 103.056 352.004 102.312 353.988Q102.182 354.335 102.019 354.668Q101.856 355 101.66 355.315Q101.464 355.63 101.238 355.924Q101.012 356.217 100.758 356.487Q100.504 356.757 100.224 357Q99.9448 357.243 99.6423 357.457Q99.3398 357.671 99.0175 357.854Q98.6953 358.037 98.3564 358.187C95.8407 359.276 93.6231 358.636 91.1308 357.94C87.7897 357.008 84.8107 355.927 81.7396 354.293C79.7405 353.229 77.8089 351.984 75.7179 351.109C67.1602 356.906 57.6002 359.965 47.231 358.324Q46.2724 358.179 45.3222 357.986Q44.372 357.794 43.4327 357.554Q42.4934 357.313 41.5673 357.027Q40.6412 356.74 39.7306 356.407Q38.82 356.074 37.9272 355.696Q37.0345 355.318 36.1618 354.896Q35.289 354.473 34.4386 354.008Q33.5881 353.542 32.7621 353.035Q31.936 352.527 31.1364 351.979Q30.3368 351.431 29.5657 350.843Q28.7945 350.255 28.0538 349.63Q27.3131 349.004 26.6046 348.342Q25.8962 347.68 25.2217 346.984Q24.5473 346.287 23.9086 345.558Q23.27 344.829 22.6686 344.068Q22.0673 343.308 21.5048 342.518Q20.9543 341.747 20.4428 340.95Q19.9314 340.152 19.4603 339.33Q18.9892 338.508 18.5596 337.664Q18.1299 336.82 17.7429 335.955Q17.3558 335.09 17.0123 334.207Q16.6688 333.324 16.3697 332.425Q16.0705 331.527 15.8165 330.614Q15.5625 329.701 15.3542 328.777Q15.1459 327.853 14.9839 326.919Q14.8219 325.986 14.7066 325.046Q14.5913 324.105 14.5229 323.16Q14.4545 322.216 14.4332 321.268Q14.412 320.321 14.4379 319.374Q14.4638 318.427 14.5368 317.483Q14.6099 316.538 14.7298 315.598Q14.8498 314.659 15.0164 313.726C16.7838 303.43 22.5182 294.639 31.0404 288.658C27.9295 280.962 27.1241 272.749 28.9294 264.618Q29.139 263.709 29.3924 262.811Q29.6458 261.912 29.9425 261.028Q30.2393 260.143 30.5785 259.273Q30.9178 258.404 31.2989 257.552Q31.6799 256.7 32.1019 255.868Q32.5238 255.036 32.9856 254.225Q33.4475 253.414 33.9481 252.626Q34.4487 251.839 34.9869 251.076Q35.5252 250.314 36.0998 249.579Q36.6743 248.843 37.2839 248.137Q37.8935 247.43 38.5367 246.754Q39.1798 246.078 39.855 245.434Q40.5302 244.789 41.2358 244.179Q41.9415 243.568 42.6759 242.992Q43.4104 242.417 44.1719 241.877Q44.9334 241.338 45.7202 240.836C54.7584 235.117 65.473 233.753 75.8163 236.081C73.9446 230.036 72.6952 223.696 71.483 217.493C66.348 191.217 66.3267 166.941 74.5853 141.321C90.5976 91.6456 132.999 61.6297 180.521 44.9269C194.11 40.1506 208.181 36.6138 222.18 33.2709C245.522 27.6973 269.102 23.0847 292.546 17.9587C310.609 14.0091 329.23 10.1268 346.486 3.40961C349.156 2.37032 352.049 1.42915 354.584 0.104687C354.649 0.0705168 354.714 0.0348957 354.779 0ZM127.706 267.068C140.233 275.07 148.87 284.819 152.127 299.698Q152.389 300.884 152.593 302.081Q152.797 303.278 152.941 304.484Q153.085 305.69 153.17 306.901Q153.255 308.112 153.28 309.326Q153.305 310.541 153.27 311.754Q153.235 312.968 153.141 314.179Q153.046 315.39 152.892 316.594Q152.738 317.799 152.525 318.994Q152.312 320.19 152.04 321.373Q151.768 322.557 151.438 323.726Q151.108 324.894 150.721 326.045Q150.334 327.196 149.891 328.327Q149.448 329.458 148.949 330.565Q148.451 331.672 147.898 332.754Q147.346 333.835 146.741 334.888Q146.136 335.941 145.48 336.963C143.294 340.32 140.657 343.282 137.99 346.257C139.619 352.614 141.205 358.967 143.299 365.193C153.151 394.473 170.455 418.928 193.783 439.044C201.059 445.318 209.317 452.065 217.614 456.935C229.84 464.11 243.527 462.784 257.125 462.753C264.528 462.766 272.463 463.312 279.745 461.83Q282.335 461.319 284.832 460.465Q287.33 459.611 289.691 458.431C301.17 452.721 316.359 439.582 325.457 430.505C329.281 426.69 333.075 422.834 336.418 418.583Q335.823 418.037 335.256 417.462Q334.689 416.888 334.151 416.286Q333.613 415.684 333.105 415.057Q332.598 414.429 332.121 413.777Q331.645 413.126 331.201 412.451Q330.758 411.777 330.348 411.081Q329.938 410.386 329.563 409.671Q329.188 408.956 328.848 408.224Q328.509 407.491 328.206 406.743Q327.903 405.995 327.637 405.233Q327.371 404.47 327.143 403.696Q326.915 402.921 326.726 402.137Q326.536 401.352 326.386 400.559Q326.235 399.766 326.124 398.966Q326.012 398.167 325.94 397.363Q325.868 396.559 325.836 395.752C325.436 386.629 328.288 378.103 334.493 371.333Q335.06 370.706 335.656 370.109Q336.253 369.511 336.879 368.944Q337.505 368.376 338.158 367.841Q338.812 367.305 339.491 366.802Q340.17 366.3 340.873 365.832Q341.576 365.363 342.301 364.931Q343.027 364.498 343.773 364.101Q344.519 363.705 345.284 363.346Q346.048 362.988 346.83 362.667Q347.612 362.347 348.408 362.065Q349.205 361.784 350.014 361.543Q350.824 361.301 351.644 361.1Q352.465 360.9 353.294 360.74Q354.124 360.58 354.96 360.461Q355.797 360.342 356.638 360.265Q357.479 360.188 358.323 360.153C361.727 360.021 365.046 360.487 368.365 361.203C372.569 346.095 375.191 331.216 375.361 315.487Q375.393 309.947 375.094 304.414C374.951 301.606 374.601 298.663 374.933 295.863C375.361 292.251 377.14 288.662 378.267 285.216C379.309 282.029 380.125 278.707 380.873 275.439C386.573 250.515 385.349 222.573 372.589 199.941C359.534 176.787 336.415 163.357 311.428 156.464C291.555 150.982 270.578 149.31 250.017 149.623C245.363 149.742 240.663 149.746 236.021 150.063C204.648 152.205 170.851 160.64 148.498 184.208C131.544 202.082 125.469 226.314 126.123 250.4Q126.379 258.785 127.706 267.068ZM407.662 274.35C403.64 274.707 399.63 275.394 396.053 277.377C394.865 280.407 394.334 283.753 393.427 286.885C392.356 290.588 390.498 294.524 390.046 298.322C389.574 302.292 390.258 306.743 390.289 310.767Q390.511 323.624 388.953 336.388C393.352 336.472 397.365 336.341 401.563 334.826C409.682 331.268 414.936 324.833 418.106 316.644C421.627 307.547 423.912 289.596 419.611 280.444Q419.385 279.97 419.113 279.522Q418.841 279.073 418.525 278.654Q418.209 278.235 417.854 277.85Q417.498 277.464 417.105 277.116Q416.712 276.768 416.287 276.462Q415.861 276.155 415.407 275.892Q414.953 275.629 414.475 275.413Q413.997 275.196 413.5 275.029C411.743 274.426 409.519 274.195 407.662 274.35ZM361.298 420.728C361.279 420.816 361.262 420.904 361.241 420.991C359.94 426.488 355.227 429.19 359.399 435.872C360.801 438.118 363.356 439.696 365.929 440.194Q366.41 440.29 366.898 440.337Q367.387 440.384 367.877 440.383Q368.368 440.381 368.856 440.331Q369.344 440.281 369.825 440.183Q370.305 440.084 370.774 439.939Q371.242 439.793 371.694 439.601Q372.145 439.41 372.576 439.174Q373.006 438.939 373.411 438.662C379.162 434.727 376.357 427.366 382.241 424.872C383.435 424.367 384.725 424.158 386.011 424.346C389.121 424.803 391.947 427.005 394.783 428.262C403.177 431.983 413.583 430.405 420.956 425.17C426.896 420.952 431.161 414.43 432.3 407.192Q432.41 406.519 432.486 405.842Q432.562 405.165 432.605 404.484Q432.648 403.804 432.657 403.123Q432.666 402.441 432.641 401.76Q432.616 401.079 432.558 400.4Q432.5 399.721 432.408 399.045Q432.316 398.37 432.191 397.7Q432.066 397.03 431.908 396.367Q431.749 395.704 431.559 395.05Q431.368 394.395 431.145 393.751Q430.922 393.107 430.668 392.475Q430.414 391.842 430.128 391.224Q429.843 390.605 429.527 390Q429.212 389.396 428.867 388.809Q428.522 388.221 428.148 387.651Q427.774 387.081 427.373 386.53C423.193 380.815 416.858 376.74 409.831 375.649C408.057 375.374 405.967 375.162 404.178 375.353C398.775 375.801 395.023 376.946 390.232 379.469C393.299 386.638 394.99 396.264 392.01 403.761C391.152 405.922 389.609 407.764 387.413 408.637C385.643 409.34 383.479 409.342 381.736 408.551C379.925 407.729 378.586 406.108 377.945 404.243C376.836 401.014 378.202 397.758 378.386 394.502C378.778 387.592 374.596 380.484 368.46 377.321C363.944 374.992 358.093 374.941 353.325 376.519C348.764 378.029 344.609 381.433 342.503 385.783C340.35 390.231 340.233 395.801 341.913 400.417C343.577 404.988 347.131 409.076 351.611 411.067C354.989 412.568 359.102 412.926 360.734 416.793C361.279 418.083 361.317 419.348 361.298 420.728ZM111.862 261.663C108.511 233.183 114.344 202.752 132.336 179.917C142.62 166.864 156.569 156.631 171.682 149.837Q177.747 147.093 184.026 144.879Q190.304 142.666 196.749 140.998C236.891 130.621 290.888 131.98 329.841 146.858C355.992 156.847 378.471 174.676 390.002 200.646C398.293 219.318 400.344 240.247 398.446 260.439C403.998 259.365 409.611 258.695 415.213 259.893C417.984 250.413 421.045 241.119 423.301 231.48C431.672 195.723 433.545 155.222 415.343 122.027Q413.712 119.018 411.863 116.138Q410.014 113.257 407.956 110.522Q405.898 107.788 403.642 105.213Q401.387 102.638 398.947 100.238C394.229 95.6378 387.371 91.8896 384.237 86.0624C381.485 80.9471 382.672 75.6878 382.855 70.204C382.934 67.8271 382.708 65.4256 382.425 63.068C380.805 49.5519 373.977 31.1822 364.846 21.0364C363.005 18.9915 360.791 16.8279 358.15 15.8827C358.057 15.8495 357.964 15.8164 357.868 15.7936C357.375 15.6766 357.009 15.6869 356.514 15.7476C350.59 17.7645 344.831 20.122 338.836 21.9699C324.25 26.4656 309.256 29.8265 294.352 33.0747C271.606 38.0326 248.736 42.5223 226.082 47.8919C212.501 51.1109 198.776 54.473 185.601 59.1179C148.976 72.0299 112.946 94.2394 95.3058 130.133C81.3475 158.535 80.4996 185.811 86.6237 216.366C88.5597 226.026 90.9984 235.873 94.2038 245.194C95.3364 248.488 97.4141 250.899 99.2345 253.788C100.652 256.038 101.636 258.358 102.482 260.867C105.602 261.139 108.753 261.305 111.862 261.663Z"/>
		<path d="M229.339 378.544C233.226 378.181 237.899 380.152 241.739 380.844Q247.141 381.824 252.627 382.046Q258.113 382.267 263.577 381.727Q267.649 381.354 271.663 380.578C275.534 379.811 280.045 377.669 283.978 379.003C285.819 379.627 287.417 380.929 288.244 382.707C289.11 384.566 289.093 386.762 288.319 388.647C287.305 391.115 285.447 392.306 283.098 393.276C268.711 397.999 251.78 398.35 237.006 395.357C233.991 394.746 230.741 394.13 227.962 392.784C225.982 391.825 224.257 390.315 223.592 388.159C222.97 386.143 223.434 383.635 224.473 381.83C225.542 379.972 227.374 379.12 229.339 378.544Z"/>
		<path d="M254.467 295.818C256.278 295.652 257.82 295.712 259.49 296.507C261.024 297.238 262.562 298.761 263.082 300.411C264.094 303.627 263.855 327.532 263.538 332.054C263.447 333.351 263.34 334.98 262.719 336.133C261.654 338.11 259.7 339.329 257.602 339.958C255.742 340.094 254.136 339.959 252.438 339.109C251.033 338.406 249.71 337.158 249.262 335.613C248.161 331.812 248.233 307.862 248.685 303.132C248.81 301.829 248.96 300.554 249.623 299.396C250.727 297.468 252.361 296.397 254.467 295.818Z"/>
		<path d="M326.833 217.092C330.647 216.849 334.487 216.991 338.244 217.726C344.581 218.966 354.149 223.147 357.753 228.781C358.901 230.575 359.338 232.661 358.796 234.741Q358.697 235.126 358.558 235.498Q358.419 235.871 358.242 236.227Q358.066 236.583 357.853 236.918Q357.64 237.254 357.394 237.566Q357.148 237.878 356.87 238.163Q356.593 238.447 356.287 238.702Q355.982 238.956 355.652 239.177Q355.321 239.398 354.97 239.584C353.12 240.56 351.443 240.654 349.469 240.077C345.781 238.924 342.759 234.51 337.692 233.01C332.185 231.378 324.997 233.486 320.779 231.262Q320.214 230.967 319.697 230.595C318.387 229.649 317.518 228.417 317.267 226.805C316.936 224.683 317.628 221.811 318.932 220.064C320.721 217.669 324.111 217.405 326.833 217.092Z"/>
		<path d="M176.435 217.096C179.03 216.955 181.667 216.901 184.254 217.181C186.913 217.469 189.737 218.191 191.444 220.416C192.643 221.979 193.076 224.06 192.817 225.995C191.675 234.517 182.449 231.646 176.654 232.317C172.221 232.83 168.814 234.207 165.326 236.96C163.63 238.457 161.957 239.845 159.659 240.278Q159.299 240.343 158.935 240.372Q158.57 240.402 158.205 240.395Q157.839 240.388 157.476 240.344Q157.113 240.301 156.756 240.222Q156.399 240.143 156.051 240.029Q155.704 239.915 155.369 239.767Q155.035 239.619 154.717 239.438Q154.399 239.258 154.1 239.047C152.498 237.894 151.473 236.047 151.216 234.102C150.913 231.803 151.728 229.614 153.144 227.824C158.436 221.13 168.276 217.912 176.435 217.096Z"/>
		<path d="M175.337 279.564C179.514 278.993 185.438 282.926 191.263 282.848C196.927 282.772 203.118 278.485 207.508 279.92C209.411 280.541 210.812 281.983 211.662 283.768Q211.818 284.093 211.94 284.433Q212.063 284.772 212.151 285.122Q212.239 285.472 212.292 285.829Q212.345 286.186 212.362 286.546Q212.379 286.906 212.36 287.267Q212.342 287.627 212.287 287.984Q212.232 288.34 212.142 288.69Q212.052 289.039 211.928 289.378C210.998 291.943 209.004 293.309 206.655 294.439C205.791 294.838 204.923 295.235 204.035 295.577C194.992 299.068 184.177 298.533 175.366 294.538C172.997 293.464 170.572 291.895 169.694 289.313C168.985 287.225 169.482 284.904 170.53 283.018C171.621 281.055 173.253 280.19 175.337 279.564Z"/>
		<path d="M303.739 279.528C308.789 279.224 313.53 282.997 319.823 282.821C321.547 282.772 323.333 282.53 324.991 282.04C328.42 281.025 331.784 278.743 335.469 279.864C337.373 280.444 338.969 281.572 339.873 283.38C340.755 285.144 340.847 287.318 340.225 289.178C339.344 291.812 337.504 293.099 335.173 294.332Q333.971 294.892 332.75 295.407C323.789 299.12 313.003 298.503 304.143 294.787C301.675 293.751 299.185 292.286 298.201 289.646C297.474 287.694 297.643 285.168 298.605 283.324C299.689 281.246 301.559 280.157 303.739 279.528Z"/>
		<path d="M86.4655 383.84C92.6074 383.377 98.5915 385.064 103.471 388.868Q103.936 389.232 104.383 389.618Q104.83 390.005 105.257 390.413Q105.684 390.821 106.09 391.25Q106.497 391.679 106.881 392.127Q107.266 392.576 107.628 393.043Q107.99 393.51 108.328 393.994Q108.667 394.478 108.981 394.979Q109.295 395.479 109.583 395.994Q109.872 396.51 110.135 397.039Q110.398 397.568 110.634 398.109Q110.871 398.651 111.08 399.203Q111.29 399.756 111.471 400.318Q111.653 400.88 111.807 401.45Q111.96 402.021 112.085 402.598Q112.211 403.175 112.307 403.758Q112.404 404.341 112.471 404.928Q112.543 405.524 112.585 406.123Q112.628 406.723 112.64 407.323Q112.652 407.924 112.634 408.524Q112.616 409.124 112.569 409.723Q112.521 410.322 112.443 410.917Q112.365 411.513 112.258 412.104Q112.151 412.695 112.014 413.28Q111.877 413.865 111.711 414.442Q111.546 415.019 111.351 415.587Q111.157 416.156 110.934 416.714Q110.712 417.271 110.461 417.818Q110.211 418.364 109.934 418.896Q109.657 419.429 109.353 419.948Q109.05 420.466 108.721 420.968Q108.392 421.471 108.038 421.956Q107.685 422.442 107.307 422.909Q106.936 423.375 106.543 423.822Q106.149 424.269 105.734 424.696Q105.318 425.123 104.882 425.529Q104.446 425.934 103.99 426.318Q103.534 426.701 103.06 427.062Q102.585 427.422 102.094 427.758Q101.602 428.094 101.094 428.405Q100.586 428.716 100.063 429.002Q99.5407 429.288 99.0043 429.547Q98.468 429.806 97.9194 430.038Q97.3708 430.27 96.8113 430.474Q96.2518 430.679 95.6829 430.855Q95.1139 431.031 94.5368 431.179Q93.9598 431.326 93.3761 431.445Q92.7924 431.564 92.2035 431.653Q91.6146 431.743 91.022 431.803C84.7044 432.256 78.8509 430.724 73.7893 426.827Q73.3219 426.465 72.873 426.08Q72.4242 425.695 71.9951 425.289Q71.5659 424.882 71.1576 424.454Q70.7492 424.027 70.3626 423.58Q69.976 423.132 69.6121 422.666Q69.2482 422.2 68.908 421.717Q68.5677 421.233 68.252 420.734Q67.9362 420.234 67.6457 419.719Q67.3551 419.204 67.0906 418.675Q66.826 418.147 66.5881 417.605Q66.3502 417.064 66.1395 416.512Q65.9288 415.959 65.7458 415.397Q65.5629 414.835 65.4081 414.264Q65.2533 413.694 65.1271 413.116Q65.0009 412.539 64.9036 411.955Q64.8063 411.372 64.7381 410.785Q64.6645 410.182 64.621 409.576Q64.5775 408.97 64.5642 408.363Q64.5509 407.755 64.5679 407.148Q64.5849 406.541 64.6321 405.935Q64.6793 405.33 64.7566 404.727Q64.8339 404.125 64.9411 403.527Q65.0483 402.929 65.1852 402.337Q65.3221 401.745 65.4882 401.161Q65.6544 400.576 65.8494 400.001Q66.0445 399.426 66.268 398.861Q66.4914 398.296 66.7428 397.743Q66.9941 397.19 67.2726 396.65Q67.5512 396.11 67.8563 395.585Q68.1614 395.06 68.4922 394.55Q68.8231 394.041 69.179 393.548Q69.5348 393.056 69.9147 392.582C74.1173 387.313 79.8601 384.607 86.4655 383.84ZM90.8259 416.552C93.4079 415.703 95.5965 414.149 96.79 411.627C97.8313 409.427 97.8659 406.772 96.9964 404.511Q96.8376 404.095 96.6368 403.697Q96.4361 403.299 96.1955 402.925Q95.955 402.55 95.6771 402.202Q95.3993 401.853 95.0872 401.536Q94.775 401.218 94.4318 400.934Q94.0887 400.65 93.7181 400.403Q93.3476 400.156 92.9536 399.948Q92.5596 399.74 92.1463 399.574C90.174 398.784 88.2661 398.89 86.2001 399.081C83.6332 399.995 81.5652 401.462 80.4047 404.011Q80.2171 404.427 80.0716 404.859Q79.9262 405.292 79.8243 405.736Q79.7223 406.181 79.665 406.633Q79.6076 407.086 79.5954 407.542Q79.5832 407.998 79.6162 408.453Q79.6492 408.908 79.7271 409.357Q79.805 409.807 79.9271 410.246Q80.0492 410.686 80.2142 411.111Q80.3711 411.524 80.5686 411.919Q80.7662 412.313 81.0024 412.686Q81.2387 413.059 81.5112 413.407Q81.7838 413.754 82.0899 414.072Q82.396 414.39 82.7325 414.676Q83.0691 414.962 83.4326 415.212Q83.7962 415.463 84.1831 415.676Q84.57 415.888 84.9763 416.061C86.7984 416.833 88.8996 416.977 90.8259 416.552Z"/>
		<path d="M129.816 433.548C131.34 433.353 132.842 433.413 134.28 433.998Q134.617 434.131 134.939 434.298Q135.262 434.464 135.566 434.662Q135.87 434.859 136.153 435.086Q136.436 435.313 136.695 435.567Q136.954 435.82 137.187 436.099Q137.419 436.377 137.623 436.677Q137.827 436.977 138 437.296Q138.173 437.615 138.313 437.949Q138.456 438.292 138.565 438.647Q138.674 439.002 138.747 439.366Q138.821 439.73 138.858 440.1Q138.896 440.47 138.897 440.841Q138.898 441.212 138.862 441.582Q138.827 441.952 138.755 442.316Q138.683 442.681 138.576 443.037Q138.469 443.392 138.328 443.736C137.368 446.073 135.578 447.296 133.301 448.179C131.597 448.575 129.991 448.46 128.371 447.752Q128.036 447.605 127.718 447.426Q127.4 447.246 127.102 447.036Q126.803 446.825 126.527 446.586Q126.251 446.346 126.001 446.081Q125.75 445.815 125.528 445.525Q125.305 445.236 125.112 444.925Q124.92 444.615 124.759 444.287Q124.599 443.959 124.472 443.616C123.721 441.603 123.914 439.256 124.89 437.353C125.973 435.242 127.606 434.212 129.816 433.548Z"/>
		<path d="M474.195 278.076C474.508 278.049 474.814 278.026 475.128 278.022C477.24 277.998 479.376 278.504 480.896 280.059C483.844 283.075 483.15 288.352 483.103 292.222C487.108 292.233 492.598 291.618 495.596 294.802C496.93 296.219 497.585 298.135 497.508 300.069Q497.493 300.465 497.437 300.857Q497.381 301.249 497.284 301.634Q497.188 302.018 497.052 302.39Q496.916 302.762 496.742 303.119Q496.568 303.475 496.359 303.811Q496.149 304.147 495.905 304.46Q495.662 304.772 495.387 305.058Q495.113 305.343 494.81 305.599C491.803 308.144 486.923 307.714 483.242 307.425C483.065 310.559 483.576 314.29 482.396 317.24C481.456 319.59 479.651 320.774 477.393 321.703C476.751 321.797 476.103 321.891 475.453 321.874C473.505 321.824 471.596 321.116 470.259 319.672C467.378 316.56 468.039 311.43 468.099 307.516Q466.836 307.545 465.572 307.558C462.219 307.596 458.328 307.767 455.803 305.161C454.399 303.712 453.714 301.74 453.755 299.737C453.795 297.725 454.532 295.728 456.029 294.346C459.022 291.584 464.306 292.268 468.086 292.347C468.054 288.972 467.572 284.534 469.261 281.514C470.379 279.515 472.063 278.656 474.195 278.076Z"/>
		<path d="M450.971 336.561C452.285 336.578 453.707 336.912 454.88 337.507Q455.199 337.667 455.499 337.858Q455.8 338.049 456.08 338.269Q456.36 338.49 456.617 338.737Q456.873 338.985 457.103 339.257Q457.333 339.53 457.534 339.824Q457.735 340.118 457.906 340.431Q458.076 340.744 458.214 341.073Q458.352 341.401 458.456 341.742Q458.573 342.124 458.649 342.515Q458.726 342.907 458.761 343.304Q458.797 343.702 458.791 344.101Q458.785 344.5 458.738 344.896Q458.691 345.293 458.604 345.682Q458.516 346.071 458.388 346.449Q458.261 346.827 458.095 347.19Q457.929 347.553 457.726 347.897C456.412 350.088 454.431 351.058 452.052 351.718C450.405 351.695 448.837 351.346 447.414 350.481C445.728 349.455 444.507 347.811 444.093 345.872C443.649 343.796 444.056 341.509 445.27 339.757C446.737 337.64 448.57 337.002 450.971 336.561Z"/>
	</g>
</svg>
