<?xml version="1.0" encoding="utf-8" ?>
<svg xmlns="http://www.w3.org/2000/svg" xmlns:xlink="http://www.w3.org/1999/xlink" width="512" height="512">
	<g/>
	<g>
		<path d="M343.756 59.6609C337.978 64.8802 332.216 69.9793 325.908 74.5639C299.999 93.3946 269.449 103.206 237.546 104.032C234.92 104.099 232.286 104.128 229.663 104.265C227.889 104.357 226.04 104.628 224.27 104.527C221.826 104.388 219.629 103.631 217.972 101.764C216.469 100.071 215.799 98.1669 216.038 95.9098C216.279 93.6323 217.405 91.3876 219.254 90.0007C220.37 89.164 221.719 88.803 223.075 88.567C226.294 88.0066 229.733 88.09 232.99 88.0159C237.748 87.9078 242.477 87.7765 247.223 87.4Q250.559 87.116 253.878 86.669Q257.197 86.222 260.489 85.6131Q263.782 85.0042 267.041 84.2348Q270.3 83.4655 273.517 82.5375Q276.735 81.6095 279.903 80.5251Q283.071 79.4407 286.182 78.2025Q289.293 76.9643 292.34 75.5752Q295.387 74.1862 298.362 72.6497C311.52 65.9202 323.216 57.1307 333.774 46.8285C337.593 43.1023 343.448 36.375 347.394 33.5028C349.143 32.2293 351.308 31.8398 353.424 32.2255C355.512 32.6062 357.497 33.7772 358.673 35.5679C361.54 39.9315 359.435 66.5354 358.834 72.4115Q357.855 81.8643 356.288 91.2374C366.183 95.3934 375.699 99.869 384.846 105.519Q387.619 107.246 390.323 109.079Q393.027 110.912 395.657 112.848Q398.288 114.785 400.842 116.822Q403.395 118.859 405.868 120.994Q408.34 123.128 410.728 125.357Q413.116 127.586 415.416 129.906Q417.716 132.226 419.923 134.634Q422.131 137.041 424.244 139.533Q426.357 142.024 428.372 144.595Q430.386 147.167 432.3 149.814Q434.213 152.462 436.022 155.182Q437.831 157.902 439.534 160.69Q441.236 163.478 442.829 166.329Q444.421 169.181 445.902 172.093Q447.383 175.005 448.75 177.971Q450.117 180.938 451.368 183.956Q452.841 187.551 454.148 191.209Q455.454 194.868 456.591 198.583Q457.728 202.297 458.694 206.06Q459.659 209.824 460.45 213.627Q461.241 217.43 461.857 221.266Q462.473 225.102 462.912 228.962Q463.351 232.822 463.612 236.698Q463.873 240.574 463.956 244.458C464.195 255.462 463.606 266.546 464.061 277.532Q465.297 278.124 466.502 278.775Q467.708 279.426 468.88 280.135Q470.053 280.844 471.189 281.609Q472.326 282.374 473.424 283.193Q474.522 284.013 475.579 284.885Q476.636 285.756 477.649 286.679Q478.663 287.601 479.63 288.571Q480.597 289.541 481.516 290.557Q482.435 291.574 483.304 292.633Q484.172 293.693 484.989 294.793Q485.805 295.894 486.566 297.033Q487.328 298.172 488.033 299.346Q488.739 300.521 489.386 301.728Q490.034 302.936 490.622 304.173Q491.209 305.411 491.737 306.676Q492.264 307.94 492.729 309.229Q493.189 310.521 493.585 311.833Q493.98 313.146 494.311 314.477Q494.642 315.807 494.907 317.153Q495.172 318.498 495.371 319.854Q495.57 321.211 495.702 322.576Q495.834 323.94 495.898 325.31Q495.963 326.68 495.961 328.051Q495.958 329.422 495.888 330.791Q495.818 332.16 495.681 333.525Q495.544 334.889 495.34 336.245Q495.136 337.601 494.866 338.945Q494.595 340.289 494.259 341.618Q493.923 342.948 493.523 344.259Q493.122 345.57 492.657 346.86Q492.192 348.15 491.665 349.415Q491.137 350.681 490.548 351.919Q489.944 353.187 489.279 354.424Q488.613 355.661 487.886 356.863Q487.159 358.066 486.374 359.23Q485.589 360.395 484.746 361.519Q483.904 362.643 483.007 363.724Q482.11 364.805 481.16 365.84Q480.21 366.874 479.21 367.861Q478.21 368.847 477.162 369.783Q476.114 370.718 475.021 371.601Q473.928 372.483 472.792 373.31Q471.657 374.136 470.481 374.906Q469.306 375.675 468.094 376.385Q466.882 377.095 465.636 377.744Q464.39 378.393 463.113 378.979Q461.837 379.565 460.533 380.087Q459.229 380.609 457.9 381.065C449.079 384.119 440.393 384.092 431.205 384.129C428.148 384.142 424.962 384.326 421.924 384.006C420.483 391.831 418.793 399.454 416.324 407.025Q415.357 409.974 414.271 412.881Q413.185 415.788 411.982 418.648Q410.779 421.509 409.461 424.318Q408.143 427.128 406.712 429.882Q405.281 432.635 403.739 435.329Q402.198 438.022 400.548 440.651Q398.899 443.279 397.144 445.839Q395.389 448.398 393.532 450.884Q391.675 453.371 389.719 455.779Q387.762 458.188 385.71 460.516Q383.657 462.843 381.512 465.086Q379.366 467.328 377.132 469.482Q374.897 471.635 372.577 473.696Q370.257 475.757 367.856 477.722Q365.454 479.688 362.975 481.554Q360.495 483.42 357.942 485.184C340.733 497.057 321.774 504.897 301.367 509.264C296.867 510.227 286.765 510.706 283.389 512L261.11 512C261.037 511.976 260.965 511.951 260.892 511.929C257.204 510.792 251.199 510.562 247.181 509.991C241.679 509.208 236.136 507.85 230.793 506.331Q228.965 505.81 227.151 505.243Q225.336 504.677 223.537 504.065Q221.737 503.453 219.953 502.797Q218.169 502.141 216.402 501.44Q214.635 500.74 212.887 499.995Q211.138 499.251 209.408 498.463Q207.678 497.676 205.968 496.845Q204.258 496.015 202.57 495.142Q200.881 494.269 199.215 493.354Q197.549 492.44 195.906 491.484Q194.263 490.528 192.644 489.531Q191.026 488.535 189.433 487.498Q187.839 486.462 186.272 485.386Q184.705 484.31 183.166 483.196Q181.626 482.081 180.115 480.928Q178.603 479.776 177.121 478.586Q175.639 477.396 174.187 476.17Q172.734 474.943 171.313 473.681Q169.892 472.419 168.503 471.121Q167.114 469.824 165.757 468.493Q164.401 467.161 163.078 465.796Q161.755 464.432 160.466 463.034Q159.178 461.637 157.925 460.208Q156.671 458.779 155.454 457.319Q154.237 455.859 153.056 454.37Q151.876 452.88 150.733 451.361Q149.59 449.843 148.485 448.296Q147.38 446.749 146.314 445.176Q145.248 443.602 144.221 442.002Q143.195 440.402 142.208 438.778Q141.222 437.153 140.277 435.504Q139.331 433.855 138.427 432.183C131.476 419.38 123.541 398.718 122.215 384.225C114.58 383.854 106.916 384.392 99.2829 383.808Q97.9757 383.695 96.6752 383.521Q95.3747 383.347 94.0838 383.113Q92.7928 382.879 91.5142 382.584Q90.2356 382.29 88.9721 381.936Q87.7087 381.582 86.4631 381.17Q85.2175 380.758 83.9926 380.288Q82.7676 379.818 81.566 379.291Q80.3643 378.764 79.1886 378.182Q78.0128 377.599 76.8655 376.963Q75.7182 376.326 74.6019 375.637Q73.4856 374.947 72.4027 374.206Q71.3198 373.466 70.2727 372.675Q69.2256 371.884 68.2165 371.046Q67.2075 370.207 66.2387 369.322Q65.2699 368.438 64.3434 367.508Q63.417 366.579 62.535 365.608Q61.6062 364.587 60.7291 363.522Q59.852 362.456 59.0288 361.349Q58.2055 360.241 57.4382 359.094Q56.6708 357.947 55.9613 356.763Q55.2517 355.579 54.6016 354.362Q53.9516 353.145 53.3627 351.897Q52.7737 350.648 52.2473 349.373Q51.7209 348.097 51.2584 346.797Q50.7959 345.496 50.3983 344.175Q50.0008 342.853 49.6692 341.514Q49.3376 340.174 49.0728 338.82Q48.808 337.465 48.6106 336.099Q48.4133 334.733 48.2838 333.359Q48.1543 331.986 48.0931 330.607Q48.0319 329.228 48.039 327.848Q48.0462 326.468 48.1217 325.09Q48.1923 323.697 48.3322 322.309Q48.4722 320.921 48.6812 319.542Q48.8902 318.163 49.1677 316.796Q49.4452 315.429 49.7905 314.077Q50.1358 312.725 50.5481 311.393Q50.9604 310.06 51.4387 308.75Q51.9169 307.439 52.4599 306.155Q53.0029 304.87 53.6093 303.613Q54.2156 302.357 54.8839 301.133Q55.5522 299.908 56.2807 298.719Q57.0092 297.529 57.7961 296.377Q58.583 295.225 59.4264 294.114Q60.2698 293.003 61.1675 291.936Q62.0653 290.868 63.0151 289.846Q63.965 288.825 64.9646 287.852Q65.9642 286.879 67.0111 285.957Q70.5735 282.834 74.586 280.315C76.0519 279.395 78.1411 278.778 79.3238 277.537C79.9051 276.927 79.9463 276.41 79.9909 275.61C80.2759 270.499 80.0119 265.22 80.0103 260.094C80.0049 243.516 79.8703 228.25 83.1219 211.877C83.8833 208.043 84.514 203.092 87.4365 200.261C88.9234 198.82 90.679 198.302 92.7209 198.366Q93.1303 198.377 93.5367 198.429Q93.943 198.48 94.3422 198.572Q94.7414 198.663 95.1297 198.794Q95.5179 198.924 95.8914 199.093Q96.2648 199.261 96.6199 199.465Q96.9749 199.669 97.308 199.908Q97.6412 200.146 97.9491 200.416Q98.2571 200.686 98.5369 200.985C99.993 202.556 100.679 204.626 100.541 206.754C100.328 210.058 99.1857 213.608 98.5303 216.881Q97.305 223.318 96.6816 229.84C95.3198 243.69 96.0165 258.029 96.0097 271.947C111.67 272.025 127.608 272.558 143.214 271.132Q145.561 270.924 147.902 270.666Q150.244 270.408 152.58 270.099Q154.915 269.789 157.244 269.43Q159.572 269.07 161.892 268.66Q164.212 268.25 166.522 267.79Q168.833 267.329 171.133 266.819Q173.433 266.309 175.721 265.749Q178.01 265.189 180.285 264.579Q182.561 263.97 184.823 263.311Q187.085 262.652 189.332 261.945Q191.579 261.237 193.811 260.481Q196.042 259.725 198.256 258.921Q200.471 258.116 202.667 257.264Q204.863 256.412 207.041 255.512Q209.218 254.613 211.376 253.666Q213.533 252.719 215.669 251.726Q217.806 250.733 219.92 249.694Q222.034 248.655 224.126 247.57Q226.217 246.485 228.284 245.355Q230.351 244.225 232.394 243.051Q234.436 241.876 236.452 240.658Q238.469 239.439 240.458 238.177Q242.448 236.915 244.409 235.61Q246.371 234.306 248.304 232.959Q250.237 231.612 252.14 230.223Q254.043 228.835 255.916 227.405Q257.788 225.975 259.63 224.506Q261.471 223.036 263.28 221.527Q265.089 220.017 266.864 218.469Q268.64 216.921 270.382 215.334Q272.124 213.748 273.831 212.124Q275.538 210.5 277.209 208.84Q279.075 207.01 280.897 205.137Q282.719 203.263 284.497 201.348Q286.275 199.432 288.007 197.475Q289.74 195.519 291.426 193.522Q293.112 191.525 294.75 189.489Q296.389 187.453 297.979 185.38Q299.57 183.306 301.111 181.195Q302.652 179.085 304.144 176.939Q305.635 174.793 307.076 172.612Q308.516 170.432 309.906 168.218Q311.295 166.004 312.631 163.759Q313.968 161.513 315.252 159.237Q316.535 156.96 317.765 154.654Q318.995 152.348 320.171 150.014Q321.346 147.68 322.467 145.319Q323.587 142.958 324.652 140.571Q325.716 138.184 326.725 135.773Q327.733 133.362 328.685 130.928Q329.636 128.494 330.53 126.039Q331.425 123.583 332.261 121.107Q333.097 118.631 333.875 116.136Q334.653 113.641 335.372 111.129Q336.092 108.616 336.752 106.087Q337.412 103.559 338.012 101.015Q338.613 98.4718 339.154 95.9149Q339.694 93.3581 340.175 90.7892Q340.655 88.2204 341.076 85.6409Q341.496 83.0615 341.855 80.473Q342.215 77.8844 342.513 75.2881Q342.812 72.6918 343.05 70.0892Q343.288 67.4867 343.464 64.8792Q343.641 62.2718 343.756 59.6609ZM424.068 287.967C423.474 314.601 424.285 341.304 424.008 367.949C441.667 368.062 454.374 369.356 468.173 356.148C475.815 347.963 480.282 338.275 479.923 326.887Q479.895 325.907 479.818 324.93Q479.742 323.953 479.618 322.98Q479.493 322.008 479.322 321.043Q479.15 320.077 478.932 319.122Q478.713 318.166 478.448 317.222Q478.183 316.279 477.872 315.349Q477.561 314.419 477.204 313.506Q476.848 312.593 476.448 311.698Q476.047 310.803 475.603 309.929Q475.16 309.055 474.674 308.204Q474.188 307.352 473.66 306.526Q473.133 305.699 472.566 304.9Q471.999 304.1 471.394 303.329Q470.789 302.558 470.146 301.818Q469.504 301.077 468.826 300.369Q468.148 299.661 467.436 298.987C457.54 289.716 447.766 288.089 434.723 288.105C431.227 288.109 427.53 288.463 424.068 287.967ZM245.623 493.4C282.597 499.909 318.642 493.227 349.596 471.496Q350.972 470.54 352.324 469.55Q353.676 468.56 355.003 467.537Q356.33 466.514 357.631 465.459Q358.933 464.404 360.208 463.317Q361.483 462.23 362.731 461.112Q363.979 459.994 365.199 458.845Q366.419 457.697 367.61 456.518Q368.801 455.34 369.963 454.133Q371.125 452.926 372.257 451.691Q373.389 450.455 374.49 449.192Q375.591 447.93 376.661 446.64Q377.731 445.35 378.768 444.035Q379.806 442.719 380.811 441.378Q381.816 440.038 382.788 438.673Q383.759 437.308 384.697 435.919Q385.634 434.53 386.538 433.119Q387.441 431.708 388.309 430.275Q389.177 428.842 390.01 427.388Q390.842 425.934 391.639 424.46Q392.435 422.986 393.195 421.492Q393.956 419.999 394.679 418.488Q395.402 416.976 396.087 415.447Q396.773 413.918 397.42 412.373Q398.068 410.828 398.677 409.267Q399.287 407.706 399.858 406.131Q400.429 404.556 400.96 402.967Q401.492 401.378 401.985 399.777Q402.477 398.175 402.93 396.562Q403.383 394.949 403.796 393.325Q404.21 391.701 404.583 390.068Q404.956 388.434 405.288 386.792Q405.621 385.15 405.913 383.5C408.558 368.298 408.017 352.909 408.017 337.546L408.009 286.094C368.501 278.575 335.212 257.981 312.467 224.512C310.262 221.268 308.124 217.92 306.257 214.469C304.969 212.088 303.832 209.152 302.231 206.986C301.983 206.65 301.845 206.523 301.46 206.404Q299.99 208.112 298.488 209.791Q296.986 211.47 295.452 213.12Q293.919 214.771 292.353 216.391Q290.788 218.012 289.193 219.602Q287.597 221.193 285.971 222.752Q284.345 224.312 282.69 225.84Q281.034 227.369 279.35 228.865Q277.666 230.361 275.953 231.825Q274.241 233.289 272.501 234.72Q270.76 236.151 268.993 237.549Q267.226 238.946 265.432 240.31Q263.639 241.673 261.819 243.002Q260 244.331 258.156 245.625Q256.311 246.919 254.443 248.177Q252.574 249.436 250.681 250.658Q248.789 251.881 246.873 253.067Q244.958 254.253 243.02 255.402Q241.082 256.552 239.123 257.664Q237.164 258.776 235.183 259.85Q233.203 260.925 231.203 261.961Q229.202 262.998 227.182 263.996Q225.162 264.994 223.124 265.953Q221.085 266.912 219.029 267.832Q216.972 268.752 214.898 269.633Q212.825 270.514 210.735 271.355Q208.644 272.196 206.538 272.996Q204.433 273.797 202.312 274.558Q200.191 275.318 198.056 276.038Q195.921 276.758 193.773 277.437Q191.625 278.115 189.464 278.753Q187.303 279.391 185.13 279.987Q182.958 280.583 180.774 281.138Q170.356 283.684 159.76 285.344Q149.165 287.005 138.467 287.768C137.663 287.831 136.913 287.8 136.112 287.696C135.889 293.469 136.009 299.275 136.008 305.052L136.012 334.818C136.016 346.383 135.493 358.193 136.373 369.717Q136.577 372.567 136.901 375.406Q137.224 378.244 137.667 381.067Q138.11 383.89 138.672 386.691Q139.233 389.493 139.912 392.268Q140.591 395.043 141.386 397.788Q142.181 400.532 143.091 403.24Q144.001 405.949 145.024 408.617Q146.048 411.284 147.182 413.906Q148.317 416.529 149.561 419.101Q150.805 421.673 152.156 424.19Q153.507 426.708 154.963 429.166Q156.419 431.625 157.977 434.02Q159.536 436.414 161.193 438.742Q162.851 441.069 164.605 443.324Q166.359 445.579 168.207 447.759Q170.054 449.938 171.992 452.038C191.98 473.693 216.941 487.205 245.623 493.4ZM104.798 288.119C92.8997 288.552 82.7401 292.099 74.5187 301.016Q73.8486 301.748 73.2157 302.512Q72.5827 303.276 71.9885 304.07Q71.3943 304.865 70.8402 305.688Q70.2862 306.511 69.7737 307.36Q69.2612 308.21 68.7916 309.083Q68.3219 309.957 67.8963 310.854Q67.4706 311.75 67.0899 312.666Q66.7093 313.582 66.3746 314.516Q66.0399 315.45 65.752 316.399Q65.4641 317.349 65.2237 318.311Q64.9834 319.274 64.7911 320.247Q64.5988 321.22 64.4551 322.202Q64.3113 323.184 64.2165 324.171Q64.1217 325.159 64.0761 326.15Q64.0305 327.141 64.0341 328.133Q64.0378 329.125 64.0907 330.116Q64.1421 331.1 64.2421 332.081Q64.3422 333.061 64.4907 334.036Q64.6392 335.01 64.8358 335.976Q65.0324 336.942 65.2766 337.897Q65.5209 338.852 65.8121 339.793Q66.1033 340.735 66.4409 341.661Q66.7784 342.587 67.1614 343.495Q67.5444 344.403 67.9719 345.291Q68.3994 346.179 68.8704 347.045Q69.3414 347.911 69.8547 348.752Q70.3681 349.594 70.9224 350.409Q71.4768 351.224 72.0709 352.01Q72.665 352.797 73.2973 353.553Q73.9296 354.309 74.5986 355.033Q75.2676 355.756 75.9716 356.446Q76.6757 357.136 77.413 357.79C79.5226 359.681 81.8112 361.285 84.2484 362.722C95.7287 368.989 107.312 368.137 119.961 367.977L120.008 313.995C120.007 305.397 119.867 296.776 120.054 288.183C114.971 288.143 109.88 288.04 104.798 288.119ZM353.091 107.173L352.991 107.422C351.82 110.431 351.108 113.697 350.233 116.806C349.068 120.943 347.751 125.121 346.3 129.166C337.957 152.421 327.267 171.536 313.217 191.719C315.308 197.658 318.323 203.439 321.519 208.855Q322.725 210.902 324.006 212.904Q325.287 214.905 326.641 216.858Q327.995 218.811 329.42 220.712Q330.845 222.613 332.34 224.46Q333.835 226.307 335.397 228.098Q336.959 229.889 338.586 231.62Q340.213 233.352 341.903 235.022Q343.593 236.692 345.344 238.299Q347.095 239.905 348.904 241.446Q350.713 242.987 352.578 244.459Q354.443 245.932 356.361 247.335Q358.279 248.738 360.247 250.068Q362.216 251.399 364.232 252.656Q366.249 253.913 368.31 255.095Q370.372 256.276 372.476 257.381Q374.58 258.485 376.723 259.511Q380.653 261.392 384.703 262.999Q388.752 264.606 392.903 265.93Q397.053 267.255 401.285 268.291Q405.517 269.328 409.81 270.071C422.462 272.169 435.169 272.149 447.961 271.977C448.028 258.594 448.451 245.129 447.088 231.797Q446.921 230.211 446.721 228.629Q446.52 227.048 446.287 225.47Q446.053 223.893 445.786 222.321Q445.519 220.749 445.219 219.183Q444.918 217.617 444.585 216.058Q444.252 214.499 443.886 212.947Q443.519 211.395 443.121 209.851Q442.722 208.307 442.29 206.772Q441.859 205.237 441.395 203.712Q440.931 202.186 440.435 200.671Q439.939 199.155 439.411 197.651Q438.884 196.146 438.324 194.653Q437.765 193.16 437.174 191.679Q436.583 190.198 435.96 188.73Q435.338 187.262 434.685 185.807Q434.032 184.353 433.348 182.912Q432.665 181.472 431.951 180.046Q431.237 178.62 430.493 177.21Q429.749 175.8 428.975 174.405Q428.202 173.011 427.399 171.633Q426.596 170.256 425.764 168.896Q424.932 167.535 424.072 166.193Q423.212 164.85 422.323 163.526Q421.434 162.202 420.518 160.898Q419.602 159.593 418.658 158.308Q417.714 157.022 416.743 155.757Q415.773 154.492 414.775 153.248Q413.778 152.004 412.755 150.781Q411.732 149.559 410.683 148.358Q409.634 147.157 408.56 145.978Q407.486 144.8 406.387 143.644Q405.288 142.489 404.165 141.357C388.729 125.738 373.003 116.054 353.091 107.173Z"/>
		<path d="M231.234 392.072C235.503 391.864 239.094 395.326 242.454 397.52C244.434 398.812 246.534 400.016 248.684 401.002Q251.44 402.242 254.311 403.187Q257.183 404.131 260.137 404.769Q263.091 405.407 266.096 405.731Q269.102 406.056 272.124 406.063Q274.786 406.053 277.436 405.788Q280.085 405.523 282.697 405.006Q285.308 404.489 287.859 403.724Q290.409 402.959 292.874 401.954C296.325 400.535 299.763 398.77 302.855 396.668C304.821 395.332 306.668 393.545 308.881 392.642C310.127 392.133 311.579 391.976 312.91 392.14Q313.309 392.188 313.702 392.274Q314.095 392.361 314.477 392.487Q314.859 392.612 315.227 392.774Q315.595 392.937 315.945 393.135Q316.295 393.333 316.624 393.565Q316.952 393.797 317.256 394.06Q317.561 394.323 317.837 394.615Q318.114 394.907 318.36 395.225Q318.601 395.536 318.809 395.87Q319.017 396.204 319.19 396.557Q319.363 396.91 319.498 397.28Q319.634 397.649 319.731 398.03Q319.828 398.411 319.886 398.8Q319.944 399.189 319.961 399.582Q319.979 399.975 319.956 400.368Q319.933 400.761 319.87 401.149C319.23 404.954 316.31 406.824 313.387 408.881C306.716 414.053 297.988 417.716 289.898 419.914C271.921 424.797 252.155 421.691 236.101 412.45C232.39 410.313 225.199 406.416 224.181 402.057C223.718 400.073 224.237 397.153 225.367 395.455C226.773 393.341 228.849 392.498 231.234 392.072Z"/>
		<path d="M212.383 321.574Q213.848 321.413 215.321 321.391Q216.794 321.37 218.263 321.488Q219.732 321.605 221.183 321.862Q222.634 322.118 224.054 322.51C229.295 323.953 236.333 327.376 239.023 332.374Q239.214 332.722 239.367 333.088Q239.521 333.454 239.635 333.834Q239.75 334.215 239.824 334.605Q239.898 334.995 239.93 335.39Q239.963 335.786 239.955 336.183Q239.946 336.58 239.896 336.974Q239.846 337.367 239.755 337.754Q239.664 338.14 239.533 338.515Q239.397 338.91 239.222 339.289Q239.047 339.668 238.835 340.028Q238.623 340.387 238.375 340.723Q238.127 341.06 237.847 341.369Q237.566 341.678 237.256 341.958Q236.946 342.237 236.609 342.484Q236.272 342.731 235.912 342.942Q235.552 343.153 235.172 343.327C229.194 346.052 225.671 340.067 220.191 338.098C214.865 336.904 210.529 338.05 206.174 341.22C204.7 342.293 203.201 343.44 201.4 343.889C199.313 344.409 197.133 343.729 195.378 342.564C193.688 341.443 192.529 339.743 192.167 337.741C191.728 335.313 192.434 332.915 193.885 330.952C198.045 325.328 205.786 322.681 212.383 321.574Z"/>
		<path d="M324.383 321.574Q325.848 321.413 327.321 321.391Q328.794 321.37 330.263 321.487Q331.732 321.605 333.183 321.861Q334.634 322.118 336.054 322.51C341.299 323.954 348.327 327.375 351.023 332.374Q351.214 332.722 351.368 333.088Q351.522 333.454 351.636 333.834Q351.751 334.214 351.825 334.605Q351.899 334.995 351.932 335.39Q351.964 335.786 351.956 336.183Q351.947 336.58 351.896 336.974Q351.846 337.367 351.755 337.754Q351.663 338.14 351.532 338.515Q351.396 338.91 351.221 339.289Q351.046 339.668 350.834 340.028Q350.621 340.387 350.374 340.723Q350.126 341.059 349.846 341.369Q349.565 341.678 349.255 341.958Q348.945 342.237 348.608 342.484Q348.272 342.731 347.912 342.942Q347.552 343.154 347.172 343.328C341.204 346.054 337.666 340.066 332.191 338.098C330.664 337.756 329.04 337.697 327.477 337.697C319.924 337.696 319.349 342.348 313.63 343.779C311.567 344.295 309.417 343.852 307.631 342.729Q307.292 342.519 306.977 342.274Q306.662 342.03 306.374 341.754Q306.086 341.478 305.828 341.174Q305.57 340.87 305.345 340.541Q305.12 340.212 304.931 339.861Q304.741 339.51 304.588 339.142Q304.436 338.773 304.323 338.391Q304.209 338.009 304.136 337.617Q304.065 337.214 304.033 336.807Q304.002 336.399 304.011 335.99Q304.02 335.582 304.068 335.176Q304.117 334.77 304.206 334.371Q304.294 333.972 304.421 333.583Q304.549 333.195 304.713 332.82Q304.878 332.446 305.079 332.09Q305.279 331.734 305.514 331.399C309.574 325.52 317.686 322.703 324.383 321.574Z"/>
		<path d="M103.097 0L120.655 0C124.02 1.15934 128.008 1.25377 131.523 1.9695Q137.653 3.25708 143.563 5.33016Q149.474 7.40325 155.065 10.2267Q156.123 10.7601 157.168 11.3193Q158.213 11.8786 159.244 12.4633Q160.275 13.0481 161.291 13.6581Q162.307 14.268 163.308 14.9028Q164.309 15.5375 165.294 16.1967Q166.279 16.8559 167.247 17.5391Q168.215 18.2223 169.167 18.9291Q170.118 19.6359 171.052 20.3659Q171.985 21.0959 172.901 21.8487Q173.816 22.6014 174.713 23.3764Q175.609 24.1515 176.486 24.9483Q177.364 25.7452 178.221 26.5633Q179.078 27.3815 179.915 28.2206Q180.753 29.0596 181.569 29.9189Q182.385 30.7783 183.18 31.6575Q183.974 32.5366 184.747 33.4351Q185.52 34.3335 186.271 35.2507Q187.021 36.1679 187.749 37.1033Q188.477 38.0386 189.181 38.9916Q189.886 39.9446 190.567 40.9146Q191.248 41.8847 191.904 42.8712Q192.561 43.8576 193.194 44.86Q193.826 45.8623 194.433 46.8799Q195.041 47.8975 195.623 48.9297Q196.206 49.9619 196.762 51.0081Q197.319 52.0544 197.85 53.114Q198.381 54.1736 198.885 55.2459Q199.39 56.3183 199.868 57.4027Q200.346 58.4871 200.797 59.583Q201.249 60.6788 201.673 61.7855Q202.097 62.8921 202.494 64.0088Q202.891 65.1256 203.26 66.2517Q203.624 67.3686 203.961 68.494Q204.298 69.6195 204.607 70.7529Q204.916 71.8862 205.197 73.0268Q205.479 74.1675 205.732 75.3146Q205.985 76.4618 206.21 77.6148Q206.435 78.7678 206.632 79.926Q206.828 81.0842 206.997 82.2469Q207.165 83.4096 207.305 84.576Q207.444 85.7424 207.555 86.912Q207.666 88.0815 207.749 89.2534Q207.831 90.4252 207.885 91.5988Q207.938 92.7724 207.963 93.9469Q207.988 95.1214 207.984 96.2962Q207.98 97.4709 207.947 98.6453Q207.914 99.8196 207.853 100.993Q207.791 102.166 207.701 103.337Q207.611 104.508 207.492 105.677Q207.373 106.846 207.225 108.011Q207.078 109.177 206.902 110.338Q206.725 111.5 206.521 112.657Q206.316 113.814 206.084 114.965Q205.851 116.117 205.59 117.262Q205.329 118.407 205.04 119.546Q204.751 120.685 204.434 121.816Q204.117 122.947 203.773 124.07Q203.428 125.194 203.057 126.308Q202.685 127.422 202.286 128.527Q201.887 129.632 201.461 130.727Q201.035 131.822 200.582 132.906Q200.129 133.99 199.65 135.062Q199.171 136.135 198.665 137.196Q198.16 138.256 197.629 139.304Q197.087 140.366 196.52 141.415Q195.952 142.464 195.359 143.498Q194.766 144.533 194.148 145.552Q193.529 146.572 192.886 147.576Q192.243 148.58 191.575 149.568Q190.907 150.555 190.215 151.527Q189.523 152.498 188.808 153.452Q188.092 154.406 187.354 155.342Q186.615 156.278 185.854 157.195Q185.092 158.113 184.308 159.011Q183.524 159.91 182.719 160.789Q181.913 161.668 181.086 162.527Q180.259 163.386 179.411 164.224Q178.563 165.063 177.695 165.88Q176.826 166.697 175.938 167.493Q175.05 168.289 174.143 169.062Q173.235 169.836 172.309 170.587Q171.383 171.338 170.439 172.066Q169.495 172.794 168.533 173.499Q167.571 174.204 166.592 174.884Q165.613 175.565 164.617 176.222Q163.622 176.878 162.611 177.51Q161.6 178.142 160.573 178.749Q159.547 179.356 158.506 179.937Q157.465 180.519 156.41 181.074Q155.355 181.63 154.286 182.159Q153.218 182.689 152.137 183.192Q151.056 183.695 149.963 184.172Q148.869 184.648 147.765 185.097Q146.66 185.547 145.545 185.969Q144.43 186.391 143.305 186.786Q142.18 187.18 141.045 187.547Q139.929 187.903 138.805 188.231Q137.681 188.559 136.549 188.86Q135.418 189.16 134.279 189.433Q133.14 189.706 131.995 189.95Q130.85 190.195 129.699 190.412Q128.548 190.628 127.392 190.816Q126.236 191.005 125.076 191.165Q123.916 191.325 122.753 191.456Q121.589 191.588 120.423 191.691Q119.256 191.794 118.087 191.868Q116.919 191.942 115.749 191.988Q114.579 192.033 113.408 192.05Q112.237 192.067 111.066 192.056Q109.895 192.044 108.724 192.004Q107.554 191.963 106.385 191.894Q105.216 191.825 104.049 191.727Q102.882 191.63 101.718 191.503Q100.554 191.377 99.3932 191.222Q98.2325 191.067 97.0758 190.884Q95.9192 190.701 94.7675 190.49Q93.6157 190.278 92.4694 190.039Q91.3232 189.799 90.1832 189.531Q89.0431 189.264 87.91 188.968Q86.7769 188.673 85.6513 188.35Q84.5258 188.027 83.4085 187.676Q82.2912 187.325 81.1828 186.947Q80.0745 186.569 78.9757 186.165Q77.8769 185.76 76.7884 185.328Q75.6999 184.896 74.6223 184.438Q73.5447 183.979 72.4786 183.495Q71.4126 183.01 70.3587 182.5Q69.3048 181.989 68.2638 181.453Q67.2116 180.912 66.1729 180.346Q65.1343 179.779 64.1098 179.188Q63.0854 178.596 62.0757 177.979Q61.0661 177.363 60.0718 176.721Q59.0776 176.08 58.0994 175.415Q57.1212 174.75 56.1596 174.06Q55.198 173.371 54.2536 172.659Q53.3091 171.946 52.3825 171.211Q51.4558 170.475 50.5474 169.717Q49.639 168.959 48.7495 168.179Q47.86 167.399 46.9899 166.598Q46.1197 165.796 45.2695 164.974Q44.4193 164.151 43.5895 163.308Q42.7597 162.465 41.9508 161.601Q41.1419 160.738 40.3544 159.855Q39.5669 158.972 38.8013 158.07Q38.0357 157.168 37.2925 156.248Q36.5492 155.327 35.8287 154.389Q35.1083 153.451 34.411 152.495Q33.7137 151.539 33.0401 150.567Q32.3665 149.594 31.7169 148.605Q31.0673 147.616 30.4422 146.612Q29.817 145.608 29.2167 144.588Q28.6163 143.569 28.0412 142.535Q27.466 141.501 26.9163 140.454Q26.3667 139.406 25.8428 138.345Q25.319 137.284 24.8214 136.211Q24.3237 135.138 23.8525 134.053Q23.3813 132.968 22.9368 131.871Q22.4924 130.775 22.0749 129.668Q21.6575 128.561 21.2673 127.444Q20.8771 126.327 20.5144 125.201Q20.1563 124.074 19.826 122.939Q19.4957 121.803 19.1935 120.66Q18.8912 119.517 18.6171 118.366Q18.343 117.216 18.0973 116.059Q17.8515 114.903 17.6343 113.74Q17.4171 112.578 17.2285 111.411Q17.0399 110.243 16.88 109.072Q16.7202 107.9 16.5892 106.725Q16.4582 105.55 16.3561 104.371Q16.2541 103.193 16.181 102.013Q16.1079 100.833 16.0638 99.6512Q16.0198 98.4695 16.0048 97.2871Q15.9898 96.1047 16.0039 94.9223Q16.0179 93.7399 16.0611 92.5582Q16.1042 91.3764 16.1763 90.1961Q16.2485 89.0158 16.3497 87.8377Q16.4508 86.6595 16.5809 85.4842Q16.711 84.3089 16.8699 83.1371Q17.0288 81.9653 17.2165 80.7978Q17.4042 79.6303 17.6205 78.4677Q17.8368 77.3052 18.0817 76.1483Q18.3265 74.9914 18.5997 73.8409Q18.8729 72.6904 19.1742 71.547Q19.4756 70.4035 19.805 69.2678Q20.1344 68.1321 20.4916 67.0049Q20.8489 65.8776 21.2337 64.7595Q21.6185 63.6413 22.0307 62.533Q22.4428 61.4247 22.8821 60.3268Q23.3214 59.2289 23.7876 58.1422Q24.2537 57.0554 24.7464 55.9805Q25.2392 54.9055 25.7582 53.843Q26.2771 52.7804 26.8221 51.731Q27.3658 50.6803 27.9353 49.6433Q28.5048 48.6063 29.0997 47.5837Q29.6947 46.5611 30.3147 45.5535Q30.9348 44.5459 31.5795 43.554Q32.2243 42.5621 32.8934 41.5864Q33.5625 40.6107 34.2555 39.6518Q34.9485 38.693 35.665 37.7515Q36.3815 36.8101 37.121 35.8866Q37.8606 34.9632 38.6227 34.0583Q39.3849 33.1535 40.1692 32.2677Q40.9534 31.382 41.7594 30.5159Q42.5653 29.6498 43.3924 28.8038Q44.2195 27.9579 45.0673 27.1327Q45.9151 26.3075 46.783 25.5035Q47.6509 24.6995 48.5384 23.9172Q49.4259 23.1349 50.3325 22.3748Q51.239 21.6147 52.1641 20.8772Q53.0892 20.1397 54.0322 19.4253Q54.9753 18.7109 55.9357 18.0201Q56.8961 17.3292 57.8733 16.6623Q58.8505 15.9954 59.8439 15.3529Q60.8372 14.7103 61.8462 14.0925Q62.8552 13.4747 63.8791 12.8821Q64.903 12.2894 65.9413 11.7222Q66.9795 11.1551 68.0315 10.6137Q69.0835 10.0724 70.1485 9.55724Q71.2135 9.04208 72.2909 8.5534Q73.3683 8.06472 74.4575 7.60283Q75.5467 7.14093 76.647 6.7061Q77.7473 6.27127 78.8579 5.86377Q79.9686 5.45627 81.089 5.07635Q82.2094 4.69643 83.3389 4.34432C86.7468 3.28264 90.3511 2.29516 93.8634 1.67984C96.7795 1.16899 100.089 0.985198 102.881 0.0742788C102.953 0.0506804 103.025 0.0247596 103.097 0ZM113.851 175.93C136.622 174.717 156.081 166.353 171.481 149.315Q172.787 147.866 174.02 146.354Q175.253 144.843 176.411 143.273Q177.569 141.703 178.648 140.079Q179.728 138.454 180.727 136.779Q181.726 135.103 182.641 133.381Q183.557 131.658 184.387 129.893Q185.218 128.128 185.961 126.325Q186.704 124.521 187.357 122.683Q188.011 120.846 188.574 118.978Q189.137 117.11 189.609 115.217Q190.08 113.325 190.458 111.411Q190.836 109.497 191.119 107.567Q191.403 105.638 191.592 103.696Q191.781 101.755 191.875 99.8063Q191.969 97.8579 191.968 95.9072Q191.966 93.9566 191.869 92.0084Q191.818 91.0104 191.742 90.014Q191.666 89.0176 191.565 88.0234Q191.465 87.0292 191.339 86.0379Q191.213 85.0465 191.063 84.0586Q190.913 83.0707 190.738 82.0868Q190.563 81.103 190.363 80.1238Q190.164 79.1446 189.94 78.1708Q189.716 77.1969 189.468 76.2289Q189.22 75.2609 188.948 74.2994Q188.676 73.3379 188.379 72.3835Q188.083 71.4291 187.763 70.4824Q187.444 69.5357 187.1 68.5973Q186.757 67.6589 186.39 66.7294Q186.023 65.7999 185.633 64.8798Q185.243 63.9597 184.831 63.0496Q184.418 62.1396 183.982 61.2401Q183.547 60.3406 183.089 59.4523Q182.632 58.564 182.152 57.6874Q181.672 56.8108 181.171 55.9465Q180.669 55.0821 180.146 54.2306Q179.624 53.3791 179.079 52.5408Q178.535 51.7026 177.971 50.8782Q177.406 50.0539 176.821 49.2439Q176.236 48.4339 175.63 47.6388Q175.025 46.8436 174.4 46.0639Q173.775 45.2841 173.131 44.5202Q172.487 43.7563 171.824 43.0087Q171.161 42.2611 170.479 41.5303Q169.797 40.7996 169.098 40.086Q168.398 39.3725 167.681 38.6767Q166.964 37.9808 166.229 37.3031Q165.495 36.6254 164.744 35.9663Q163.362 34.7485 161.926 33.5961Q160.489 32.4436 159.001 31.3588Q157.512 30.2741 155.975 29.2594Q154.438 28.2447 152.856 27.3023Q151.273 26.3599 149.649 25.4918Q148.025 24.6236 146.362 23.8316Q144.699 23.0395 143.001 22.3253Q141.304 21.6111 139.575 20.9763Q137.846 20.3415 136.09 19.7874Q134.333 19.2332 132.553 18.761Q130.773 18.2888 128.973 17.8995Q127.172 17.5102 125.356 17.2047Q123.54 16.8992 121.711 16.6781Q119.883 16.4569 118.046 16.3207Q116.21 16.1845 114.368 16.1334Q112.527 16.0824 110.686 16.1166C88.9177 16.6988 68.7737 25.3889 53.7612 41.1999Q53.0833 41.9185 52.4234 42.6537Q51.7635 43.3889 51.1221 44.1402Q50.4806 44.8915 49.8579 45.6584Q49.2352 46.4253 48.6317 47.2075Q48.0282 47.9896 47.4443 48.7864Q46.8603 49.5833 46.2963 50.3943Q45.7322 51.2053 45.1884 52.0301Q44.6446 52.8549 44.1214 53.6928Q43.5982 54.5308 43.0959 55.3815Q42.5937 56.2322 42.1126 57.095Q41.6315 57.9578 41.1719 58.8323Q40.7124 59.7068 40.2746 60.5924Q39.8368 61.478 39.4211 62.3742Q39.0054 63.2704 38.612 64.1766Q38.2186 65.0828 37.8478 65.9984Q37.477 66.9141 37.1289 67.8386Q36.7809 68.7632 36.4558 69.6961Q36.1308 70.6289 35.8289 71.5696Q35.5271 72.5102 35.2486 73.4581Q34.9701 74.4059 34.7152 75.3604Q34.4603 76.3148 34.2291 77.2753Q33.9979 78.2357 33.7906 79.2016Q33.5832 80.1675 33.3998 81.1382Q33.2165 82.1089 33.0572 83.0839Q32.8979 84.0589 32.7628 85.0375Q32.6277 86.0161 32.5169 86.9978Q32.4061 87.9794 32.3196 88.9635Q32.2331 89.9476 32.1711 90.9336Q32.109 91.9195 32.0713 92.9067Q32.0337 93.8939 32.0205 94.8817Q32.0073 95.8695 32.0185 96.8573Q32.0298 97.8452 32.0655 98.8324Q32.1351 100.783 32.3 102.728Q32.4648 104.673 32.7244 106.608Q32.984 108.543 33.3377 110.463Q33.6915 112.382 34.1386 114.283Q34.5857 116.183 35.125 118.059Q35.6643 119.935 36.2946 121.782Q36.9249 123.63 37.6447 125.445Q38.3645 127.259 39.172 129.036Q39.9795 130.814 40.8728 132.549Q41.7662 134.285 42.7432 135.975Q43.7202 137.665 44.7786 139.305Q45.8369 140.945 46.9741 142.532Q48.1113 144.119 49.3247 145.648Q50.538 147.177 51.8245 148.645Q53.1111 150.113 54.4678 151.517Q55.8245 152.92 57.2481 154.256Q58.6626 155.589 60.1403 156.851Q61.618 158.113 63.1555 159.301Q64.6929 160.49 66.2864 161.602Q67.88 162.714 69.5258 163.748Q71.1716 164.781 72.8658 165.733Q74.5601 166.685 76.2986 167.553Q78.0372 168.421 79.816 169.204Q81.5948 169.986 83.4097 170.681Q85.2245 171.376 87.071 171.982Q88.9176 172.588 90.7914 173.103Q92.6652 173.618 94.5619 174.041Q96.4586 174.464 98.3737 174.794Q100.289 175.124 102.218 175.361Q104.147 175.597 106.085 175.739Q108.023 175.882 109.965 175.929Q111.908 175.977 113.851 175.93Z"/>
		<path d="M111.218 48.0824C113.59 48.023 115.961 48.6887 117.692 50.3835C118.833 51.5008 119.378 52.7806 119.68 54.3266C120.448 58.2586 120.044 62.7549 120.041 66.7694L120.004 87.9521L129.435 87.985C128.129 84.9509 127.875 81.2892 128.137 78.0298Q128.184 77.4356 128.261 76.8444Q128.337 76.2532 128.442 75.6664Q128.548 75.0797 128.682 74.4989Q128.816 73.9181 128.979 73.3446Q129.142 72.7711 129.332 72.2063Q129.523 71.6416 129.742 71.0869Q129.96 70.5322 130.205 69.9889Q130.451 69.4456 130.722 68.9151Q130.994 68.3846 131.292 67.8681Q131.59 67.3516 131.912 66.8504Q132.235 66.3492 132.582 65.8646Q132.929 65.3799 133.3 64.9129Q133.67 64.4459 134.063 63.9977Q134.456 63.5495 134.871 63.1213Q135.286 62.693 135.721 62.2857Q136.156 61.8784 136.611 61.493Q137.066 61.118 137.539 60.7658Q138.012 60.4136 138.502 60.0851Q138.992 59.7566 139.498 59.4527Q140.003 59.1487 140.523 58.87Q141.043 58.5912 141.575 58.3384Q142.108 58.0856 142.653 57.8593Q143.198 57.633 143.753 57.4338Q144.308 57.2346 144.872 57.063Q145.436 56.8913 146.009 56.7476Q146.581 56.6039 147.159 56.4886Q147.737 56.3732 148.321 56.2865Q148.904 56.1997 149.491 56.1418Q150.078 56.0839 150.667 56.0549Q151.256 56.0259 151.846 56.0259Q152.436 56.026 153.025 56.055Q153.614 56.0841 154.201 56.1421Q154.798 56.1973 155.392 56.2821Q155.985 56.367 156.574 56.4813Q157.162 56.5956 157.745 56.7392Q158.327 56.8827 158.901 57.0551Q159.475 57.2275 160.04 57.4283Q160.605 57.6291 161.16 57.8578Q161.714 58.0865 162.256 58.3426Q162.798 58.5986 163.327 58.8814Q163.856 59.1642 164.37 59.473Q164.884 59.7817 165.382 60.1157Q165.88 60.4498 166.36 60.8082Q166.841 61.1666 167.303 61.5486Q167.765 61.9305 168.208 62.335Q168.651 62.7395 169.072 63.1656Q169.494 63.5917 169.895 64.0383Q170.295 64.4848 170.672 64.9508Q171.043 65.41 171.391 65.8872Q171.739 66.3643 172.063 66.858Q172.386 67.3518 172.685 67.861Q172.984 68.3703 173.257 68.8937Q173.53 69.4171 173.777 69.9535Q174.024 70.4898 174.244 71.0378Q174.464 71.5857 174.657 72.1439Q174.849 72.7021 175.014 73.2691Q175.178 73.8362 175.315 74.4107Q175.451 74.9852 175.558 75.5658Q175.666 76.1463 175.745 76.7315Q175.823 77.3167 175.873 77.9051Q175.922 78.4935 175.942 79.0836Q175.963 79.6737 175.953 80.2641Q175.944 80.8544 175.906 81.4436Q175.868 82.0328 175.8 82.6194Q175.737 83.2107 175.645 83.7982Q175.553 84.3857 175.431 84.9678Q175.31 85.5499 175.159 86.1253Q175.009 86.7006 174.83 87.2677Q174.651 87.8348 174.444 88.3923Q174.237 88.9498 174.003 89.4962Q173.768 90.0427 173.507 90.5768Q173.245 91.1108 172.957 91.6311Q172.669 92.1515 172.356 92.6568Q172.042 93.1621 171.704 93.6512Q171.366 94.1402 171.003 94.6117Q170.641 95.0833 170.256 95.5362Q169.87 95.989 169.463 96.4221Q169.055 96.8551 168.627 97.2673Q168.198 97.6795 167.749 98.0698Q167.301 98.46 166.833 98.8274Q165.774 99.6606 164.63 100.372Q163.485 101.084 162.27 101.665Q161.054 102.247 159.782 102.691Q158.509 103.135 157.196 103.437C150.955 104.807 142.118 104.053 135.627 104.077C130.542 104.096 125.077 104.602 120.038 103.992C119.946 111.449 120.027 118.917 120.035 126.375C120.039 130.943 120.343 135.71 119.549 140.22C119.062 142.987 118.126 145.383 116.823 147.858C114.652 151.452 111.833 154.437 108.228 156.626Q107.722 156.932 107.202 157.213Q106.682 157.493 106.148 157.747Q105.614 158.001 105.068 158.228Q104.523 158.455 103.966 158.654Q103.409 158.853 102.844 159.024Q102.278 159.195 101.704 159.338Q101.131 159.48 100.55 159.593Q99.9703 159.707 99.3853 159.791Q98.8002 159.876 98.2117 159.93Q97.6231 159.985 97.0326 160.01Q96.442 160.036 95.8509 160.031Q95.2599 160.027 94.6697 159.993Q94.0796 159.959 93.492 159.895Q92.9043 159.831 92.3206 159.738Q91.7368 159.645 91.1585 159.523Q90.5802 159.401 90.0087 159.25Q89.4344 159.103 88.868 158.927Q88.3017 158.752 87.7447 158.549Q87.1878 158.346 86.6415 158.115Q86.0953 157.885 85.5611 157.628Q85.0269 157.371 84.506 157.087Q83.9852 156.804 83.479 156.496Q82.9729 156.187 82.4825 155.854Q81.9922 155.52 81.519 155.163Q81.0458 154.806 80.5908 154.426Q80.1358 154.046 79.7001 153.644Q79.2645 153.242 78.8492 152.818Q78.434 152.395 78.0402 151.952Q77.6464 151.509 77.2749 151.047Q76.9035 150.585 76.5554 150.105Q76.2073 149.625 75.8833 149.128Q75.5593 148.632 75.2603 148.12C72.0191 142.622 71.2675 135.844 72.8865 129.698Q73.0366 129.13 73.2144 128.569Q73.3923 128.009 73.5976 127.458Q73.8028 126.907 74.035 126.367Q74.2671 125.827 74.5255 125.299Q74.784 124.771 75.0681 124.256Q75.3522 123.742 75.6613 123.242Q75.9704 122.742 76.3038 122.257Q76.6371 121.773 76.9939 121.306Q77.3507 120.839 77.7301 120.39Q78.1094 119.941 78.5105 119.511Q78.9115 119.081 79.3332 118.671Q79.7549 118.262 80.1962 117.873Q80.6376 117.485 81.0975 117.119Q81.5574 116.753 82.0348 116.41Q82.5122 116.067 83.006 115.748Q83.4997 115.428 84.0085 115.134C90.393 111.516 97.0847 111.474 104.006 113.367C103.972 110.308 104.034 107.243 104.059 104.184Q93.3967 104.063 82.734 104.132C78.7315 104.141 74.3523 104.507 70.4214 103.786Q69.8841 103.689 69.365 103.52Q68.846 103.35 68.3548 103.112Q67.8637 102.874 67.4096 102.57Q66.9555 102.267 66.547 101.905C65.0226 100.577 64.1558 98.7457 64.0365 96.7333C63.9004 94.4367 64.6567 92.0892 66.2652 90.4186C67.2456 89.4005 68.5291 88.6303 69.9152 88.3353C73.6998 87.5298 78.1916 87.9679 82.0651 87.9707L103.966 87.9751Q104.041 77.4303 103.989 66.8853C103.985 63.0858 103.698 59.0093 104.199 55.2491C104.389 53.82 104.724 52.3846 105.568 51.1917C106.973 49.2045 108.939 48.5113 111.218 48.0824ZM97.5543 143.763C99.8945 143.097 101.825 141.88 103.004 139.682Q103.19 139.333 103.339 138.968Q103.489 138.602 103.601 138.223Q103.713 137.844 103.786 137.456Q103.859 137.068 103.892 136.674Q103.926 136.281 103.919 135.886Q103.913 135.491 103.866 135.098Q103.82 134.706 103.734 134.321Q103.648 133.935 103.524 133.56C102.867 131.532 101.442 129.863 99.5056 128.956C97.7885 128.152 95.8605 128.096 94.0074 128.318C91.9069 128.947 90.1732 130.126 89.082 132.07Q88.8875 132.422 88.7289 132.792Q88.5703 133.162 88.4492 133.546Q88.3281 133.93 88.2456 134.324Q88.1632 134.718 88.1202 135.118Q88.0773 135.518 88.0742 135.921Q88.0712 136.323 88.1081 136.724Q88.145 137.125 88.2214 137.52Q88.2979 137.915 88.4132 138.301Q88.5249 138.681 88.6744 139.047Q88.824 139.414 89.0099 139.763Q89.1958 140.113 89.4161 140.441Q89.6364 140.77 89.8889 141.075Q90.1414 141.38 90.4235 141.657Q90.7056 141.935 91.0143 142.183Q91.3231 142.43 91.6553 142.646Q91.9876 142.861 92.3399 143.041C93.9499 143.846 95.7897 144.036 97.5543 143.763ZM153.555 87.7652C155.936 87.0841 157.88 85.8376 159.056 83.5852Q159.24 83.2263 159.386 82.8505Q159.532 82.4746 159.638 82.0858Q159.745 81.697 159.811 81.2993Q159.878 80.9016 159.903 80.4993Q159.928 80.0969 159.912 79.694Q159.896 79.2911 159.839 78.8921Q159.781 78.493 159.683 78.1019Q159.585 77.7107 159.448 77.3317Q159.319 76.9599 159.152 76.6034Q158.985 76.2469 158.782 75.9097Q158.579 75.5725 158.342 75.2581Q158.105 74.9437 157.837 74.6555Q157.569 74.3673 157.272 74.1085Q156.975 73.8497 156.654 73.623Q156.332 73.3963 155.988 73.2041Q155.645 73.0119 155.283 72.8564C153.622 72.1427 151.785 72.1035 150.014 72.315C147.908 72.9439 146.175 74.1225 145.083 76.0719Q144.889 76.4241 144.731 76.7937Q144.573 77.1633 144.452 77.5468Q144.331 77.9302 144.249 78.3238Q144.167 78.7173 144.124 79.117Q144.081 79.5168 144.078 79.9188Q144.075 80.3208 144.111 80.7211Q144.148 81.1215 144.224 81.5162Q144.3 81.911 144.415 82.2963Q144.526 82.6763 144.675 83.0431Q144.825 83.4098 145.01 83.7596Q145.196 84.1093 145.416 84.4384Q145.636 84.7676 145.888 85.0727Q146.141 85.3778 146.423 85.6558Q146.705 85.9338 147.013 86.1817Q147.322 86.4297 147.654 86.6451Q147.987 86.8605 148.339 87.0411C149.951 87.8471 151.789 88.038 153.555 87.7652Z"/>
	</g>
</svg>
