<?xml version="1.0" encoding="utf-8" ?>
<svg xmlns="http://www.w3.org/2000/svg" xmlns:xlink="http://www.w3.org/1999/xlink" width="512" height="512">
	<path d="M175.864 109.164C171.555 105.063 168.564 101.489 168.093 95.3521C167.872 92.4704 167.978 89.5308 168.002 86.6402C168.152 68.6705 172.602 53.3593 184.52 39.5103C196.725 25.3286 213.63 17.474 232.166 16.1029L232.857 16.0741C241.764 15.7404 250.753 15.9838 259.672 15.9896L307.269 15.9913L336.85 15.9793C342.069 15.9772 347.648 15.5993 352.819 16.1624C354.572 16.3533 356.435 17.1353 357.696 18.39C358.822 19.5113 359.45 21.1806 359.749 22.7121C360.36 25.839 360.054 29.331 360.049 32.5225Q360.083 40.2351 359.916 47.9459C363.372 47.94 368.4 47.3667 371.567 48.9171Q371.907 49.0799 372.228 49.2756Q372.55 49.4713 372.851 49.698Q373.151 49.9247 373.428 50.1802Q373.705 50.4356 373.955 50.7173Q374.205 50.999 374.425 51.3042Q374.646 51.6093 374.835 51.9349Q375.025 52.2604 375.181 52.6032Q375.337 52.9459 375.458 53.3025C377.663 59.8233 373.354 74.0849 370.468 80.084C363.41 94.7585 351.324 104.373 336.155 109.729C335.608 115.671 336.005 121.962 336.008 127.949C340.95 127.935 346.134 127.663 351.048 128.122C355.94 128.579 360.618 130.536 363.804 134.386Q364.488 135.226 365.066 136.142Q365.644 137.058 366.107 138.037Q366.571 139.016 366.913 140.044Q367.255 141.072 367.471 142.133C368.673 147.807 368.017 155.3 368.021 161.191C368.023 165.838 368.373 170.746 367.878 175.362C367.327 180.495 365.196 184.869 361.097 188.101C355.856 192.234 350.225 192.1 343.876 192.154C341.269 192.176 338.618 192.298 336.027 191.983C335.97 197.108 336.031 202.239 336.036 207.365C336.048 217.138 335.872 225.253 329.133 233.013C325.594 237.09 321.054 240.517 316.956 244.014C315.112 245.588 307.234 251.78 306.245 253.412C305.853 254.058 306.023 254.694 306.141 255.405C306.832 259.556 308.168 263.755 309.195 267.847C311.591 277.397 314.143 286.936 316.333 296.534C317.215 296.351 318.123 296.14 319.024 296.087Q320.286 296.024 321.515 296.316C327.27 297.68 332.143 304.971 337.226 308.094C340.648 310.196 346.895 312.08 350.878 313.631L405.776 334.976L423.341 341.796C427.212 343.3 431.179 344.711 434.907 346.544Q437.049 347.583 439.04 348.888Q441.031 350.193 442.839 351.742C450.797 358.61 455.193 367.942 455.904 378.375C456.375 385.291 456.019 392.418 456.018 399.357L456.016 438.996L456.03 471.756C456.031 477.234 456.422 483.04 455.888 488.478C455.711 490.272 455.154 491.946 453.924 493.3C451.972 495.448 449.773 495.915 447.002 496.023C438.814 496.34 430.542 496.108 422.347 496.107L377.79 496.107L242.7 496.099L123.684 496.109L85.5815 496.11C78.6183 496.115 71.5718 496.355 64.6205 496.039C62.2483 495.931 60.0518 495.412 58.3054 493.699C57.2644 492.677 56.6031 491.495 56.3134 490.067C55.6294 486.695 55.9782 482.818 55.982 479.372L56.0096 461.125C56.0036 446.089 55.885 431.043 56.0486 416.008Q64.0228 415.939 71.9965 416.055L72.011 479.946L193.42 479.975C189.834 475.155 186.779 469.634 183.544 464.547L163.921 433.696L150.936 413.321C148.885 410.104 146.247 406.713 144.724 403.234C144.14 401.901 143.929 400.497 144.179 399.057C144.692 396.102 146.352 393.312 147.684 390.666C150.357 385.359 153.791 379.655 155.852 374.11C155.887 374.015 155.92 373.918 155.955 373.823C150.072 372.833 144.18 371.454 138.321 370.297C134.257 369.494 129.76 368.977 125.845 367.667C124.334 367.162 123.088 366.56 121.999 365.367C120.523 363.75 119.857 361.609 120.025 359.437C120.126 358.128 120.517 356.833 121.263 355.744C123.895 351.898 135.617 342.674 139.603 339.336C136.935 340.058 134.276 341.321 131.685 342.309L113.274 349.462L94.6919 356.676C91.0226 358.1 87.1832 359.398 83.6599 361.15C81.7303 362.109 79.8644 363.577 78.3371 365.094C71.9986 371.39 71.9901 378.876 71.9959 387.231L72.0116 400.04C66.6698 400.154 61.316 400.064 55.9724 400.083C56.2725 391.154 55.0879 381.672 56.777 372.89Q56.9458 372.04 57.1534 371.198Q57.361 370.356 57.607 369.525Q57.853 368.693 58.1368 367.874Q58.4206 367.055 58.7417 366.249Q59.0628 365.444 59.4204 364.654Q59.7781 363.864 60.1716 363.092Q60.565 362.319 60.9935 361.565Q61.422 360.811 61.8845 360.078Q62.3471 359.345 62.8428 358.633Q63.3385 357.922 63.8663 357.234Q64.394 356.546 64.9528 355.883Q65.5115 355.22 66.1001 354.584Q66.6886 353.947 67.3057 353.338Q67.9228 352.729 68.5672 352.149Q69.2116 351.569 69.8818 351.019Q70.5521 350.469 71.2469 349.95C77.7637 345.059 90.9601 340.897 99.0146 337.78L150.484 317.753Q157.766 314.892 165.08 312.114C167.801 311.069 170.661 310.136 173.279 308.869C178.621 306.284 182.125 300.962 187.02 297.726C189.946 295.793 192.471 295.963 195.738 296.639C196.396 291.742 198.049 286.679 199.251 281.878L206.216 253.989C199.359 247.032 190.751 241.711 183.965 234.676C176.012 226.43 175.989 218.492 175.991 207.7Q175.979 199.937 176.056 192.175C167.051 192.141 156.3 193.756 149.314 186.801C143.316 180.829 143.979 173.541 143.995 165.709L143.994 151.436C143.978 144.418 144.168 138.246 149.472 133.001C154.346 128.181 160.193 127.959 166.663 127.975L175.959 127.976C176.007 121.757 176.333 115.359 175.864 109.164ZM235.864 32.119C220.446 32.9268 207.741 37.7377 197.216 49.4187C186.386 61.4374 183.033 76.9271 183.985 92.7339C184.028 93.4367 184.084 94.7192 184.632 95.2241C185.391 95.9238 186.645 95.8925 187.617 95.9578C197.05 96.0285 206.528 96.1503 215.959 95.9734C215.979 89.5362 215.772 83.0123 216.435 76.6028Q216.589 75.1683 216.803 73.7416Q217.018 72.3148 217.293 70.8986Q217.568 69.4823 217.903 68.079Q218.238 66.6758 218.633 65.288Q219.027 63.9003 219.48 62.5307Q219.934 61.161 220.445 59.8119Q220.956 58.4628 221.525 57.1367Q222.093 55.8105 222.717 54.5098Q223.341 53.2091 224.02 51.9362Q224.699 50.6632 225.432 49.4203Q226.164 48.1774 226.949 46.9669Q227.734 45.7563 228.57 44.5803Q229.406 43.4043 230.291 42.2649Q231.176 41.1255 232.109 40.0249Q233.041 38.9242 234.02 37.8643Q234.999 36.8044 236.022 35.7871C237.348 34.4694 238.713 33.1991 240.177 32.0347L235.864 32.119ZM284.705 32.12C269.646 32.6043 256.574 37.3769 246.078 48.4886Q245.348 49.2628 244.651 50.0667Q243.954 50.8705 243.29 51.7026Q242.627 52.5346 241.999 53.3934Q241.371 54.2522 240.779 55.1363Q240.187 56.0205 239.632 56.9284Q239.077 57.8363 238.56 58.7664Q238.043 59.6965 237.565 60.6472Q237.087 61.598 236.649 62.5677Q236.211 63.5374 235.814 64.5245Q235.416 65.5115 235.06 66.5142Q234.704 67.5169 234.39 68.5335Q234.075 69.55 233.803 70.5788Q233.531 71.6075 233.302 72.6466Q233.073 73.6857 232.888 74.7334Q232.702 75.7812 232.56 76.8357Q232.417 77.8902 232.319 78.9497C231.787 84.5605 232 90.311 232.011 95.9452Q240.198 96.0145 248.386 95.9802C249.253 92.3521 250.022 88.6936 251.273 85.1728Q251.672 84.0511 252.119 82.9473Q252.566 81.8436 253.059 80.7598Q253.552 79.676 254.09 78.6142Q254.629 77.5523 255.212 76.5143Q255.796 75.4763 256.423 74.464Q257.049 73.4517 257.719 72.4669Q258.388 71.4822 259.099 70.5267Q259.809 69.5713 260.56 68.6469Q261.31 67.7225 262.099 66.8308Q262.888 65.9392 263.714 65.0818Q264.541 64.2245 265.403 63.403Q266.265 62.5815 267.161 61.7974Q268.057 61.0132 268.985 60.2679Q269.914 59.5225 270.873 58.8173Q271.832 58.1121 272.821 57.4482Q273.809 56.7844 274.825 56.1631C283.741 50.7326 293.662 48.2197 304.042 48.0385C303.949 53.3503 304.067 58.6618 304.009 63.9728C290.347 65.424 281.392 68.3626 272.44 79.4413Q271.821 80.1928 271.259 80.9881C268.1 85.8286 266.3 90.4355 264.761 95.9825L299.97 95.9934C309.168 96.0013 321.537 96.8747 330.286 94.5616Q331.546 94.2273 332.781 93.8098Q334.016 93.3922 335.221 92.8934Q336.426 92.3945 337.594 91.8166Q338.763 91.2386 339.891 90.5841Q341.018 89.9296 342.1 89.2015Q343.181 88.4733 344.212 87.6748Q345.242 86.8762 346.218 86.0108Q347.193 85.1453 348.108 84.2169C352.153 80.1727 355.353 75.4832 357.334 70.0978C358.058 68.1312 358.551 66.0926 359.256 64.1259Q346.377 64.0359 333.497 64.1033C329.013 64.1096 324.435 63.899 319.963 64.0981C320.048 58.7434 319.828 53.3504 320.077 48.0047C327.959 48.0003 335.957 48.2696 343.824 47.9413C344.061 42.6857 343.921 37.4357 344.053 32.181C324.304 32.0029 304.447 31.7413 284.705 32.12ZM192.081 111.98C191.834 120.188 192.004 128.444 192.003 136.657L192.005 181.299L192.009 204.281C192.01 208.699 191.653 213.488 192.364 217.853C192.686 219.83 193.931 221.861 195.283 223.308C197.697 225.892 200.731 228.145 203.426 230.433L218.555 243.266L232.756 255.331C235.614 257.761 238.492 260.587 241.713 262.527C243.682 263.713 246.664 263.931 248.928 263.998C253.47 264.133 264.123 264.593 268.142 263.372C272.273 262.117 291.327 244.724 296.271 240.581C300.96 236.414 316.28 224.511 318.781 219.946C319.673 218.318 319.828 215.649 319.934 213.816C320.454 204.755 320.018 194.683 320.016 185.533L320.007 137.86C320.007 129.31 319.849 120.725 320.056 112.179L227.751 112.086L204.025 112.127C200.169 112.139 195.871 112.571 192.081 111.98ZM166.695 144.119C165.194 144.145 161.549 143.873 160.51 144.909C159.6 147.706 159.732 173.546 160.49 175.105C162.17 176.6 167.375 176.013 169.625 175.992L175.961 175.977C176.019 165.391 175.783 154.756 176.056 144.176C172.939 144.155 169.811 144.074 166.695 144.119ZM336.065 143.966C335.849 154.624 336.127 165.29 336.008 175.949C339.243 175.978 348.877 176.699 351.409 175.454C352.416 172.672 352.412 148.13 351.508 144.841C350.868 144.132 349.446 144.164 348.538 144.118C344.428 143.908 340.129 144.566 336.065 143.966ZM291.68 265.666C279.327 276.292 276.814 280.022 259.722 280.104C254.995 280.127 250.187 280.292 245.472 279.938C234.072 279.083 228.186 272.286 219.929 265.488L210.24 304.144L222.92 310.497L243.569 320.839C247.736 322.919 251.888 325.141 256.173 326.968L285.909 312.063C290.793 309.626 296.22 307.388 300.813 304.458L300.755 304.2L300.972 304.114L301.126 304.242C301.535 303.751 301.437 303.593 301.363 302.967C301.129 300.995 300.464 298.956 299.978 297.025L297.191 285.983C295.601 279.673 294.419 272.988 292.401 266.814C292.238 266.314 292.086 266 291.68 265.666ZM202.767 318.479C203.156 322.231 207.054 346.181 208.094 348.123C210.133 348.053 224.863 341.11 227.715 339.749C230.879 338.364 234.074 337.025 237.213 335.582L214.582 324.218C210.779 322.313 206.766 319.895 202.767 318.479ZM308.981 318.558C301.047 322.154 293.307 326.297 285.525 330.215C281.957 332.011 278.332 334.092 274.601 335.511Q279.385 337.546 284.1 339.735C290.742 342.692 297.369 345.868 304.123 348.553C304.722 345.003 309.509 319.372 308.981 318.558ZM325.213 320.817L307.065 425.081L301.083 459.493C300.005 465.695 298.709 471.951 297.895 478.191C297.828 478.706 297.874 478.993 298.126 479.464L298.03 479.68L297.817 479.59L297.99 479.922C298.663 480.007 298.944 480.001 299.505 479.582C301.438 478.141 304.858 471.687 306.328 469.378L324.142 441.41C326.97 436.968 329.645 431.992 332.873 427.852C337.428 430.294 342.156 433.309 346.32 436.359L327.509 465.949C324.76 470.275 321.6 476.101 318.497 479.944C340.366 480.286 362.283 479.996 384.156 479.991C402.74 479.986 421.384 480.323 439.961 479.976L440.01 438.125L440.02 399.852C440.019 392.488 440.777 381.296 439.042 374.335C438.184 370.889 436.048 367.52 433.552 365.021C431.812 363.278 429.746 361.891 427.537 360.811C420.629 357.435 412.819 354.984 405.63 352.151L384.848 344.037C380.817 342.461 376.779 340.715 372.673 339.359C376.84 343.286 388.19 351.985 390.796 355.916C391.509 356.991 391.894 358.3 391.951 359.585Q391.968 359.998 391.943 360.412Q391.918 360.825 391.85 361.233Q391.783 361.641 391.674 362.041Q391.565 362.44 391.416 362.826Q391.267 363.212 391.08 363.581Q390.892 363.95 390.667 364.297Q390.443 364.645 390.184 364.968Q389.925 365.29 389.634 365.585C388.702 366.529 387.669 367.13 386.426 367.579C381.841 369.232 376.355 369.839 371.551 370.795C366.419 371.817 361.157 373.179 355.979 373.83Q359.475 381.271 363.25 388.575C364.726 391.491 366.79 394.64 367.553 397.821Q367.703 398.424 367.763 399.042Q367.823 399.66 367.792 400.28Q367.761 400.901 367.64 401.51Q367.519 402.119 367.31 402.704C366.051 406.334 359.042 416.582 356.539 420.284Q349.876 415.978 343.145 411.778C345.4 407.521 348.394 403.658 350.776 399.468L341.274 380.559C339.595 377.218 337.006 373.238 336.202 369.597C335.892 368.197 336.071 366.564 336.552 365.223Q336.684 364.851 336.853 364.494Q337.023 364.137 337.228 363.799Q337.433 363.462 337.672 363.147Q337.911 362.833 338.181 362.544Q338.451 362.256 338.749 361.997Q339.048 361.738 339.371 361.511Q339.694 361.284 340.039 361.092Q340.384 360.899 340.747 360.743C343.636 359.485 347.23 359.125 350.327 358.515L366.221 355.393C360.284 349.285 353.35 343.877 346.948 338.252C341.567 333.524 334.843 326.973 329.162 322.828C327.941 321.937 326.604 321.383 325.213 320.817ZM185.815 321.196C184.743 321.642 183.723 322.086 182.788 322.791C180.239 324.713 177.867 326.966 175.467 329.073L163.522 339.536L152.24 349.388C150.045 351.31 147.649 353.218 145.659 355.351L161.274 358.459C164.393 359.072 168.022 359.459 170.953 360.706C172.45 361.344 173.808 362.378 174.714 363.74Q174.914 364.039 175.083 364.356Q175.253 364.674 175.389 365.007Q175.526 365.34 175.628 365.685Q175.73 366.029 175.798 366.383Q175.865 366.736 175.896 367.095Q175.928 367.453 175.923 367.813Q175.918 368.173 175.877 368.53Q175.837 368.887 175.76 369.239C174.865 373.334 172.189 377.493 170.313 381.243L161.186 399.535L181.551 431.534C185.032 437.004 188.369 442.65 192.043 447.985L204.6 467.761C206.75 471.15 208.796 474.881 211.266 478.039C211.929 478.887 212.606 479.676 213.613 480.1L214.131 479.84C214.487 477.059 212.442 468.405 211.871 465.137L207.57 440.368L186.916 321.519C186.448 321.142 186.424 321.184 185.815 321.196ZM255.642 345.024C248.861 347.685 242.221 350.884 235.564 353.849C227.326 357.518 218.996 361.056 210.847 364.916C211.905 374.598 214.096 384.391 215.767 393.997L225.729 451.248C227.381 460.741 229.396 470.297 230.683 479.835C239.275 480.308 248.019 479.996 256.625 479.988L281.212 480.005C281.627 476.916 282.306 473.855 282.846 470.785L286.091 452.183L295.957 395.468C297.719 385.337 299.697 375.197 301.196 365.028C298.406 363.465 295.341 362.27 292.419 360.969L276.933 354.087C272.333 352.043 259.569 345.736 255.642 345.024Z"/>
	<path d="M215.972 168.084C216.236 160.08 215.623 152.005 216.11 144.013Q224.054 143.939 231.997 144.054Q232.091 156.048 231.969 168.042C226.641 168.149 221.301 168.065 215.972 168.084Z"/>
	<path d="M279.972 168.085C280.247 160.083 279.607 152.001 280.11 144.013Q288.054 143.939 295.997 144.054Q296.091 156.048 295.969 168.042C290.64 168.15 285.302 168.063 279.972 168.085Z"/>
	<path d="M280.655 225.229C275.857 229.853 270.075 231.92 263.483 232.051Q258.386 232.106 253.289 232.093C244.783 232.101 237.637 231.437 231.227 225.203C226.455 220.56 224.12 214.618 224.072 208.013C245.396 207.91 266.75 207.81 288.073 208.051C287.395 215.028 285.605 220.125 280.655 225.229Z"/>
	<path d="M247.972 400.084C248.249 392.083 247.606 384.001 248.11 376.013Q256.054 375.939 263.997 376.054Q264.091 388.048 263.969 400.042C258.641 400.149 253.302 400.065 247.972 400.084Z"/>
	<path d="M247.972 448.085C248.245 440.084 247.606 432.001 248.11 424.013Q256.054 423.938 263.997 424.054Q264.091 436.048 263.969 448.042C258.64 448.149 253.302 448.063 247.972 448.085Z"/>
</svg>
