<?xml version="1.0" encoding="utf-8" ?>
<svg xmlns="http://www.w3.org/2000/svg" xmlns:xlink="http://www.w3.org/1999/xlink" width="512" height="512">
	<path d="M485.017 0L493.195 0C493.339 0.0750887 493.483 0.151758 493.628 0.225266C495.186 1.01419 496.993 1.29422 498.592 2.01486C504.753 4.79118 508.794 9.82951 510.945 16.1264C511.306 17.1833 511.586 18.2912 512 19.3261L512 26.4179C510.87 29.1712 510.255 32.0414 508.645 34.5834C505.229 39.9763 500.571 44.961 496.57 49.9385L471.595 80.8855Q423.846 139.63 374.973 197.443L351.022 225.622C348.004 229.172 342.673 234.625 340.439 238.442C344.498 242.096 348.281 246.127 352.144 249.989L372.471 270.317L435.121 332.989L473.093 370.955L483.743 381.585C486.713 384.551 489.79 387.451 492.314 390.82Q493.12 391.914 493.844 393.064Q494.567 394.213 495.204 395.413Q495.841 396.613 496.389 397.857Q496.936 399.1 497.391 400.381Q497.845 401.661 498.204 402.971Q498.564 404.281 498.826 405.614Q499.088 406.947 499.251 408.296Q499.415 409.645 499.479 411.002C500.008 421.207 496.415 430.788 489.586 438.333C484.709 443.722 479.314 448.757 474.171 453.901L445.586 482.488L428.259 499.809C424.814 503.253 419.913 509.041 415.856 511.369C415.488 511.58 415.123 511.794 414.751 512L411.035 512C409.849 511.298 408.578 510.613 407.578 509.654C406.181 508.315 405.463 506.805 405.444 504.858C405.424 502.853 406.065 501.372 407.25 499.779C410.275 495.713 417.081 489.675 420.892 485.882L443.206 463.554C447.198 459.573 451.361 455.689 455.225 451.589C455.719 451.066 456.225 450.628 456.198 449.892C455.565 448.785 448.675 441.612 447.561 440.708C445.491 439.028 443.049 442.254 441.714 443.594L411.204 474.124L402.016 483.335C400.217 485.142 398.429 487.186 396.411 488.749C395.084 489.776 393.747 490.668 392.018 490.755C389.954 490.859 387.772 489.939 386.28 488.534C384.907 487.241 384.108 485.273 384.107 483.395C384.105 481.783 384.65 480.055 385.594 478.747C387.171 476.561 389.329 474.652 391.229 472.749L399.845 464.129C411.675 452.305 423.808 440.686 435.361 428.601C431.623 425.275 428.306 421.467 424.59 418.1C413.571 429.548 402.108 440.663 390.819 451.849L381.101 461.65C379.305 463.466 377.526 465.464 375.538 467.065C374.048 468.265 372.337 469.207 370.392 469.32C368.423 469.433 366.6 468.682 365.172 467.346C363.597 465.873 362.833 464.236 362.845 462.074C362.853 460.401 363.307 458.781 364.287 457.416C366.129 454.848 368.611 452.658 370.851 450.436L380.165 441.162L413.974 407.44C410.728 403.704 406.945 400.284 403.425 396.8C398.542 400.986 394.068 405.95 389.518 410.509L365.163 434.85C361.608 438.404 358.127 442.479 354.287 445.69C353.14 446.65 351.814 447.555 350.329 447.873C348.462 448.273 346.292 447.751 344.72 446.701C343.101 445.62 341.973 444.11 341.611 442.183C341.276 440.402 341.465 438.4 342.437 436.839C344.699 433.206 351.851 426.869 355.225 423.496L382.676 396.083C385.377 393.393 390.255 389.252 392.245 386.169C392.026 384.641 383.565 376.946 382.006 375.515C378.548 378.045 372.28 385.005 368.977 388.32L342.402 414.868C339.053 418.223 335.6 422.499 331.772 425.25C330.606 426.089 329.323 426.668 327.871 426.727C325.802 426.81 323.734 425.912 322.269 424.469C320.866 423.087 320.036 421.235 320.043 419.257C320.051 417.205 320.991 415.497 322.205 413.906C323.664 411.994 325.623 410.325 327.328 408.624L336.873 399.089C348.37 387.602 359.979 376.204 371.347 364.59C367.641 361.262 364.237 357.522 360.618 354.087L326.743 387.932L316.678 398.006C314.921 399.763 313.2 401.725 311.267 403.283C310.114 404.213 308.825 405.031 307.336 405.262C305.314 405.577 302.848 404.772 301.287 403.481C299.75 402.21 298.974 400.436 298.851 398.463C298.731 396.543 299.204 394.983 300.282 393.409C303.04 389.383 308.798 384.448 312.37 380.885L337.22 356.042C341.355 351.922 346.021 347.9 349.78 343.462L349.915 343.3Q344.707 338.001 339.418 332.781C334.709 336.663 330.426 341.545 326.097 345.876L300.874 371.124C297.618 374.38 292.51 380.21 288.982 382.67C287.805 383.491 286.449 383.97 285.01 383.991Q284.642 383.995 284.274 383.963Q283.907 383.931 283.545 383.864Q283.183 383.797 282.829 383.695Q282.475 383.592 282.132 383.456Q281.79 383.32 281.462 383.151Q281.135 382.982 280.825 382.783Q280.516 382.583 280.227 382.354Q279.938 382.125 279.673 381.869Q279.41 381.615 279.172 381.337Q278.935 381.058 278.726 380.757Q278.518 380.457 278.34 380.137Q278.162 379.817 278.016 379.482Q277.87 379.146 277.758 378.798Q277.646 378.449 277.569 378.092Q277.492 377.734 277.45 377.37Q277.409 377.007 277.403 376.641Q277.394 376.057 277.479 375.478Q277.563 374.9 277.738 374.343Q277.913 373.785 278.174 373.262Q278.435 372.74 278.776 372.265C280.431 369.98 282.68 368.006 284.677 366.014L293.536 357.151L328.607 322.072C325.346 318.344 321.611 314.843 317.971 311.484C314.038 314.547 309.11 320.135 305.439 323.807L279.08 350.202C275.639 353.648 271.535 358.485 267.658 361.298C266.481 362.152 265.294 362.613 263.829 362.668C261.933 362.738 259.867 362.076 258.482 360.749C257.09 359.414 256.083 357.41 256.035 355.47C255.986 353.48 256.846 351.682 258.018 350.123C259.497 348.157 261.494 346.426 263.237 344.687L272.915 335.031L307.332 300.585C303.47 297.08 299.861 293.183 296.127 289.535C291.049 294.626 286.424 300.362 281.679 305.772L254.959 336.157L221.376 373.832C214.415 381.628 207.145 389.36 200.614 397.516C207.455 403.511 212.773 413.054 215.837 421.503Q216.397 423.059 216.88 424.64Q217.363 426.221 217.769 427.824Q218.175 429.427 218.502 431.048Q218.829 432.669 219.077 434.304Q219.325 435.939 219.492 437.584Q219.66 439.229 219.748 440.88Q219.835 442.531 219.842 444.185Q219.849 445.838 219.775 447.49Q219.701 449.142 219.547 450.788Q219.393 452.435 219.159 454.071Q218.925 455.708 218.611 457.332Q218.298 458.955 217.905 460.562Q217.513 462.168 217.043 463.753Q216.572 465.338 216.026 466.899Q215.479 468.459 214.856 469.991Q214.234 471.523 213.538 473.023Q212.803 474.587 211.99 476.111Q211.177 477.635 210.288 479.117Q209.399 480.598 208.436 482.033Q207.473 483.467 206.438 484.851Q205.404 486.235 204.301 487.565Q203.198 488.894 202.029 490.167Q200.86 491.439 199.628 492.651Q198.396 493.862 197.105 495.01Q195.813 496.157 194.465 497.238Q193.117 498.319 191.716 499.33Q190.315 500.341 188.865 501.28Q187.415 502.219 185.919 503.084Q184.423 503.948 182.885 504.736Q181.347 505.523 179.772 506.232Q178.196 506.941 176.587 507.569Q174.977 508.197 173.338 508.743C169.038 510.214 164.283 510.367 160.106 511.923C160.04 511.948 159.975 511.974 159.909 512L145.061 512C141.676 510.646 135.835 510.124 131.903 508.896Q130.33 508.392 128.783 507.811Q127.236 507.231 125.719 506.576Q124.202 505.921 122.719 505.194Q121.236 504.466 119.789 503.667Q118.343 502.868 116.938 501.999Q115.532 501.131 114.171 500.195Q112.809 499.259 111.495 498.258Q110.18 497.257 108.916 496.194Q107.652 495.13 106.441 494.006Q105.229 492.882 104.075 491.701Q102.92 490.519 101.824 489.283Q100.727 488.047 99.6927 486.759Q98.658 485.47 97.6872 484.134Q96.7164 482.797 95.8118 481.414Q94.9071 480.032 94.0708 478.607Q93.2344 477.182 92.4684 475.718Q91.6967 474.237 90.9993 472.719Q90.3018 471.201 89.6804 469.651Q89.0589 468.101 88.5148 466.521Q87.9708 464.942 87.5056 463.338Q87.0403 461.734 86.655 460.109Q86.2697 458.484 85.9652 456.841Q85.6608 455.199 85.438 453.544Q85.2152 451.888 85.0745 450.224Q84.9339 448.56 84.8758 446.891Q84.8176 445.221 84.8421 443.551Q84.8667 441.881 84.9738 440.214Q85.0809 438.547 85.2703 436.888Q85.4598 435.229 85.7311 433.581Q86.0024 431.932 86.3549 430.3Q86.7074 428.667 87.1403 427.054Q87.5732 425.441 88.0853 423.851Q86.6492 424.309 85.1941 424.704Q83.7391 425.098 82.2679 425.427Q80.7968 425.756 79.3124 426.019Q77.8281 426.282 76.3335 426.479Q74.8389 426.676 73.3371 426.806Q71.8352 426.936 70.329 426.999Q68.8229 427.062 67.3154 427.059Q65.8079 427.055 64.3021 426.984Q62.7963 426.913 61.2951 426.775Q59.7939 426.637 58.3004 426.433Q56.8068 426.228 55.3238 425.957Q53.8409 425.687 52.3714 425.35Q50.9019 425.014 49.4489 424.612Q47.9959 424.21 46.5622 423.745Q45.1285 423.279 43.7169 422.75Q42.3053 422.22 40.9187 421.629Q40.1123 421.282 39.3152 420.914Q38.518 420.546 37.7307 420.158Q36.9433 419.77 36.1663 419.361Q35.3892 418.952 34.623 418.524Q33.8568 418.095 33.1019 417.647Q32.3471 417.199 31.6041 416.731Q30.861 416.264 30.1304 415.777Q29.3997 415.29 28.6819 414.785Q27.9641 414.279 27.2596 413.755Q26.555 413.232 25.8643 412.69Q25.1736 412.148 24.4972 411.588Q23.8207 411.029 23.1589 410.452Q22.4972 409.875 21.8506 409.281Q21.204 408.687 20.5729 408.077Q19.9419 407.466 19.3269 406.84Q18.7119 406.213 18.1133 405.571Q17.5147 404.929 16.9329 404.272Q16.3511 403.614 15.7865 402.942Q15.2219 402.269 14.6749 401.583Q14.1279 400.896 13.5989 400.195Q13.0699 399.495 12.5591 398.781Q12.0484 398.067 11.5563 397.34Q11.0642 396.613 10.5911 395.873Q10.118 395.134 9.66418 394.382Q9.21036 393.63 8.77614 392.867Q8.34193 392.104 7.9276 391.33Q7.51327 390.556 7.11911 389.772Q6.72495 388.988 6.35122 388.193Q5.97749 387.399 5.62444 386.595Q5.27139 385.791 4.93925 384.978Q4.60712 384.166 4.29613 383.345Q3.98514 382.524 3.69549 381.695C2.79006 379.108 1.99524 376.37 1.46982 373.676C1.07825 371.668 0.977792 368.941 0.176032 367.087C0.119792 366.957 0.0586774 366.829 0 366.7L0 351.817C1.35183 349.395 1.28034 345.725 1.9832 343.014Q2.50495 340.987 3.14997 338.995Q3.79499 337.003 4.56085 335.055Q5.32672 333.107 6.21055 331.209Q7.09438 329.311 8.09285 327.471Q9.09133 325.631 10.2007 323.856Q11.3101 322.08 12.5261 320.376Q13.7422 318.672 15.0604 317.046Q16.3787 315.419 17.7941 313.877Q18.9177 312.646 20.1013 311.473Q21.285 310.3 22.5258 309.187Q23.7665 308.075 25.0613 307.025Q26.3561 305.976 27.7016 304.993Q29.0472 304.01 30.4402 303.095Q31.8332 302.18 33.2701 301.336Q34.7071 300.492 36.1843 299.72Q37.6616 298.949 39.1756 298.252Q40.6896 297.556 42.2365 296.936Q43.7833 296.315 45.3593 295.773Q46.9352 295.231 48.5362 294.768Q50.1372 294.306 51.7593 293.924Q53.3815 293.541 55.0206 293.241Q56.6598 292.94 58.312 292.721Q59.9642 292.503 61.6252 292.367Q63.2862 292.232 64.9519 292.179C81.832 291.591 100.216 297.584 112.602 309.364C115.742 312.351 121.687 317.032 121.708 321.554Q121.709 321.955 121.67 322.354Q121.63 322.753 121.551 323.146Q121.471 323.539 121.352 323.922Q121.233 324.305 121.076 324.674Q120.918 325.043 120.724 325.394Q120.531 325.745 120.302 326.075Q120.074 326.405 119.813 326.709Q119.552 327.014 119.262 327.291C117.883 328.63 116.044 329.478 114.103 329.432C110.101 329.337 107.477 325.682 104.969 323.031C95.5406 313.067 82.4153 307.599 68.7513 307.287Q67.461 307.251 66.1704 307.279Q64.8798 307.306 63.5922 307.397Q62.3046 307.488 61.023 307.643Q59.7415 307.798 58.4691 308.015Q57.1967 308.233 55.9366 308.513Q54.6765 308.793 53.4317 309.135Q52.1869 309.477 50.9606 309.879Q49.7342 310.282 48.5291 310.745Q47.3241 311.208 46.1433 311.729Q44.9626 312.251 43.809 312.83Q42.6554 313.409 41.5318 314.045Q40.4081 314.68 39.3172 315.37Q38.2263 316.06 37.1707 316.803Q36.1151 317.546 35.0975 318.341Q34.0798 319.135 33.1025 319.978Q32.1253 320.821 31.1908 321.712Q30.2501 322.613 29.3553 323.559Q28.4605 324.506 27.614 325.496Q26.7674 326.486 25.9711 327.516Q25.1749 328.547 24.4308 329.616Q23.6868 330.685 22.9969 331.79Q22.307 332.895 21.6729 334.032Q21.0388 335.17 20.4621 336.338Q19.8854 337.506 19.3675 338.701Q18.8495 339.896 18.3917 341.115Q17.9339 342.335 17.5373 343.575Q17.1407 344.816 16.8064 346.075Q16.472 347.334 16.2006 348.608Q15.9293 349.882 15.7217 351.167Q15.514 352.453 15.3706 353.748Q15.2272 355.042 15.1484 356.342Q15.0696 357.643 15.0555 358.945Q15.0253 360.206 15.0573 361.467Q15.0892 362.728 15.1832 363.986Q15.2772 365.244 15.4329 366.495Q15.5887 367.747 15.8059 368.989Q16.0231 370.232 16.3012 371.462Q16.5793 372.692 16.9176 373.908Q17.2559 375.123 17.6536 376.32Q18.0513 377.517 18.5074 378.693Q18.9636 379.869 19.477 381.021Q19.9905 382.173 20.5601 383.298Q21.1296 384.424 21.7539 385.52Q22.3781 386.616 23.0556 387.68Q23.733 388.744 24.462 389.773Q25.191 390.802 25.9698 391.795Q26.7486 392.787 27.5753 393.739Q28.4019 394.692 29.2745 395.603Q30.1955 396.557 31.1625 397.464Q32.1295 398.371 33.1402 399.229Q34.1508 400.087 35.2026 400.894Q36.2545 401.701 37.3449 402.455Q38.4353 403.209 39.5617 403.908Q40.6881 404.607 41.8476 405.25Q43.0072 405.893 44.1971 406.478Q45.387 407.062 46.6043 407.587Q47.8216 408.113 49.0635 408.577Q50.3053 409.041 51.5685 409.444Q52.8317 409.846 54.1133 410.185Q55.3949 410.525 56.6917 410.801Q57.9885 411.076 59.2973 411.287Q60.6062 411.499 61.9238 411.645Q63.2415 411.791 64.5648 411.872Q65.8881 411.953 67.2138 411.969C81.5755 412.17 94.2913 406.521 104.507 396.591C109.504 391.734 114.365 386.726 119.302 381.807C124.194 376.934 129.56 372.158 133.506 366.465Q133.973 365.781 134.416 365.081Q134.86 364.382 135.281 363.668Q135.701 362.955 136.098 362.228Q136.495 361.501 136.868 360.761Q137.241 360.022 137.589 359.27Q137.937 358.519 138.261 357.756Q138.584 356.994 138.882 356.221Q139.18 355.448 139.453 354.666Q139.726 353.884 139.972 353.094Q140.219 352.303 140.44 351.505Q140.66 350.706 140.855 349.901Q141.049 349.096 141.217 348.285Q141.385 347.474 141.526 346.658Q141.667 345.842 141.781 345.021Q141.895 344.201 141.982 343.377Q142.069 342.554 142.129 341.727Q142.189 340.901 142.222 340.074Q142.254 339.246 142.26 338.418Q142.266 337.59 142.244 336.762Q142.222 335.934 142.173 335.107Q142.125 334.28 142.049 333.455Q141.973 332.631 141.87 331.809Q141.766 330.987 141.636 330.169Q141.506 329.351 141.35 328.538Q141.193 327.725 141.009 326.917Q140.826 326.109 140.616 325.308Q140.406 324.507 140.17 323.713Q139.934 322.919 139.672 322.133Q139.41 321.348 139.122 320.571Q138.834 319.794 138.521 319.028Q138.208 318.261 137.87 317.505Q137.532 316.749 137.169 316.004C135.286 312.175 129.143 305.331 129.294 301.628C129.362 299.944 129.866 298.499 130.913 297.186C133.271 294.228 136.53 291.737 139.325 289.198L153.291 276.513L198.732 236.328C206.587 229.45 214.772 222.755 222.356 215.599C218.557 212.169 215.004 208.366 211.384 204.743C206.749 208.497 202.599 213.287 198.372 217.521L173.046 242.874C169.256 246.664 165.405 251.225 161.134 254.438C160.007 255.285 158.787 255.874 157.364 255.967C155.193 256.109 153.03 255.065 151.438 253.645C150.144 252.491 149.363 251.072 149.296 249.326C149.212 247.143 150.076 245.152 151.383 243.448C152.874 241.502 154.821 239.794 156.558 238.065L165.361 229.273C177.093 217.551 189.147 206.025 200.571 194.012C198.417 191.328 192.444 185.334 189.714 183.481C186.61 186.798 183.249 189.94 180.033 193.153L160.159 213.022L147.852 225.375C145.585 227.653 143.369 230.136 140.911 232.197C139.463 233.411 137.855 234.488 135.93 234.689C134.021 234.888 132.112 234.136 130.691 232.881Q130.392 232.622 130.122 232.333Q129.851 232.044 129.613 231.728Q129.374 231.412 129.17 231.073Q128.966 230.734 128.798 230.376Q128.63 230.017 128.501 229.643Q128.372 229.269 128.283 228.884Q128.193 228.498 128.145 228.105Q128.096 227.713 128.089 227.317C128.059 225.541 128.642 223.843 129.685 222.415C131.193 220.351 133.303 218.542 135.118 216.748L144.026 207.882L179.297 172.573C175.645 169.149 172.2 165.49 168.571 162.035C153.606 176.62 138.898 191.53 124.197 206.383C121.515 209.093 118.161 213.346 113.998 213.253Q113.604 213.241 113.213 213.188Q112.821 213.135 112.438 213.042Q112.055 212.95 111.683 212.817Q111.311 212.685 110.955 212.516Q110.599 212.346 110.262 212.14Q109.925 211.934 109.612 211.695Q109.298 211.455 109.011 211.185Q108.724 210.914 108.466 210.615Q108.232 210.339 108.026 210.041Q107.82 209.743 107.645 209.427Q107.47 209.11 107.327 208.778Q107.183 208.445 107.074 208.1Q106.964 207.755 106.889 207.401Q106.815 207.047 106.775 206.687Q106.735 206.327 106.732 205.965Q106.728 205.604 106.76 205.243C106.913 203.311 107.786 201.787 108.976 200.305C111.02 197.758 113.61 195.513 115.934 193.21L127.765 181.374L146.834 162.296C150.496 158.637 154.085 154.822 157.941 151.369Q152.729 145.971 147.365 140.724C142.955 144.203 138.252 149.589 134.204 153.643L108.629 179.244C105.032 182.841 101.418 187.084 97.3895 190.177C96.2302 191.067 95.1462 191.73 93.6688 191.922C91.7334 192.174 89.8508 191.603 88.3261 190.398C86.7488 189.152 85.3981 187.018 85.2667 184.975C85.1392 182.993 86.024 181.15 87.1786 179.597C88.5403 177.766 90.3214 176.244 91.9396 174.643L99.4822 167.102L123.475 143.113C127.76 138.837 132.34 134.658 136.35 130.135L136.543 129.915C133.604 126.66 129.215 121.936 125.721 119.45L92.7312 152.446L82.482 162.695C80.3392 164.836 78.2405 167.144 75.8635 169.024C74.7651 169.893 73.6629 170.453 72.2572 170.608C70.1609 170.838 68.0049 170.017 66.4388 168.639C64.9533 167.332 64.0748 165.56 64.0417 163.577C64.0142 161.929 64.4269 160.119 65.4027 158.766C67.0439 156.49 69.309 154.518 71.301 152.54L80.3482 143.516C91.9991 131.872 103.759 120.32 115.282 108.551C111.64 105.113 108.165 101.479 104.556 98.0021C88.8355 113.324 73.5206 129.075 57.9483 144.549C55.7389 146.744 53.3716 149.338 50.0058 149.232C47.8174 149.163 45.7909 148.094 44.3423 146.479C42.9937 144.976 42.6608 143.284 42.783 141.296C42.8803 139.713 43.2925 138.455 44.2488 137.19C46.1982 134.612 48.7697 132.332 51.0513 130.048L62.8621 118.238L82.1502 98.9593C86.0371 95.0737 89.8559 91.0601 93.9147 87.3544C90.4996 83.7072 86.8982 80.2232 83.36 76.6954C78.7805 80.3596 74.237 85.5823 70.0415 89.7833L44.2159 115.584C41.0565 118.74 37.1304 123.352 33.72 125.993C32.5182 126.923 31.1662 127.67 29.64 127.868C27.6502 128.128 25.3949 127.395 23.8747 126.098Q23.5975 125.858 23.3456 125.591Q23.0937 125.325 22.8696 125.035Q22.6454 124.744 22.4512 124.433Q22.257 124.122 22.0946 123.793Q21.9323 123.465 21.8035 123.121Q21.6747 122.778 21.5806 122.424Q21.4866 122.069 21.4282 121.707Q21.3699 121.345 21.3478 120.979C21.2353 119.17 21.7449 117.575 22.7851 116.107C25.4616 112.331 31.6153 106.907 35.1319 103.394L59.4539 79.1055C63.7275 74.8459 68.3785 70.6675 72.3384 66.123L72.5183 65.9135C69.5639 62.6029 65.2717 58.0116 61.7495 55.4403L27.5066 89.641C23.7624 93.3871 14.9287 103.099 10.855 105.624C9.25258 106.617 7.71312 106.973 5.83873 106.511C3.01156 105.815 1.40724 103.515 0 101.165L0 96.9998C0.222397 96.6522 0.454718 96.3075 0.670303 95.9556C1.22893 95.0437 1.78168 94.2492 2.491 93.4484C7.03815 88.3148 12.2478 83.5725 17.1051 78.7141L45.2218 50.5955L64.3208 31.505C68.6886 27.1405 73.0319 22.1258 78.151 18.6676C83.6112 14.979 90.5669 12.8211 97.1277 12.4809Q98.6447 12.4079 100.163 12.4575Q101.681 12.507 103.19 12.6788Q104.699 12.8505 106.189 13.1433Q107.679 13.4361 109.141 13.8481Q110.603 14.2601 112.027 14.7885Q113.451 15.317 114.828 15.9584Q116.204 16.5999 117.525 17.3503Q118.845 18.1007 120.101 18.955C125.888 22.9291 130.843 28.6883 135.809 33.6533L159.444 57.3018L234.416 132.271L259.29 157.156C264.048 161.911 268.706 166.874 273.708 171.367C290.735 156.333 308.328 141.813 325.737 127.219Q369.711 90.2128 414.279 53.9243Q436.248 35.9224 458.422 18.1723Q463.968 13.7549 469.461 9.27289C472.179 7.06645 474.899 4.65842 477.919 2.87786C480.034 1.63077 482.541 1.08934 484.786 0.103436L485.017 0ZM146.903 302.693C148.97 306.241 150.963 309.771 152.525 313.581Q153.017 314.805 153.46 316.049Q153.903 317.292 154.296 318.552Q154.689 319.811 155.031 321.086Q155.373 322.361 155.664 323.648Q155.954 324.935 156.193 326.233Q156.432 327.531 156.619 328.837Q156.806 330.143 156.941 331.456Q157.075 332.769 157.157 334.086Q157.239 335.403 157.268 336.723Q157.297 338.042 157.274 339.361Q157.25 340.681 157.173 341.998Q157.097 343.316 156.968 344.629Q156.839 345.942 156.657 347.25Q156.475 348.557 156.242 349.855Q156.008 351.154 155.722 352.443Q155.437 353.731 155.1 355.007Q154.274 358.086 153.151 361.07Q152.029 364.054 150.621 366.914Q149.213 369.774 147.533 372.484Q145.853 375.193 143.917 377.726C140.901 381.664 137.372 385.129 133.875 388.629L121.386 401.095C108.459 414.016 100.142 424.635 99.955 443.875C99.864 453.227 102.062 462.242 106.704 470.387Q107.342 471.509 108.034 472.598Q108.726 473.687 109.471 474.741Q110.216 475.795 111.012 476.811Q111.808 477.827 112.653 478.802Q113.498 479.778 114.389 480.711Q115.281 481.644 116.218 482.532Q117.154 483.42 118.133 484.26Q119.112 485.101 120.131 485.893Q121.15 486.685 122.207 487.425Q123.264 488.166 124.356 488.854Q125.448 489.542 126.572 490.175Q127.697 490.808 128.851 491.386Q130.005 491.963 131.186 492.483Q132.368 493.003 133.573 493.464Q134.778 493.925 136.005 494.327Q137.231 494.728 138.476 495.069Q139.72 495.408 140.979 495.686Q142.238 495.964 143.51 496.179Q144.781 496.395 146.062 496.548Q147.342 496.701 148.628 496.791Q149.915 496.881 151.204 496.908Q152.493 496.935 153.782 496.899Q155.071 496.862 156.357 496.763Q157.642 496.663 158.921 496.501Q160.201 496.338 161.47 496.113Q162.74 495.888 163.997 495.601Q165.254 495.314 166.496 494.966Q167.737 494.618 168.96 494.209Q170.183 493.8 171.385 493.332Q172.586 492.864 173.763 492.337Q174.941 491.811 176.09 491.227Q177.24 490.643 178.36 490.004Q179.491 489.359 180.589 488.659Q181.687 487.959 182.748 487.205Q183.81 486.451 184.832 485.645Q185.855 484.839 186.836 483.984Q187.818 483.128 188.755 482.224Q189.693 481.321 190.585 480.372Q191.476 479.423 192.319 478.431Q193.163 477.439 193.956 476.406Q194.748 475.373 195.489 474.303Q196.229 473.232 196.916 472.125Q197.602 471.019 198.233 469.879Q198.863 468.74 199.436 467.571Q200.009 466.402 200.523 465.206Q201.038 464.01 201.492 462.789Q201.946 461.569 202.339 460.328Q202.731 459.086 203.062 457.827Q203.393 456.577 203.661 455.312Q203.929 454.047 204.135 452.77Q204.34 451.493 204.482 450.208Q204.624 448.922 204.702 447.632Q204.781 446.341 204.795 445.048Q204.81 443.755 204.76 442.462Q204.711 441.17 204.597 439.882Q204.484 438.594 204.307 437.313Q204.13 436.032 203.89 434.761Q203.65 433.49 203.347 432.233Q203.045 430.976 202.68 429.735Q202.316 428.494 201.891 427.273Q201.465 426.052 200.98 424.853Q200.495 423.654 199.951 422.481Q199.407 421.308 198.806 420.163Q198.205 419.018 197.548 417.904C195.265 414.063 192.509 410.64 189.405 407.441C187.522 405.5 184.774 403.847 183.471 401.47C182.545 399.781 182.427 397.621 182.923 395.783C183.991 391.824 195.604 380.741 198.771 376.485C196.663 374.948 194.476 373.446 192.529 371.708Q191.88 371.128 191.256 370.521Q190.632 369.914 190.034 369.281Q189.437 368.649 188.867 367.991Q188.297 367.333 187.755 366.651Q187.214 365.97 186.702 365.266Q186.19 364.562 185.708 363.837Q185.227 363.112 184.777 362.367Q184.327 361.622 183.908 360.859Q183.49 360.095 183.105 359.315Q182.72 358.534 182.368 357.738Q182.017 356.942 181.699 356.131Q181.382 355.321 181.1 354.497Q180.817 353.674 180.57 352.84Q180.322 352.005 180.111 351.161Q179.9 350.316 179.724 349.464Q179.549 348.611 179.41 347.752C179.018 345.17 179.07 342.299 180.661 340.098C181.784 338.543 183.48 337.758 185.355 337.54C187.373 337.306 189.518 337.624 191.143 338.919C194.491 341.589 194.24 346.872 195.622 350.635C197.864 356.743 203.428 362.1 209.056 365.165C219.704 352.612 230.978 340.547 241.878 328.209Q276.171 289.461 309.978 250.29L330.582 226.327C333.896 222.447 337.365 218.634 340.524 214.632Q418.942 123.064 494.193 28.8744C494.123 28.9182 494.051 28.9607 493.982 29.0059C490.206 31.4514 483.483 39.2251 479.94 42.7532L443.907 78.6574L276.566 246.023L224.316 298.277L209.084 313.497C206.216 316.391 203.41 319.656 200.274 322.245C198.359 323.826 196.091 324.981 193.546 324.468C191.52 324.06 189.574 322.57 188.497 320.825C187.49 319.194 187.271 317.08 187.73 315.24C188.2 313.361 189.608 311.755 190.894 310.354C193.85 307.135 197.077 304.117 200.178 301.033L216.494 284.741L269.392 231.811L427.935 73.2755L467.507 33.7589L477.681 23.637C479.171 22.1568 481.273 20.5238 482.39 18.7673L482.224 18.4965Q460.238 35.7183 438.65 53.4362Q402.71 82.6413 367.185 112.349Q293.669 173.501 221.6 236.353L167.107 284.386C160.321 290.413 153.795 296.796 146.903 302.693ZM96.3938 27.8559C89.0782 28.4166 84.5987 32.4489 79.6458 37.4457L72.537 44.6499L179.444 151.55L214.12 186.223C219.988 192.092 225.748 198.135 231.759 203.855C232.351 204.418 233.014 205.136 233.809 205.368C234.753 205.052 235.415 204.359 236.144 203.709L252.883 189.198C255.86 186.628 258.841 183.691 262.075 181.463C259.283 178.091 255.943 175.046 252.843 171.953L237.407 156.544L186.144 105.283L136.725 55.8565L121.914 41.0264C119.031 38.1378 116.208 35.0269 113.055 32.4389Q112.472 31.9535 111.854 31.513Q111.237 31.0724 110.588 30.6791Q109.94 30.2858 109.263 29.9419Q108.587 29.598 107.887 29.3055Q107.187 29.013 106.468 28.7735Q105.748 28.5339 105.012 28.3487Q104.277 28.1635 103.529 28.0336Q102.782 27.9037 102.027 27.8299C100.164 27.6482 98.26 27.758 96.3938 27.8559ZM467.568 439.362C475.207 430.895 485.089 424.726 484.497 411.935C484.286 407.36 482.635 402.749 479.782 399.152C477.887 396.763 475.483 394.612 473.326 392.455L461.842 380.972L424.526 343.67L362.968 282.099L342.192 261.313C338.544 257.668 334.969 253.866 331.172 250.382C330.891 250.124 330.644 249.992 330.284 249.873C324.762 256.588 318.91 263.065 313.218 269.639C310.81 272.42 308.246 275.163 306.026 278.092C328.132 300.733 350.782 322.893 373.159 345.27L464.078 436.167C465.201 437.269 466.292 438.435 467.568 439.362Z"/>
	<path d="M150.405 407.112Q151.274 407.07 152.145 407.068Q153.015 407.065 153.885 407.103Q154.754 407.141 155.621 407.219Q156.488 407.297 157.351 407.415Q158.213 407.533 159.069 407.69Q159.925 407.848 160.773 408.045Q161.621 408.241 162.459 408.477Q163.297 408.713 164.123 408.987Q164.949 409.261 165.762 409.573Q166.575 409.884 167.372 410.233Q168.17 410.582 168.95 410.967Q169.731 411.353 170.493 411.774Q171.255 412.194 171.996 412.65Q172.738 413.105 173.458 413.595Q174.178 414.084 174.875 414.606Q175.571 415.128 176.243 415.681Q176.951 416.266 177.629 416.886Q178.307 417.505 178.954 418.157Q179.601 418.81 180.215 419.493Q180.829 420.176 181.409 420.888Q181.989 421.6 182.533 422.341Q183.077 423.081 183.584 423.846Q184.091 424.612 184.56 425.402Q185.029 426.192 185.458 427.004Q185.887 427.816 186.276 428.648Q186.665 429.48 187.013 430.33Q187.361 431.181 187.666 432.047Q187.971 432.913 188.234 433.793Q188.496 434.673 188.715 435.566Q188.934 436.458 189.109 437.359Q189.284 438.261 189.414 439.17Q189.545 440.079 189.63 440.994Q189.723 441.913 189.77 442.835Q189.818 443.758 189.819 444.681Q189.821 445.605 189.776 446.527Q189.732 447.45 189.642 448.369Q189.552 449.288 189.416 450.202Q189.281 451.115 189.1 452.021Q188.919 452.927 188.694 453.823Q188.469 454.718 188.199 455.602Q187.929 456.485 187.616 457.354Q187.303 458.223 186.947 459.075Q186.592 459.927 186.194 460.761Q185.796 461.594 185.358 462.407Q184.919 463.22 184.441 464.01Q183.963 464.8 183.446 465.566Q182.929 466.331 182.374 467.07Q181.82 467.809 181.23 468.519C174.635 476.392 165.035 481.078 154.878 482.011C144.818 482.358 135.85 479.746 128.089 473.166C120.748 466.941 115.772 457.892 115.019 448.247Q114.936 447.288 114.901 446.325Q114.865 445.363 114.878 444.4Q114.89 443.437 114.95 442.476Q115.011 441.515 115.118 440.558Q115.226 439.601 115.381 438.65Q115.536 437.7 115.738 436.758Q115.94 435.817 116.188 434.886Q116.436 433.956 116.731 433.039Q117.025 432.122 117.364 431.221Q117.703 430.319 118.087 429.436Q118.47 428.553 118.897 427.689Q119.324 426.826 119.793 425.985Q120.262 425.144 120.772 424.327Q121.282 423.511 121.832 422.72Q122.382 421.93 122.971 421.167Q123.559 420.405 124.185 419.673C131.052 411.732 140.061 407.887 150.405 407.112ZM154.87 466.768C161.397 465.645 166.892 462.756 170.807 457.269C174.237 452.462 175.438 446.483 174.439 440.689Q174.347 440.147 174.228 439.611Q174.11 439.074 173.965 438.544Q173.82 438.014 173.649 437.492Q173.478 436.969 173.282 436.456Q173.086 435.943 172.865 435.44Q172.643 434.937 172.397 434.446Q172.152 433.954 171.882 433.475Q171.612 432.997 171.319 432.532Q171.026 432.067 170.711 431.617Q170.395 431.167 170.058 430.733Q169.721 430.299 169.363 429.883Q169.004 429.466 168.626 429.067Q168.248 428.669 167.85 428.289Q167.453 427.91 167.037 427.55Q166.622 427.191 166.189 426.852Q165.756 426.514 165.307 426.197C161.067 423.209 155.347 421.619 150.168 422.337C143.982 423.033 138.818 425.456 134.883 430.415Q134.53 430.867 134.199 431.337Q133.869 431.806 133.562 432.291Q133.255 432.776 132.972 433.275Q132.689 433.775 132.432 434.288Q132.174 434.8 131.941 435.325Q131.709 435.85 131.503 436.386Q131.297 436.922 131.117 437.467Q130.938 438.012 130.786 438.565Q130.633 439.119 130.508 439.679Q130.383 440.239 130.286 440.805Q130.189 441.37 130.119 441.94Q130.05 442.51 130.009 443.082Q129.967 443.655 129.955 444.229Q129.942 444.802 129.957 445.376Q129.972 445.95 130.016 446.522Q130.059 447.095 130.131 447.664Q130.202 448.206 130.3 448.743Q130.397 449.281 130.521 449.813Q130.645 450.346 130.795 450.871Q130.945 451.396 131.121 451.914Q131.297 452.431 131.498 452.939Q131.699 453.447 131.925 453.945Q132.151 454.442 132.402 454.928Q132.652 455.414 132.926 455.887Q133.2 456.36 133.496 456.818Q133.793 457.277 134.113 457.721Q134.432 458.164 134.772 458.591Q135.113 459.019 135.474 459.429Q135.836 459.839 136.217 460.23Q136.598 460.622 136.998 460.994Q137.398 461.367 137.815 461.719Q138.233 462.071 138.668 462.402C143.409 466.06 148.974 467.297 154.87 466.768Z"/>
	<path d="M66.1752 322.102Q67.0382 322.064 67.902 322.067Q68.7658 322.07 69.6285 322.114Q70.4913 322.157 71.351 322.241Q72.2107 322.325 73.0655 322.45Q73.9203 322.574 74.7683 322.739Q75.6163 322.903 76.4556 323.107Q77.295 323.312 78.1237 323.555Q78.9525 323.799 79.7689 324.081Q80.5853 324.363 81.3875 324.684Q82.1897 325.004 82.976 325.362Q83.7622 325.72 84.5308 326.114Q85.2993 326.508 86.0484 326.939Q86.7975 327.369 87.5256 327.834Q88.2536 328.298 88.959 328.797Q89.6644 329.296 90.3455 329.827Q91.0266 330.358 91.682 330.921Q92.4005 331.529 93.0876 332.173Q93.7747 332.816 94.4286 333.493Q95.0826 334.171 95.7018 334.88Q96.321 335.589 96.9039 336.328Q97.4867 337.067 98.0318 337.835Q98.5769 338.602 99.0828 339.396Q99.5888 340.19 100.054 341.008Q100.52 341.826 100.944 342.667Q101.368 343.507 101.749 344.368Q102.13 345.229 102.468 346.108Q102.805 346.986 103.098 347.881Q103.391 348.776 103.639 349.684Q103.887 350.592 104.089 351.511Q104.292 352.431 104.447 353.359Q104.603 354.288 104.712 355.223Q104.821 356.158 104.883 357.097Q104.943 358.019 104.958 358.943Q104.972 359.868 104.942 360.791Q104.911 361.715 104.835 362.636Q104.759 363.557 104.637 364.474Q104.516 365.39 104.35 366.299Q104.184 367.208 103.973 368.108Q103.763 369.008 103.508 369.897Q103.253 370.785 102.955 371.66Q102.658 372.535 102.317 373.394Q101.976 374.254 101.594 375.095Q101.212 375.937 100.788 376.758Q100.365 377.58 99.9018 378.38Q99.4386 379.18 98.9367 379.956Q98.4348 380.732 97.8954 381.482Q97.3559 382.233 96.7803 382.956Q96.2046 383.679 95.5941 384.373C88.8941 392.007 79.5671 396.391 69.4839 397.027C59.6121 397.23 50.763 394.53 43.1495 388.107Q42.4556 387.519 41.7913 386.897Q41.1271 386.275 40.4942 385.622Q39.8613 384.968 39.2612 384.284Q38.6611 383.6 38.0953 382.888Q37.5295 382.175 36.9993 381.436Q36.4691 380.697 35.9759 379.932Q35.4826 379.168 35.0275 378.38Q34.5724 377.592 34.1564 376.783Q33.7405 375.974 33.3647 375.145Q32.989 374.316 32.6544 373.47Q32.3198 372.624 32.0271 371.763Q31.7343 370.901 31.4843 370.027Q31.2342 369.152 31.0273 368.266Q30.8204 367.38 30.6573 366.485Q30.4942 365.59 30.3751 364.688Q30.2561 363.786 30.1815 362.879Q30.0943 361.945 30.054 361.008Q30.0137 360.071 30.0205 359.133Q30.0273 358.195 30.0811 357.259Q30.1349 356.322 30.2356 355.389Q30.3363 354.457 30.4836 353.531Q30.631 352.604 30.8246 351.686Q31.0182 350.769 31.2576 349.862Q31.4971 348.955 31.7817 348.061Q32.0662 347.167 32.3953 346.289Q32.7244 345.411 33.0971 344.55Q33.4698 343.689 33.8852 342.848Q34.3006 342.007 34.7577 341.188Q35.2147 340.369 35.7123 339.574Q36.2098 338.779 36.7467 338.009Q37.2835 337.24 37.8582 336.499Q38.4329 335.758 39.0441 335.046C46.0078 326.944 55.6855 322.919 66.1752 322.102ZM69.1105 381.956C75.6904 381.085 81.2905 378.525 85.3787 373.116Q85.7146 372.677 86.028 372.222Q86.3414 371.766 86.6314 371.296Q86.9215 370.825 87.1874 370.34Q87.4534 369.856 87.6946 369.359Q87.9359 368.861 88.1517 368.352Q88.3676 367.843 88.5575 367.324Q88.7475 366.805 88.9111 366.277Q89.0747 365.749 89.2114 365.214Q89.3482 364.678 89.4578 364.136Q89.5674 363.594 89.6496 363.048Q89.7318 362.501 89.7863 361.951Q89.8409 361.401 89.8676 360.849Q89.8944 360.297 89.8933 359.744Q89.8922 359.191 89.8633 358.639Q89.8344 358.087 89.7777 357.537Q89.721 356.987 89.6367 356.441C88.7624 350.557 85.6888 345.069 80.8827 341.505C76.9661 338.602 71.3313 336.743 66.4214 337.353C60.0722 337.869 54.7965 339.855 50.5529 344.802Q50.1853 345.238 49.8395 345.691Q49.4937 346.145 49.1704 346.615Q48.8472 347.084 48.5473 347.569Q48.2474 348.054 47.9715 348.554Q47.6957 349.053 47.4446 349.565Q47.1935 350.077 46.9677 350.6Q46.742 351.124 46.542 351.658Q46.3421 352.192 46.1686 352.735Q45.995 353.279 45.8482 353.83Q45.7014 354.381 45.5817 354.938Q45.4621 355.496 45.3698 356.058Q45.2775 356.621 45.2128 357.188Q45.1482 357.754 45.1113 358.323Q45.0744 358.892 45.0653 359.463Q45.0563 360.033 45.0752 360.603Q45.094 361.173 45.1407 361.741Q45.1931 362.285 45.2718 362.825Q45.3505 363.366 45.4554 363.902Q45.5603 364.438 45.6911 364.968Q45.8219 365.499 45.9784 366.022Q46.1348 366.545 46.3165 367.061Q46.4982 367.576 46.7047 368.082Q46.9112 368.587 47.142 369.082Q47.3729 369.577 47.6275 370.061Q47.8822 370.544 48.16 371.014Q48.4378 371.485 48.7381 371.941Q49.0385 372.397 49.3607 372.838Q49.6828 373.279 50.0261 373.704Q50.3693 374.129 50.7327 374.537Q51.0962 374.945 51.4791 375.335Q51.8619 375.724 52.2633 376.095Q52.6646 376.465 53.0835 376.816C57.6221 380.606 63.2469 382.232 69.1105 381.956Z"/>
</svg>
