<?xml version="1.0" encoding="utf-8" ?>
<svg xmlns="http://www.w3.org/2000/svg" xmlns:xlink="http://www.w3.org/1999/xlink" width="512" height="512">
	<path d="M326.437 64.0758C327.423 64.0269 328.374 64.0071 329.347 64.2094C331.665 64.6915 333.785 66.0704 335.013 68.1125C335.816 69.448 336.315 71.519 335.962 73.0562C335.141 76.6392 327.336 90.3812 325.136 94.7901C301.482 142.196 280.125 194.582 267.42 246.124C261.193 271.381 256.532 297.349 256.075 323.414C255.928 331.786 255.976 340.51 258.362 348.601C260.213 354.874 263.862 359.491 267.156 365.008C272.46 373.893 273.141 385.617 270.647 395.5C268.873 402.53 265.027 408.791 258.668 412.512C251.326 416.809 242.822 416.695 234.814 414.567C232.845 414.064 230.725 413.024 228.955 412.025C219.431 406.646 213.921 396.913 211.101 386.635C207.05 371.866 207.571 355.795 208.948 340.688C215.938 263.993 259.796 172.724 297.954 106.233Q306.397 91.4621 315.35 76.994C317.578 73.3993 319.889 68.7161 322.903 65.7765C323.917 64.7876 325.108 64.4354 326.437 64.0758ZM240.56 399.451C244.105 400.014 248.072 400.482 251.22 398.322C253.86 396.512 254.974 393.263 255.458 390.235C258.01 374.264 250.84 372.073 245.176 359.368C241.852 351.91 240.583 343.248 240.213 335.127C239.088 310.424 242.588 285.176 247.496 260.998Q249.285 252.353 251.425 243.788C252.056 241.206 253.371 237.824 253.41 235.194C250.107 241.601 247.514 250.136 245.087 257.033C233.792 289.132 224.372 323.663 224.035 357.856C223.948 366.724 224.379 376.055 227.133 384.541C228.949 390.137 231.968 395.628 237.434 398.34C238.433 398.835 239.493 399.143 240.56 399.451Z"/>
	<path d="M165.178 312.101Q166.588 312.026 168 312.009C175.41 311.987 183.022 315.361 188.209 320.635C198.538 331.137 192.033 347.579 192.027 360.874C192.019 380.846 195.937 403.631 210.658 418.244Q211.505 419.069 212.392 419.852Q213.278 420.634 214.202 421.372Q215.126 422.111 216.085 422.803Q217.044 423.495 218.036 424.139Q219.027 424.783 220.049 425.378Q221.071 425.973 222.121 426.517Q223.171 427.062 224.247 427.554Q225.322 428.046 226.42 428.484Q227.518 428.923 228.637 429.308Q229.755 429.692 230.891 430.021Q232.027 430.35 233.177 430.624Q234.328 430.897 235.49 431.113Q236.653 431.33 237.825 431.489Q238.997 431.648 240.175 431.75Q241.353 431.852 242.535 431.895Q243.716 431.939 244.899 431.925C256.31 431.856 267.334 427.782 275.394 419.579C288.792 405.944 291.386 380.406 284.074 363.252C280.175 354.106 272.613 347.09 272.571 336.57Q272.574 335.95 272.608 335.331Q272.642 334.712 272.706 334.095Q272.77 333.478 272.865 332.865Q272.959 332.252 273.084 331.645Q273.208 331.037 273.363 330.437Q273.517 329.836 273.701 329.244Q273.885 328.652 274.098 328.07Q274.311 327.487 274.552 326.916Q274.793 326.345 275.063 325.786Q275.332 325.227 275.628 324.683Q275.924 324.138 276.247 323.609Q276.57 323.079 276.919 322.566Q277.267 322.053 277.641 321.558Q278.014 321.063 278.412 320.587Q278.809 320.111 279.229 319.655Q279.65 319.2 280.092 318.765C284.313 314.576 289.586 312.303 295.515 312.078C304.187 311.75 313.216 314.053 321.706 315.603C330.597 317.226 339.64 318.627 348.662 319.271C364.764 320.421 380.89 319.996 397.013 319.751Q419.313 319.407 441.615 319.544L460.717 319.823C464.782 319.861 469.486 319.449 473.452 320.252C475.183 320.602 476.777 321.312 477.998 322.618C479.447 324.169 480.014 326.487 479.869 328.566C479.717 330.758 478.729 332.874 477.038 334.299C475.653 335.467 474.039 335.817 472.274 335.973C466.666 336.466 460.669 335.946 455.025 335.867Q441.145 335.729 427.265 335.797C398.671 335.831 369.974 337.096 341.456 334.7C333.389 333.916 325.349 332.578 317.377 331.137C310.795 329.948 302.456 327.747 295.778 328.204C293.573 328.354 291.629 329.907 290.291 331.575C288.858 333.364 288.193 335.615 288.689 337.881C289.581 341.951 292.972 345.892 295.096 349.435C299.853 357.374 302.539 366.368 303.535 375.537C305.468 393.343 301.736 412.674 290.272 426.802Q289.363 427.904 288.4 428.961Q287.438 430.017 286.425 431.026Q285.413 432.034 284.352 432.991Q283.291 433.948 282.184 434.852Q281.077 435.757 279.928 436.606Q278.778 437.454 277.588 438.246Q276.399 439.038 275.172 439.77Q273.945 440.503 272.683 441.174Q271.422 441.845 270.129 442.454Q268.836 443.063 267.515 443.608Q266.194 444.153 264.847 444.632Q263.501 445.111 262.133 445.524Q260.765 445.937 259.378 446.283Q257.992 446.628 256.59 446.905Q255.188 447.182 253.774 447.39Q252.36 447.598 250.938 447.737C234.35 449.364 216.533 443.6 203.701 433.058C181.776 415.047 175.031 384.269 176.091 357.094C176.221 353.763 176.544 350.487 176.969 347.183C177.469 343.304 178.504 338.809 178.025 334.931C177.792 333.046 176.771 331.626 175.27 330.516C173.467 329.183 171.241 328.494 169.02 328.313C164.082 327.911 158.522 329.312 153.648 330.165Q145.573 331.627 137.467 332.903C128.819 334.218 119.996 335.273 111.255 335.736C96.0111 336.542 80.6841 335.89 65.428 335.834Q57.6874 335.797 49.9479 335.935C46.6579 335.985 43.2637 336.205 39.9826 335.94C38.1783 335.793 36.5156 335.635 35.0377 334.48C33.4085 333.207 32.248 331.204 32.0874 329.132C31.9051 326.78 32.5737 324.18 34.157 322.389C34.9846 321.453 35.9813 320.817 37.1917 320.499C40.904 319.524 45.3718 319.828 49.2055 319.754Q63.3097 319.496 77.4128 319.807C94.8428 320.086 112.028 320.036 129.35 317.746C141.31 316.165 153.18 313.103 165.178 312.101Z"/>
	<path d="M143.672 184.094C145.425 184.174 147.153 184.516 148.652 185.472C152.816 188.128 152.01 194.064 152.331 198.325Q152.631 202.409 153.584 206.392C157.482 222.373 169.225 230.071 185.076 231.6C188.641 231.943 193.441 231.375 196.521 233.374C198.237 234.487 199.282 236.178 199.684 238.168C200.151 240.482 199.76 242.819 198.41 244.775C197.604 245.943 196.47 246.914 195.138 247.426C192.694 248.366 189.64 248.1 187.045 248.318C184.218 248.555 181.361 248.886 178.584 249.468C162.527 252.831 154.067 264.291 152.468 280.251C152.096 283.969 152.681 289.578 150.498 292.729C149.042 294.832 146.864 295.594 144.459 296.005C142.393 295.967 140.391 295.444 138.725 294.173C137.714 293.402 137.017 292.394 136.598 291.198C135.504 288.079 135.685 280.879 135.092 277.165C132.422 260.451 121.435 250.477 104.681 248.656C100.749 248.229 94.172 248.86 91.0312 246.454C89.5205 245.297 88.3715 243.445 88.1328 241.544C87.8404 239.215 88.4042 236.596 89.8749 234.735C92.8387 230.985 101.241 231.878 105.749 231.262C123.308 228.859 133.334 217.919 135.429 200.523C135.913 196.507 135.15 190.035 137.772 186.76C139.272 184.885 141.423 184.393 143.672 184.094ZM128.899 240.024C132.34 242.225 136.196 244.927 138.784 248.116C139.817 249.389 143.069 254.232 144.265 254.655C148.901 247.459 152.258 245.085 158.799 240.044C155.811 237.609 152.561 235.532 149.943 232.666C147.839 230.362 146.056 227.14 143.739 225.142C140.052 231.22 134.86 236.19 128.899 240.024Z"/>
	<path d="M343.696 200.089C345.231 200.172 346.761 200.402 348.126 201.149C352.658 203.63 351.932 209.391 352.351 213.763Q352.667 217.391 353.655 220.896C356.951 232.422 365.842 238.359 377.478 239.521C380.939 239.866 385.291 239.572 388.362 241.359C390.052 242.342 391.22 243.895 391.655 245.804C392.159 248.013 391.934 250.753 390.601 252.644C387.436 257.135 379.25 256.15 374.271 257.021C361.19 259.31 353.949 268.144 352.472 281.127C352.041 284.918 352.611 289.776 350.237 292.98C348.755 294.979 346.802 295.612 344.467 296.01C342.843 295.979 341.271 295.714 339.835 294.915C335.292 292.386 336.031 286.65 335.601 282.236C335.347 279.629 334.906 277.055 334.147 274.545C330.901 263.807 322.264 257.74 311.278 256.62C307.613 256.247 302.894 256.571 299.625 254.726C297.925 253.766 296.684 252.273 296.259 250.347C295.765 248.105 296.068 245.262 297.394 243.343C300.444 238.927 308.076 239.97 312.809 239.213C325.932 237.114 333.755 228.454 335.425 215.399C335.922 211.519 335.323 206.136 337.784 202.902C339.349 200.847 341.284 200.407 343.696 200.089ZM333.953 248.056C335.416 249.084 336.804 250.137 338.107 251.365C339.488 252.666 342.856 257.068 344.34 257.645C347.121 253.723 350.106 251.06 353.792 248.058C351.915 246.365 349.945 244.778 348.172 242.972C347.048 241.827 345.098 238.846 343.621 238.363C340.966 242.204 337.635 245.221 333.953 248.056Z"/>
	<path d="M215.672 72.0942C217.21 72.1634 218.761 72.4011 220.127 73.149C224.561 75.5765 223.926 81.0647 224.312 85.3459C224.531 87.7822 224.909 90.1825 225.557 92.5438C228.77 104.253 237.671 110.347 249.474 111.52C252.959 111.867 257.395 111.56 260.465 113.415C262.129 114.422 263.232 115.966 263.651 117.863C264.137 120.061 263.935 122.781 262.591 124.657C259.387 129.132 251.265 128.148 246.271 129.022C233.19 131.31 225.948 140.144 224.473 153.127C224.04 156.928 224.611 161.764 222.236 164.98C220.762 166.976 218.796 167.601 216.468 168.006C214.729 167.975 213.013 167.661 211.519 166.721C207.492 164.184 208.052 159.294 207.688 155.179C207.472 152.729 207.145 150.314 206.533 147.928C203.605 136.517 195.087 129.954 183.52 128.647C179.67 128.211 174.634 128.647 171.269 126.513C169.737 125.542 168.652 124.122 168.261 122.337C167.77 120.097 168.075 117.267 169.398 115.349C172.443 110.935 180.066 111.971 184.809 111.213C197.932 109.114 205.755 100.454 207.425 87.3989C207.922 83.5205 207.323 78.1352 209.785 74.903C211.343 72.8569 213.271 72.4136 215.672 72.0942ZM205.952 120.057C207.416 121.084 208.805 122.137 210.108 123.365C211.489 124.667 214.856 129.068 216.34 129.646C219.12 125.723 222.106 123.06 225.792 120.058C223.915 118.365 221.945 116.778 220.172 114.972C219.05 113.829 217.095 110.844 215.621 110.363C212.965 114.204 209.634 117.222 205.952 120.057Z"/>
</svg>
