<?xml version="1.0" encoding="utf-8" ?>
<svg xmlns="http://www.w3.org/2000/svg" xmlns:xlink="http://www.w3.org/1999/xlink" width="449" height="449">
	<g>
		<path fill="#CF9D54" transform="scale(1.06862 1.06862)" d="M127.115 108.973C130.731 109.31 134.459 109.2 138.092 109.204L161.108 109.024C172.147 109.046 183.752 110.571 191.895 118.865C199.059 126.16 201.742 136.833 201.612 146.816C201.448 159.402 196.708 167.25 187.991 175.758C189.225 176.659 190.441 177.58 191.588 178.592Q192.222 179.162 192.828 179.762Q193.433 180.362 194.008 180.992Q194.583 181.621 195.126 182.279Q195.669 182.936 196.178 183.62Q196.688 184.303 197.163 185.011Q197.638 185.719 198.077 186.45Q198.516 187.181 198.919 187.932Q199.321 188.684 199.686 189.455Q200.051 190.225 200.377 191.013Q200.702 191.801 200.989 192.604Q201.275 193.407 201.521 194.223Q201.768 195.04 201.973 195.867Q202.178 196.695 202.342 197.531Q202.506 198.368 202.628 199.212Q202.751 200.056 202.831 200.904Q202.911 201.753 202.949 202.605C203.4 211.246 200.834 220.796 194.952 227.264C179.026 244.775 148.47 238.905 127.302 240.045C127.018 233.008 127.239 225.869 127.251 218.822L127.327 180.102C127.331 166.07 127.52 151.992 127.008 137.967Q142.328 137.886 157.647 138.035C157.169 148.944 157.739 159.948 157.649 170.874C157.6 176.832 157.642 182.802 157.47 188.757C157.32 193.966 156.942 199.205 157.056 204.415C157.158 209.078 157.656 213.534 158.049 218.16C164.164 218.481 169.805 218.691 174.673 214.31C178.016 211.301 179.164 207.27 179.37 202.88Q179.405 202.154 179.401 201.427Q179.396 200.7 179.352 199.974Q179.308 199.248 179.225 198.526Q179.142 197.803 179.02 197.086Q178.898 196.37 178.737 195.661Q178.576 194.952 178.376 194.252Q178.177 193.553 177.941 192.865Q177.704 192.178 177.43 191.504Q177.156 190.831 176.846 190.173Q176.536 189.515 176.191 188.875Q175.846 188.235 175.467 187.615Q175.088 186.994 174.675 186.396Q174.263 185.797 173.819 185.221Q173.374 184.646 172.9 184.095Q172.425 183.544 171.921 183.02Q171.417 182.496 170.885 182C168.321 179.651 165.438 177.701 163.076 175.134C165.543 172.132 169.157 170.118 171.708 167.098C176.826 161.038 179.663 152.82 178.982 144.881C178.655 141.07 177.196 137.1 174.169 134.615C171.451 132.385 167.8 131.442 164.392 130.918C158.299 129.98 151.737 130.468 145.582 130.552C139.502 130.634 133.292 130.503 127.236 131.058C127.273 123.719 126.858 116.294 127.115 108.973Z"/>
		<path fill="#CF9D54" transform="scale(1.06862 1.06862)" d="M268.688 108.352C271.298 107.86 274.449 108.184 277.125 108.213C284.999 108.299 293.211 108.954 301.028 108.027C297.452 112.777 293.648 115.953 289.764 120.24C287.34 122.915 285.088 125.746 282.649 128.403C273.681 138.17 264.354 147.606 255.164 157.163C246.227 166.458 238.019 176.64 228.638 185.483C238.045 196.696 248.307 207.007 258.517 217.481L288.048 247.875Q294.527 254.477 301.089 260.996C303.689 263.624 306.325 266.88 309.396 268.94C298.609 269.444 287.646 269.39 276.845 269.275C275.146 269.256 273.195 269.144 271.628 268.423C267.135 266.353 255.831 253.817 251.718 249.633C245.794 243.514 240.132 237.136 234.144 231.08C227.763 224.626 220.608 218.498 215.186 211.199C215.574 217.319 215.02 223.466 214.967 229.591L214.984 262.01C214.973 264.566 215.007 267.767 213.96 270.148C212.17 274.218 203.72 280.871 200.273 284.278C199.853 274.133 200.506 263.793 200.615 253.63C200.7 245.748 200.081 237.653 200.955 229.813C201.548 224.489 203.527 219.666 204.9 214.541C206.302 209.311 206.448 204.151 206.175 198.782C206.005 195.432 205.707 191.754 204.374 188.64C202.892 185.177 198.717 180.673 198.356 177.048C198.263 176.116 199.616 174.658 200.184 173.957C204.34 168.835 209.575 164.344 214.164 159.597L244.223 128.654Q248.808 123.995 253.177 119.133C255.884 116.169 258.777 112.644 262.005 110.247C263.951 108.801 266.362 108.607 268.688 108.352Z"/>
		<path fill="#CF9D54" transform="scale(1.06862 1.06862)" d="M213.146 66.9016C213.205 66.9509 213.268 66.9952 213.323 67.0495C213.648 67.376 213.734 67.731 213.779 68.1702C214.051 70.777 213.784 73.6765 213.78 76.3163L213.696 94.9246L213.791 132.189C213.833 138.081 214.351 144.098 213.923 149.971C213.873 150.671 213.817 151.439 213.545 152.092C212.032 155.723 205.557 162.767 202.46 165.389C201.792 165.955 201.03 166.607 200.108 166.523L199.826 166.025C199.846 164.988 200.22 164.153 200.593 163.203C204.5 153.887 206.963 144.061 203.603 134.133C202.411 130.612 200.572 127.08 200.038 123.389C199.246 117.916 199.504 112.105 199.387 106.57Q199.19 98.6009 199.21 90.6294C199.21 87.6581 199.035 84.479 199.514 81.5427C199.663 80.6279 199.862 79.7663 200.366 78.971C202.251 76 210.118 69.1082 213.146 66.9016Z"/>
		<path fill="#CF9D54" transform="scale(1.06862 1.06862)" d="M142.178 247.36C147.151 246.82 152.534 247.483 157.561 247.397C157.84 254.307 157.055 262.695 157.779 269.248C153.132 268.77 148.243 268.818 143.571 268.846L127.333 269.14C126.914 262.131 127.222 254.98 127.283 247.955C132.253 247.457 137.203 247.658 142.178 247.36Z"/>
		<path fill="#CF9D54" transform="scale(1.06862 1.06862)" d="M52.1008 182.297C60.9835 182.079 69.911 182.205 78.797 182.22C86.5872 182.232 94.4171 182.096 102.201 182.413C102.269 183.649 102.552 185.135 102.045 186.288C101.466 186.807 101.266 186.834 100.534 187.006Q82.0899 187.75 63.6353 187.34C60.2455 187.294 56.7796 187.616 53.4047 187.413C52.5507 187.361 51.7452 187.264 51.19 186.535C50.6585 185.837 50.5744 184.419 50.7482 183.595C50.8983 182.884 51.5423 182.646 52.1008 182.297Z"/>
		<path fill="#CF9D54" transform="scale(1.06862 1.06862)" d="M301.422 182.111C309.586 181.765 317.804 182.116 325.972 182.184C330.984 182.226 336.013 181.829 341.02 182.24C341.935 182.315 342.714 182.297 343.429 182.896C343.497 183.157 343.572 183.413 343.569 183.686C343.558 184.774 342.813 185.991 342.058 186.722C341.031 187.716 335.392 187.2 333.87 187.181C324.859 186.922 315.802 187.133 306.787 187.205C303.388 187.233 296.138 187.939 293.318 187.076C292.482 186.82 292.058 186.536 291.667 185.757C291.618 184.889 291.833 184.242 292.449 183.604C294.249 181.741 298.939 182.192 301.422 182.111Z"/>
	</g>
	<g/>
</svg>
