<?xml version="1.0" encoding="utf-8" ?>
<svg xmlns="http://www.w3.org/2000/svg" xmlns:xlink="http://www.w3.org/1999/xlink" width="512" height="512">
	<path fill="#E5A128" d="M67.549 127.623Q67.3484 127.463 67.1514 127.298Q66.1423 126.456 65.1767 125.564Q64.2111 124.672 63.2914 123.733Q62.3716 122.794 61.5001 121.81Q60.6285 120.826 59.8073 119.799Q58.9861 118.773 58.2173 117.707Q57.4486 116.64 56.7341 115.537Q56.0197 114.434 55.3614 113.296Q54.7031 112.158 54.1027 110.989Q53.5022 109.82 52.961 108.622Q52.4198 107.424 51.9393 106.2Q51.4588 104.977 51.0401 103.731Q50.6214 102.485 50.2657 101.219Q49.91 99.9539 49.618 98.6722Q49.3261 97.3906 49.0987 96.0959Q48.8713 94.8012 48.709 93.4968Q48.5468 92.1924 48.45 90.8815Q48.3507 89.5716 48.316 88.2584Q48.2813 86.9452 48.3114 85.6319Q48.3414 84.3185 48.436 83.0083Q48.5306 81.698 48.6896 80.394Q48.8486 79.09 49.0716 77.7954Q49.2946 76.5008 49.5811 75.2187Q49.8675 73.9367 50.2167 72.6703Q50.566 71.4039 50.9771 70.1562Q51.3882 68.9085 51.8603 67.6826Q52.3324 66.4567 52.8642 65.2555Q53.396 64.0543 53.9864 62.8807Q54.5767 61.7072 55.2241 60.5641Q55.8714 59.421 56.5743 58.3112Q57.2772 57.2014 58.0338 56.1275Q58.7904 55.0536 59.599 54.0183Q60.4076 52.983 61.2662 51.9887C70.6067 41.1266 83.9615 35.1205 98.1104 34.1041Q100.393 33.9779 102.678 34.0475Q104.963 34.117 107.234 34.3818Q109.505 34.6466 111.745 35.1047Q113.985 35.5628 116.177 36.2108Q117.42 36.5827 118.644 37.0151Q119.868 37.4476 121.069 37.9395Q122.27 38.4314 123.446 38.9817Q124.621 39.5319 125.768 40.1391Q126.915 40.7463 128.031 41.4091Q129.147 42.0719 130.229 42.7885Q131.311 43.5052 132.357 44.2741Q133.402 45.043 134.409 45.8623Q135.416 46.6815 136.381 47.5491Q137.346 48.4168 138.268 49.3307Q139.189 50.2446 140.065 51.2026Q140.941 52.1607 141.768 53.1605Q142.596 54.1603 143.373 55.1995Q144.151 56.2387 144.877 57.3148Q145.602 58.3909 146.274 59.5012Q146.946 60.6116 147.563 61.7536Q148.175 62.8947 148.73 64.0643Q149.285 65.2339 149.783 66.4291Q150.28 67.6243 150.719 68.8423Q151.158 70.0604 151.537 71.2983Q151.916 72.5363 152.235 73.7912Q152.553 75.0461 152.81 76.3151Q153.067 77.584 153.262 78.864Q153.456 80.1439 153.589 81.4318Q153.721 82.7197 153.79 84.0126Q153.86 85.3054 153.866 86.6001Q153.872 87.8947 153.816 89.1882Q153.759 90.4816 153.64 91.7708Q153.52 93.06 153.338 94.3418Q153.156 95.6236 152.911 96.895Q152.667 98.1664 152.361 99.4244Q152.055 100.682 151.688 101.924C147.337 116.492 137.407 127.228 124.235 134.396C129.518 139.772 131.785 147.003 136.991 152.392C147.761 163.542 163.124 170.094 178.35 171.932C182.859 172.477 187.38 172.499 191.913 172.578C191.709 172.182 191.472 171.798 191.251 171.411C185.298 160.954 183.562 151.411 186.855 139.626C188.617 133.318 192.213 127.805 197.068 123.44C203.903 117.294 212.538 113.388 220.622 109.176C227.756 105.459 234.661 101.529 240.994 96.541Q246.065 92.4795 250.336 87.5827C252.318 85.3414 257.845 76.7371 259.79 75.7325C261.648 74.7736 263.598 74.6362 265.557 75.3915C271.794 77.7961 280.813 90.5568 283.337 96.5831C287.401 106.285 286.272 114.073 282.419 123.526C283.121 124.038 283.829 124.54 284.522 125.064C294.02 132.247 300.363 143.811 301.923 155.549C304.015 171.305 299.296 182.091 289.947 194.286C301.04 198.036 310.613 205.333 318.458 213.919C337.514 234.775 353.242 265.543 351.948 294.362C356.316 294.763 360.686 295.353 365.054 295.795C368.854 296.18 372.993 296.283 376.682 297.274Q378.202 297.679 379.632 298.336Q381.061 298.993 382.359 299.883C387.795 303.55 389.877 308.733 391.099 314.947C404.764 315.121 415.45 314.099 426.604 323.77C430.342 327.011 433.435 331.061 436.611 334.84L449.481 350.172L461.83 364.886C464.6 368.188 467.662 371.451 469.891 375.153C471.708 378.17 472.759 381.318 472.979 384.846C473.375 391.196 470.715 396.073 466.629 400.705C470.783 400.372 475.522 400.197 479.669 400.633C481.866 400.863 484.2 401.636 485.577 403.466C486.467 404.65 486.694 405.971 486.834 407.413C487.246 411.637 486.762 416.211 486.656 420.467C486.534 425.387 486.867 432.136 485.961 436.801C485.626 438.53 484.373 440.224 482.91 441.175C481.479 442.106 478.636 442.119 476.949 442.169C466.806 442.465 456.574 442.197 446.423 442.198L386.66 442.192L360.797 442.208C356.664 442.21 351.128 442.763 347.186 441.858C345.907 441.565 344.702 441.088 343.847 440.058C341.955 437.78 340.587 435.017 339.112 432.457L332.509 420.997L314.153 389.176C310.557 382.945 307.088 376.586 303.238 370.508C303.814 379.376 303.292 389.317 303.294 398.311C303.295 408.769 303.773 419.428 303.224 429.862C308.813 430.06 327.652 429.295 331.505 430.594C333.217 431.171 334.614 432.147 335.379 433.82C335.811 434.763 336.032 435.8 336.12 436.83C336.432 440.517 336.131 444.443 336.144 448.16C336.163 453.684 336.512 459.451 336.079 464.943C335.997 465.987 335.798 467.044 335.411 468.02C334.715 469.775 333.638 471.021 331.876 471.753C330.755 472.219 329.679 472.359 328.479 472.414C322.632 472.682 316.691 472.483 310.833 472.482L277.996 472.47L244.936 472.48C238.909 472.49 232.798 472.711 226.781 472.461C225.178 472.395 223.168 472.26 221.708 471.571C219.862 470.7 218.934 469.003 218.258 467.176C218.103 466.007 218.072 464.825 218.047 463.646C217.931 458.058 218.087 452.445 218.084 446.854C218.082 443.303 217.653 439.355 218.244 435.86C218.496 434.369 219.17 432.929 220.257 431.861C221.138 430.996 222.156 430.541 223.357 430.302C226.875 429.603 230.884 429.962 234.464 429.969L253.237 430.019C253.003 427.759 253.214 425.353 253.231 423.076L253.249 410.233L253.19 364.826C252.087 364.707 251.02 364.509 249.991 364.076C248.22 363.329 247.164 362.215 246.202 360.579C244.529 357.737 243.199 354.592 241.739 351.628L235.225 338.647L212.007 292.285L190.272 248.9C186.433 241.239 182.005 233.509 178.801 225.57C157.256 223.663 142.869 221.133 122.566 213.373C122.94 216.884 122.986 220.433 123.286 223.951Q124.167 233.744 125.852 243.432C128.35 257.797 131.855 271.901 135.436 286.024C137.637 294.707 139.754 303.428 142.077 312.079C143.751 318.312 146.024 324.327 147.547 330.628C155.171 362.176 165.414 434.869 148.043 463.052C144.624 468.599 139.474 472.764 133.057 474.24C127.205 475.586 120.971 474.351 115.921 471.142C111.154 468.114 107.492 463.263 106.167 457.742C104.642 451.392 106.051 444.602 106.329 438.16Q106.68 429.592 106.393 421.021C105.825 402.648 102.486 384.95 98.573 367.045L98.5173 367.271C97.6512 370.67 97.331 374.231 96.8039 377.697Q95.7112 385.126 94.0929 392.458Q92.5461 399.633 90.4303 406.661Q88.3146 413.689 85.6434 420.525Q82.9722 427.361 79.7627 433.962Q76.5532 440.562 72.826 446.885C70.3737 451.015 67.8797 455.447 64.1855 458.599C59.3128 462.756 52.9458 465.078 46.5176 464.547C39.7494 463.987 33.2082 460.797 28.8275 455.572C23.2365 448.903 21.66 439.918 24.2929 431.675C25.7563 427.094 28.0154 422.629 29.7787 418.142Q34.2659 406.599 37.7402 394.711C48.0881 359.48 53.2669 322.66 56.3954 286.138C56.8385 280.966 58.2052 270.373 57.7681 265.625C57.435 262.006 55.8933 258.214 54.9327 254.693Q52.8434 246.9 51.2949 238.982C46.6246 214.805 46.2357 189.926 48.5447 165.465C49.7424 152.776 51.5491 142.399 61.104 133.058C63.1104 131.097 65.3874 129.41 67.549 127.623ZM100.913 48.1163C89.773 48.5624 80.0923 52.3126 72.4465 60.6165Q71.8026 61.322 71.1941 62.0582Q70.5856 62.7944 70.0139 63.5595Q69.4423 64.3247 68.9089 65.1171Q68.3755 65.9094 67.8816 66.7269Q67.3877 67.5445 66.9346 68.3853Q66.4814 69.2261 66.0701 70.0881Q65.6588 70.9501 65.2902 71.8313Q64.9217 72.7124 64.5968 73.6106Q64.272 74.5088 63.9916 75.4219Q63.7113 76.3349 63.476 77.2607Q63.2408 78.1864 63.0513 79.1225Q62.8618 80.0587 62.7185 81.003Q62.5752 81.9473 62.4784 82.8976Q62.3816 83.8478 62.3315 84.8016Q62.2815 85.7554 62.2783 86.7105Q62.2751 87.6657 62.3188 88.6198Q62.3633 89.5745 62.4549 90.5258Q62.5465 91.4772 62.6849 92.4229Q62.8233 93.3685 63.0082 94.3062Q63.1931 95.2439 63.424 96.1714Q63.6549 97.0988 63.9312 98.0137Q64.2076 98.9286 64.5288 99.8288Q64.85 100.729 65.2151 101.612Q65.5803 102.495 65.9886 103.36Q66.3969 104.224 66.8474 105.067Q67.2978 105.91 67.7893 106.729Q68.2808 107.549 68.8121 108.343Q69.3434 109.138 69.9132 109.905Q70.4831 110.672 71.0901 111.411Q71.6971 112.149 72.3398 112.856Q72.9825 113.564 73.6592 114.239Q74.336 114.913 75.0453 115.554C82.3877 122.2 91.4605 125.454 101.308 125.548C112.024 125.217 121.752 121.287 129.207 113.442Q129.86 112.755 130.478 112.037Q131.096 111.319 131.678 110.572Q132.261 109.824 132.806 109.049Q133.351 108.274 133.857 107.474Q134.363 106.673 134.83 105.848Q135.296 105.023 135.722 104.177Q136.147 103.33 136.531 102.464Q136.915 101.598 137.255 100.714Q137.596 99.8294 137.893 98.9297Q138.19 98.03 138.442 97.1167Q138.695 96.2035 138.902 95.279Q139.109 94.3546 139.271 93.421Q139.433 92.4875 139.549 91.5472Q139.665 90.6068 139.735 89.6619Q139.804 88.717 139.828 87.7699Q139.851 86.8227 139.828 85.8755Q139.805 84.9152 139.735 83.9573Q139.665 82.9993 139.547 82.046Q139.43 81.0927 139.265 80.1464Q139.1 79.2001 138.889 78.2631Q138.677 77.3261 138.42 76.4008Q138.162 75.4755 137.859 74.564Q137.556 73.6526 137.208 72.7574Q136.86 71.8621 136.468 70.9852Q136.076 70.1083 135.641 69.2519Q135.206 68.3955 134.729 67.5618Q134.252 66.728 133.734 65.9189Q133.216 65.1098 132.659 64.3274Q132.102 63.545 131.507 62.7911Q130.911 62.0373 130.279 61.3139Q129.648 60.5905 128.981 59.8994Q128.313 59.2082 127.613 58.551Q126.945 57.9207 126.248 57.3231Q125.55 56.7255 124.825 56.162Q124.1 55.5986 123.348 55.0706Q122.597 54.5426 121.821 54.0512Q121.045 53.5599 120.247 53.1063Q119.448 52.6528 118.629 52.238Q117.809 51.8233 116.971 51.4484Q116.132 51.0734 115.277 50.7391Q114.422 50.4048 113.551 50.1119Q112.681 49.8191 111.797 49.5683Q110.914 49.3175 110.019 49.1094Q109.125 48.9012 108.221 48.7363Q107.318 48.5713 106.407 48.4499Q105.497 48.3284 104.582 48.2508Q103.667 48.1732 102.749 48.1395Q101.831 48.1059 100.913 48.1163ZM264.316 92.9262C256.913 101.119 252.138 106.451 242.811 112.638C236.993 116.498 230.785 119.672 224.599 122.888C212.217 129.323 198.346 136.318 199.23 152.537C199.587 159.078 203.196 164.897 207.895 169.27C208.747 169.951 209.352 170.302 210.492 170.198C211.109 170.141 211.726 170.026 212.336 169.912C214.93 162.478 218.017 157.263 225.365 153.711C230.14 151.403 236 150.248 241.294 150.508C241.56 141.254 245.165 132.122 251.908 125.692Q253.194 124.442 254.629 123.366Q256.064 122.29 257.625 121.406Q259.186 120.523 260.846 119.846Q262.507 119.168 264.241 118.709C266.044 118.228 267.999 117.96 269.731 117.28C272.044 112.454 272.52 107.751 270.69 102.659C269.642 99.7456 266.804 94.7644 264.316 92.9262ZM268.625 132.015C264.064 133.427 260.179 136.047 257.905 140.347C253.434 148.799 257.191 155.394 254.902 162.637C260.736 164.425 265.829 169.388 268.631 174.705C270.197 177.677 271.586 181.686 271.619 185.06C271.634 186.608 271.267 188.404 271.569 189.907C271.678 190.453 271.559 190.244 272.029 190.576C272.404 190.393 272.776 190.217 273.137 190.007C280.759 184.801 285.978 177.428 287.721 168.302Q287.877 167.495 287.993 166.68Q288.109 165.866 288.185 165.047Q288.261 164.228 288.297 163.407Q288.333 162.585 288.328 161.763Q288.323 160.94 288.278 160.119Q288.233 159.298 288.148 158.48Q288.062 157.662 287.937 156.849Q287.811 156.036 287.646 155.231Q287.481 154.425 287.276 153.629Q287.071 152.832 286.828 152.047Q286.584 151.261 286.302 150.488Q286.02 149.716 285.701 148.958Q285.381 148.2 285.025 147.459Q284.669 146.718 284.276 145.995Q283.884 145.272 283.457 144.569Q283.029 143.867 282.568 143.186C279.979 139.4 273.993 133.125 269.366 132.099C268.976 132.012 268.965 132.025 268.625 132.015ZM81.3329 136.518C74.7267 138.878 68.6211 144.022 65.5939 150.416C62.7291 156.467 62.6085 164.497 62.0655 171.089C59.3369 204.214 62.4956 237.638 74.1373 268.916C79.3971 283.047 86.8614 296.138 92.9561 309.901C110.669 349.898 122.168 393.383 120.324 437.399Q120.174 441.605 119.835 445.8C119.416 451.179 118.376 457.035 124.358 459.797C126.506 460.789 129.151 460.977 131.36 460.069C135.103 458.532 137.249 454.245 138.631 450.679C149.241 423.302 140.882 361.639 133.788 333.102C132.614 328.381 131.082 323.784 129.509 319.185Q125.281 303.073 121.225 286.916C115.115 262.667 109.702 238.696 108.608 213.618C108.443 209.823 107.828 202.509 109.636 199.229C110.475 197.707 112.047 196.351 113.764 195.962C115.178 195.64 116.783 195.931 118.152 196.33C121.485 197.302 124.661 199.084 127.878 200.395Q136.68 203.989 145.884 206.373Q148.764 207.118 151.67 207.757Q154.575 208.395 157.503 208.926Q160.43 209.456 163.375 209.878Q166.319 210.301 169.278 210.614Q172.236 210.927 175.204 211.131Q178.172 211.335 181.145 211.429Q184.119 211.523 187.094 211.507Q190.069 211.491 193.041 211.365Q196.013 211.24 198.979 211.004Q201.944 210.769 204.899 210.424Q207.854 210.08 210.794 209.626Q213.734 209.173 216.656 208.611Q219.577 208.049 222.476 207.38Q225.374 206.711 228.246 205.935Q231.118 205.159 233.96 204.278Q236.801 203.397 239.608 202.411C244.748 200.611 252.279 198.542 255.512 193.889C257.377 191.205 257.974 187.833 257.383 184.639Q257.275 184.051 257.11 183.477Q256.945 182.903 256.723 182.348Q256.502 181.794 256.227 181.263Q255.951 180.733 255.625 180.233Q255.299 179.732 254.925 179.267Q254.55 178.801 254.132 178.375Q253.713 177.948 253.255 177.565Q252.796 177.183 252.302 176.847C249.487 174.953 246.334 174.548 243.07 175.275C240.16 175.923 237.27 177.191 234.45 178.187C230.239 179.673 225.894 181.063 221.574 182.198C194.605 189.279 165.749 188.793 141.536 173.702C135.425 169.894 129.006 165.148 124.494 159.526C119.111 152.819 116.574 144.115 108.766 139.567C104.192 139.403 99.7403 140.005 95.157 139.396C91.8099 138.951 83.7279 136.445 81.3329 136.518ZM270.733 207.102C266.97 207.925 262.764 208.398 259.139 209.64C256.666 210.488 254.283 211.721 251.872 212.736C246.627 214.944 240.963 217.102 235.416 218.401C240.343 229.117 246.286 239.543 251.755 249.995C258.219 262.349 264.42 274.958 271.206 287.132C268.473 277.29 264.285 267.039 260.9 257.328C259.223 252.516 256.916 247.274 256.57 242.156C256.258 237.543 257.464 232.71 259.756 228.71Q260.039 228.207 260.348 227.72Q260.657 227.232 260.99 226.761Q261.323 226.289 261.679 225.836Q262.036 225.382 262.415 224.947Q262.794 224.511 263.194 224.096Q263.595 223.681 264.016 223.286Q264.437 222.892 264.878 222.519Q265.319 222.146 265.778 221.796Q266.236 221.447 266.713 221.12Q267.189 220.794 267.681 220.493Q268.173 220.191 268.68 219.915Q269.186 219.639 269.706 219.389Q270.226 219.139 270.759 218.915Q271.291 218.692 271.833 218.496Q272.376 218.3 272.928 218.131Q273.48 217.963 274.04 217.823C279.65 216.371 284.975 217.274 289.926 220.227Q290.789 220.747 291.601 221.343C307.274 233.052 315.892 260.88 321.915 278.92C323.332 283.163 324.605 287.531 326.216 291.7C330.134 292.291 334.081 292.512 338.008 293.003C338.107 289.832 338.129 286.713 337.755 283.554C335.26 262.513 322.61 238.75 308.214 223.418C300.606 215.315 291.334 207.271 279.679 206.947C276.728 206.865 273.678 206.895 270.733 207.102ZM220.666 222.34Q213.918 223.458 207.136 224.34C204.34 224.679 201.335 224.714 198.595 225.322C197.503 225.564 196.351 225.847 195.478 226.576C195.301 227.249 195.339 227.573 195.599 228.224C196.42 230.276 197.612 232.309 198.607 234.294L204.48 246.017L223.165 283.316L244.837 326.564L252.09 341.059C253.394 343.664 254.614 346.387 256.084 348.896C256.384 349.407 256.644 349.828 257.116 350.206C260.403 350.746 263.966 350.491 267.298 350.491L283.817 350.489L342.875 350.479C351.105 350.478 359.357 350.342 367.584 350.491C367.58 346.965 367.672 343.409 367.53 339.887C358.707 339.483 349.833 338.422 341.012 337.825L325.831 336.746C318.811 336.3 311.123 336.213 304.374 334.149C298.764 332.434 294.002 329.427 289.513 325.712C285.844 325.271 276.713 325.791 274.426 322.82C272.11 319.811 270.502 316.158 268.75 312.799L260.662 297.281L230.816 240.13L224.069 227.226C223.388 225.913 222.692 223.833 221.763 222.745C221.717 222.691 221.182 222.387 221.141 222.376C220.988 222.334 220.824 222.352 220.666 222.34ZM278.065 231.302C275.435 231.991 273.273 233.454 271.857 235.811C270.3 238.401 270.243 240.688 271.017 243.528C272.139 247.645 273.803 251.729 275.227 255.754L282.6 276.766L289.551 296.652C291.061 300.969 292.362 305.704 294.625 309.686Q295.018 310.386 295.459 311.058Q295.899 311.73 296.384 312.37Q296.869 313.01 297.396 313.615Q297.924 314.221 298.492 314.789Q299.059 315.357 299.664 315.885Q300.269 316.413 300.909 316.899Q301.549 317.384 302.22 317.825Q302.891 318.266 303.591 318.66Q305.294 319.604 307.126 320.262Q308.958 320.92 310.872 321.275C316.395 322.342 322.318 322.387 327.935 322.781L354.885 324.755C359.831 325.109 364.9 325.252 369.812 325.853L375.25 326.303C376.78 322.36 378.187 317.993 376.32 313.877C375.824 312.784 375.151 311.988 374.287 311.169L373.968 311.098C368.841 310.015 363.347 309.787 358.126 309.257L333.079 306.665C328.414 306.21 322.893 306.23 318.445 304.736C317.131 304.295 316.181 303.322 315.423 302.189C313.036 298.621 311.178 291.182 309.749 286.856C305.969 275.404 293.563 234.081 281.504 231.475C280.4 231.236 279.188 231.19 278.065 231.302ZM69.5667 294.598C69.3594 303.198 67.8443 312.21 66.7467 320.776C62.0076 357.761 54.7009 395.205 40.1452 429.685C38.1638 434.379 35.6276 439.152 38.0458 444.239Q38.4482 445.071 38.9811 445.826Q39.514 446.58 40.163 447.238Q40.5474 447.624 40.9676 447.97Q41.3879 448.317 41.84 448.62Q42.2922 448.924 42.7718 449.182Q43.2515 449.44 43.7541 449.65Q44.2567 449.859 44.7774 450.019Q45.2981 450.179 45.832 450.287Q46.3658 450.395 46.9076 450.45Q47.4495 450.505 47.9941 450.507C49.2873 450.508 50.8978 450.272 52.1127 449.775C53.4453 449.113 54.5527 448.472 55.6012 447.382C57.8067 445.091 59.4059 442.106 61.0027 439.373Q65.3728 431.968 68.9345 424.142Q72.4963 416.316 75.2098 408.157C82.5054 386.448 85.316 363.802 85.5624 340.977C85.6082 336.734 86.0869 331.537 85.0327 327.413C84.2385 324.306 82.6214 321.206 81.3329 318.273Q76.7281 307.876 71.7052 297.675C71.1901 296.636 70.6297 295.158 69.5667 294.598ZM389.405 329.015C387.211 333.119 385.048 335.62 381.732 338.806C381.55 342.744 381.792 346.7 381.566 350.628C385.421 350.764 397.407 350.531 400.331 351.702C404.369 353.32 408.58 358.75 411.725 361.898C419.259 369.437 441.273 392.09 451.389 392.926C454.042 392.292 456.74 391.348 458.213 388.849C458.845 387.776 459.241 386.052 458.922 384.827C458.505 383.226 457.297 381.495 456.31 380.179C454.114 377.253 451.618 374.492 449.262 371.694L437.077 357.2L425.999 344.002C423.741 341.308 421.533 338.492 419.087 335.968C417.407 334.233 415.529 332.73 413.392 331.595C405.896 327.614 397.412 329.854 389.405 329.015ZM316.254 364.525C319.445 371.169 323.545 377.551 327.245 383.93L343.232 411.629C346.357 417.04 349.619 422.411 352.594 427.904C360.061 428.583 367.935 428.11 375.45 428.111L418.205 428.113L458.099 428.111C460.725 428.111 470.636 428.511 472.444 427.957C472.56 423.592 472.807 419.219 472.862 414.856L401.448 414.807L380.142 414.836C376.249 414.844 372.072 415.147 368.212 414.659C366.561 414.45 365.145 413.634 363.991 412.448C361.632 410.022 359.183 403.962 357.594 400.834L345.491 377.195C343.401 373.119 341.493 368.727 339.052 364.866C333.998 364.61 328.89 364.756 323.829 364.754C321.322 364.752 318.739 364.889 316.254 364.525ZM355.055 364.526C355.644 367.47 359.925 374.734 361.573 377.949C365.425 385.458 369.185 393.037 373.16 400.48C387.723 400.988 402.409 400.607 416.985 400.597C423.036 400.593 429.135 400.38 435.173 400.776C434.655 399.494 425.362 393.257 423.49 391.679Q414.044 383.699 405.197 375.061C402.135 372.121 399.139 368.487 395.729 365.983C395.634 365.914 395.542 365.84 395.446 365.773C392.65 363.824 361.371 365.349 355.055 364.526ZM267.312 364.665C267.075 371.149 267.212 377.671 267.211 384.16L267.214 417.523L267.25 429.732C267.264 432.528 267.424 435.428 267.015 438.202C266.775 439.835 266.021 441.118 264.805 442.225C263.686 443.244 262.681 443.565 261.207 443.81C256.519 444.589 251.075 444.1 246.296 444.112C242.002 444.123 237.503 444.43 233.232 444.141Q232.661 444.104 232.092 444.038Q232.033 451.141 232.09 458.243C250.595 458.484 269.119 458.31 287.625 458.308C299.064 458.308 310.659 457.915 322.081 458.354C322.094 453.65 321.964 448.898 322.184 444.201Q314.125 444.057 306.065 444.117C302.293 444.124 298.029 444.546 294.349 443.618C293.054 443.291 292.013 442.636 291.11 441.651C290.066 440.514 289.631 439.246 289.448 437.733C289.087 434.747 289.282 431.596 289.298 428.587L289.347 413.476L289.323 364.764Q282.419 364.753 275.515 364.814C272.882 364.837 269.892 365.198 267.312 364.665Z"/>
</svg>
