<?xml version="1.0" encoding="UTF-8"?>
<svg version="1.1" xmlns="http://www.w3.org/2000/svg" width="512" height="512">
<path d="M0 0 C2.90745961 0.00850988 5.81294798 -0.02034254 8.72021484 -0.05200195 C22.91080307 -0.10689551 35.61329996 1.44052851 48.35693359 8.19604492 C49.02007568 8.53821045 49.68321777 8.88037598 50.36645508 9.23291016 C56.15971505 12.31884163 61.19297549 16.01999452 66.04443359 20.44604492 C66.65287109 20.96295898 67.26130859 21.47987305 67.88818359 22.01245117 C83.13879962 35.84198707 89.79394654 56.54383737 91.04443359 76.44604492 C91.17834268 80.88575916 91.19140978 85.32190215 91.18969727 89.76342773 C91.19305588 91.03670425 91.19641449 92.30998077 91.19987488 93.62184143 C91.20861861 97.07871137 91.21104887 100.53555648 91.21169066 103.99243641 C91.21240665 106.16221428 91.21455121 108.33198605 91.21718788 110.50176239 C91.22640932 118.09989312 91.23052678 125.69800644 91.22973633 133.29614258 C91.22913634 140.33295193 91.23968093 147.36968443 91.25547999 154.40647435 C91.26863574 160.48674983 91.27391689 166.56700043 91.27328092 172.64728999 C91.27302829 176.26158409 91.2757474 179.87580974 91.28645897 183.49008942 C91.36687405 212.68417121 90.40611011 238.42671987 70.04443359 261.44604492 C69.52623047 262.05834961 69.00802734 262.6706543 68.47412109 263.30151367 C56.42743413 276.52865489 36.98464101 284.87314954 19.31518555 285.74975586 C14.87581928 285.89360878 10.43967181 285.91294879 5.99829102 285.89208984 C3.24663085 285.88359032 0.49706153 285.91242071 -2.25439453 285.9440918 C-16.19344389 286.00068555 -29.61635089 284.5073272 -42.14306641 277.88354492 C-42.7954126 277.54621338 -43.44775879 277.20888184 -44.11987305 276.86132812 C-61.99496533 267.18143199 -75.08130066 250.74859118 -81.30712891 231.47338867 C-84.61555758 219.77488009 -85.10548681 208.35640364 -85.10083008 196.25805664 C-85.10418869 194.98653244 -85.1075473 193.71500824 -85.11100769 192.404953 C-85.11976317 188.94795671 -85.12218225 185.49098525 -85.12282348 182.03397894 C-85.12353901 179.86403115 -85.12568281 177.69408948 -85.12832069 175.52414322 C-85.13754747 167.92486426 -85.1416591 160.32560273 -85.14086914 152.72631836 C-85.14026967 145.69011776 -85.15080273 138.65399414 -85.1666128 131.61781299 C-85.1797766 125.5383913 -85.18504934 119.45899448 -85.18441373 113.37955868 C-85.18416125 109.76577672 -85.18687181 106.15206325 -85.19759178 102.53829575 C-85.28438061 71.00867875 -83.45727674 44.82997989 -60.70556641 20.82104492 C-43.66444909 4.26928402 -22.82450977 -0.10167247 0 0 Z M-26.95556641 19.44604492 C-28.27826538 19.86515137 -28.27826538 19.86515137 -29.62768555 20.29272461 C-44.0125184 25.10225236 -55.43934053 36.96261762 -62.33056641 50.13354492 C-62.65250977 50.73175049 -62.97445312 51.32995605 -63.30615234 51.94628906 C-68.69801429 62.96822485 -69.40359861 75.62485508 -69.34375 87.6706543 C-69.34783086 89.01797405 -69.35318109 90.36529045 -69.35968018 91.71260071 C-69.37318016 95.32219455 -69.36812814 98.93152681 -69.35854292 102.54112434 C-69.35085513 106.34972881 -69.35801687 110.15831344 -69.36270142 113.96691895 C-69.36813279 120.35827585 -69.36103671 126.74952818 -69.34667969 133.14086914 C-69.33035821 140.4908027 -69.33564859 147.84048644 -69.3521589 155.19041395 C-69.36584902 161.54336136 -69.36765696 167.89623434 -69.3598429 174.24919176 C-69.35520741 178.02494929 -69.35442592 181.80059007 -69.36445236 185.57633972 C-69.37323045 189.1290198 -69.36690666 192.68138328 -69.34976959 196.23402977 C-69.34402362 198.13109803 -69.35272674 200.02819364 -69.3621521 201.92524719 C-69.279259 213.3753001 -67.90962158 225.38428556 -62.45556641 235.63354492 C-61.94280151 236.62052368 -61.94280151 236.62052368 -61.41967773 237.62744141 C-53.29372915 252.49347598 -39.99500899 262.24248335 -23.95556641 267.44604492 C-15.86852872 269.73820882 -7.72554546 269.7862891 0.61108398 269.76171875 C2.84262305 269.75856515 5.07282363 269.78206955 7.30419922 269.80737305 C25.57652783 269.89015923 41.55938839 265.4775802 54.98242188 252.63549805 C68.20765487 239.45969677 74.32308291 224.45059659 74.45101929 205.75749207 C74.44494659 204.44492935 74.4388739 203.13236664 74.43261719 201.7800293 C74.43669307 200.349468 74.4420406 198.91890985 74.44854736 197.48835754 C74.46210614 193.63913157 74.45697021 189.79014956 74.44741011 185.94091988 C74.43975362 181.89066084 74.4468756 177.84042109 74.4515686 173.79016113 C74.45700886 166.99166153 74.44988019 160.19326006 74.43554688 153.39477539 C74.41922368 145.5625864 74.42451342 137.73063179 74.44102609 129.89844847 C74.4546905 123.14391449 74.45653652 116.3894506 74.44871008 109.63490725 C74.44406067 105.61384019 74.44333268 101.59288289 74.45331955 97.57182312 C74.46205954 93.78938142 74.45584079 90.00723853 74.43863678 86.22482872 C74.4328528 84.19475578 74.44162703 82.16465723 74.45101929 80.13459778 C74.33091752 62.58622898 68.56610307 46.09592262 56.04443359 33.44604492 C40.96005741 20.26306069 25.02523748 15.89680457 5.41748047 16.05493164 C3.0477545 16.07102237 0.67973328 16.05499895 -1.68994141 16.03588867 C-10.5242135 16.02400473 -18.47411604 16.70459975 -26.95556641 19.44604492 Z " fill="#000000" transform="translate(252.95556640625,46.553955078125)"/>
<path d="M0 0 C0.66 -0.0103125 1.32 -0.020625 2 -0.03125 C4.96712897 0.75689363 6.09573384 2.10930247 8 4.5 C8.51898193 7.63848877 8.51898193 7.63848877 8.54589844 11.37988281 C8.55623611 12.06321686 8.56657379 12.7465509 8.57722473 13.45059204 C8.60664356 15.70167715 8.6081516 17.9518628 8.609375 20.203125 C8.62435741 21.76684279 8.64108469 23.33054476 8.65948486 24.89422607 C8.70316443 29.0041578 8.72315861 33.11387607 8.73822021 37.22399902 C8.75778927 41.42029445 8.79975945 45.61635927 8.83984375 49.8125 C8.91515232 58.04160634 8.96543963 66.27062213 9 74.5 C9.68626465 73.80849854 10.3725293 73.11699707 11.07958984 72.40454102 C13.62279269 69.84325826 16.16928709 67.28526991 18.71679688 64.72827148 C19.81958861 63.6204464 20.92148176 62.51172607 22.02246094 61.40209961 C23.60377221 59.8086792 25.18827124 58.21849052 26.7734375 56.62890625 C27.26621185 56.13097061 27.75898621 55.63303497 28.26669312 55.12001038 C32.75011027 50.63585758 32.75011027 50.63585758 36.875 50.1875 C40 50.5 40 50.5 42.3125 52.125 C44.39744561 55.05936789 44.92657532 56.9021905 45 60.5 C43.20335823 63.95982465 41.0915199 66.67179635 38.37402344 69.44824219 C37.65607605 70.18540466 36.93812866 70.92256714 36.19842529 71.68206787 C35.4265387 72.46245422 34.6546521 73.24284058 33.859375 74.046875 C33.0589679 74.85868225 32.25856079 75.6704895 31.43389893 76.50689697 C29.74212741 78.21752404 28.0474574 79.92528877 26.35009766 81.63037109 C23.75908381 84.24084795 21.19017446 86.87186511 18.62109375 89.50390625 C16.97267865 91.16537763 15.322981 92.82557771 13.671875 94.484375 C12.90808533 95.27285828 12.14429565 96.06134155 11.35736084 96.87371826 C8.02732732 100.17639246 5.79320917 102.24722819 1.27050781 103.68847656 C-4.02379257 103.38337057 -7.26118969 100.4827926 -10.94824219 96.87402344 C-11.68540466 96.15607605 -12.42256714 95.43812866 -13.18206787 94.69842529 C-13.96245422 93.9265387 -14.74284058 93.1546521 -15.546875 92.359375 C-16.35868225 91.5589679 -17.1704895 90.75856079 -18.00689697 89.93389893 C-19.71752404 88.24212741 -21.42528877 86.5474574 -23.13037109 84.85009766 C-25.74084795 82.25908381 -28.37186511 79.69017446 -31.00390625 77.12109375 C-32.66537763 75.47267865 -34.32557771 73.822981 -35.984375 72.171875 C-36.77285828 71.40808533 -37.56134155 70.64429565 -38.37371826 69.85736084 C-44.36260721 63.81885999 -44.36260721 63.81885999 -45.08300781 59.63769531 C-44.98688397 56.00421418 -44.24526753 54.32737392 -42 51.5 C-38.84142222 49.92071111 -36.48966626 50.13609033 -33 50.5 C-30.67969376 52.20522384 -28.99362625 53.68034427 -27.06640625 55.75 C-26.5436058 56.28270508 -26.02080536 56.81541016 -25.48216248 57.36425781 C-23.82504648 59.06038943 -22.19399355 60.77924468 -20.5625 62.5 C-19.43978937 63.65784087 -18.31545582 64.81411041 -17.18945312 65.96875 C-14.44050817 68.79464875 -11.71467497 71.6411802 -9 74.5 C-8.99635437 73.63191711 -8.99270874 72.76383423 -8.98895264 71.8694458 C-8.95108495 63.6882865 -8.8942464 55.50752634 -8.81609726 47.32664871 C-8.77658887 43.12074473 -8.7444171 38.91505115 -8.72900391 34.70898438 C-8.71385913 30.64979418 -8.67945331 26.59118232 -8.63169098 22.53224945 C-8.6168545 20.98376238 -8.60895768 19.43519274 -8.60811615 17.88663483 C-8.60575137 15.71709042 -8.57871576 13.54915071 -8.54589844 11.37988281 C-8.53257477 9.52789276 -8.53257477 9.52789276 -8.51898193 7.63848877 C-7.71080146 2.75110216 -5.06392158 -0.07912377 0 0 Z " fill="#000000" transform="translate(256,361.5)"/>
<path d="M0 0 C2.64706421 1.65602112 2.64706421 1.65602112 5 4 C5.63491821 6.8011322 5.63491821 6.8011322 5.64697266 10.06616211 C5.66273346 11.29100815 5.67849426 12.51585419 5.69473267 13.77781677 C5.67955093 15.75758263 5.67955093 15.75758263 5.6640625 17.77734375 C5.66743257 19.14970835 5.67228678 20.52207003 5.67855835 21.89442444 C5.68592348 24.76869157 5.67523937 27.64218086 5.65185547 30.51635742 C5.62339245 34.19327071 5.63975472 37.86835722 5.66971779 41.54520321 C5.68782487 44.37896882 5.68201718 47.21230457 5.66907883 50.04608345 C5.66413948 52.05847997 5.67927741 54.07089346 5.69473267 56.08323669 C5.56448153 66.23171466 5.56448153 66.23171466 2.64599609 69.33032227 C-0.64816155 71.40900321 -2.17832866 71.79618153 -6 71 C-8.58792696 69.3514442 -9.571442 68.62389896 -11 66 C-11.76827385 61.45447127 -11.70008103 56.94451675 -11.6640625 52.34375 C-11.66743376 50.99523482 -11.67228897 49.6467226 -11.67855835 48.29821777 C-11.68591541 45.47699957 -11.67526395 42.65657489 -11.65185547 39.83544922 C-11.62336586 36.22693472 -11.63977646 32.62027952 -11.66971779 29.01183319 C-11.68782386 26.2286794 -11.68201815 23.44596331 -11.66907883 20.66279602 C-11.66414204 18.68806749 -11.67927332 16.71332165 -11.69473267 14.73864746 C-11.56449877 4.78361863 -11.56449877 4.78361863 -8.64599609 1.68164062 C-5.37057092 -0.40002837 -3.81204183 -0.71475784 0 0 Z " fill="#000000" transform="translate(259,105)"/>
</svg>
